<svg width="420" height="420" viewBox="0 0 420 420" fill="none" xmlns="http://www.w3.org/2000/svg">
<path d="M420 321.214H0V321.424H420V321.214Z" fill="#EBEBEB"/>
<path d="M377.917 334.735H359.707V334.945H377.917V334.735Z" fill="#EBEBEB"/>
<path d="M289.52 330.377H260.869V330.587H289.52V330.377Z" fill="#EBEBEB"/>
<path d="M370.533 326.935H333.132V327.145H370.533V326.935Z" fill="#EBEBEB"/>
<path d="M145.332 331.17H135.977V331.38H145.332V331.17Z" fill="#EBEBEB"/>
<path d="M128.498 331.17H96.2512V331.38H128.498V331.17Z" fill="#EBEBEB"/>
<path d="M78.9616 327.624H55.6978V327.834H78.9616V327.624Z" fill="#EBEBEB"/>
<path d="M199.092 283.752H36.8885C34.245 283.752 32.0938 281.601 32.0938 278.957V50.9544C32.0938 48.3109 34.245 46.1597 36.8885 46.1597H199.092C201.734 46.1597 203.885 48.3109 203.885 50.9544V278.957C203.885 281.601 201.734 283.752 199.092 283.752ZM36.8885 46.3705C34.3601 46.3705 32.3037 48.4268 32.3037 50.9552V278.958C32.3037 281.487 34.3601 283.543 36.8885 283.543H199.092C201.619 283.543 203.675 281.487 203.675 278.958V50.9544C203.675 48.4268 201.619 46.3697 199.092 46.3697L36.8885 46.3705Z" fill="#EBEBEB"/>
<path d="M380.78 283.752H218.578C215.935 283.752 213.784 281.601 213.784 278.957V50.9544C213.784 48.3109 215.935 46.1597 218.578 46.1597H380.78C383.425 46.1597 385.575 48.3109 385.575 50.9544V278.957C385.576 281.601 383.425 283.752 380.78 283.752ZM218.578 46.3705C216.051 46.3705 213.994 48.4268 213.994 50.9552V278.958C213.994 281.487 216.051 283.543 218.578 283.543H380.78C383.309 283.543 385.365 281.487 385.365 278.958V50.9544C385.365 48.4268 383.309 46.3697 380.78 46.3697L218.578 46.3705Z" fill="#EBEBEB"/>
<path d="M181.5 168.738L181.878 157.7L175.101 155.485C174.822 151.714 174.191 147.989 173.294 144.401L179.038 140.165L175.136 129.797L168.032 130.369C166.338 127.017 164.348 123.827 162.118 120.835L165.798 114.692L158.231 106.619L151.879 109.872C149.018 107.44 146.003 105.238 142.775 103.291L143.804 96.2401L133.725 91.6663L129.108 97.0776C125.59 95.936 121.945 95.0826 118.174 94.5164L116.457 87.6049L105.389 87.2261L103.204 94.004C99.4028 94.3106 95.7076 94.9129 92.12 95.8109L87.8545 90.0947L77.4872 93.9679L78.0601 101.073C74.7068 102.795 71.5182 104.785 68.5261 107.016L62.4126 103.336L54.3099 110.873L57.5616 117.254C55.1315 120.086 52.9281 123.132 51.0087 126.361L43.9595 125.303L39.3571 135.38L44.7969 139.998C43.6562 143.517 42.7717 147.19 42.2358 150.933L35.294 152.677L34.916 163.716L41.7217 165.932C41.9997 169.732 42.6314 173.429 43.5294 177.015L37.7863 181.251L41.6881 191.62L48.7928 191.046C50.4863 194.398 52.4762 197.588 54.7064 200.58L51.0255 206.723L58.5931 214.797L64.9443 211.544C67.7768 213.975 70.8218 216.179 74.0499 218.126L72.9915 225.174L83.0698 229.748L87.7167 224.338C91.2346 225.479 94.8794 226.333 98.651 226.899L100.368 233.81L111.436 234.189L113.622 227.411C117.422 227.105 121.118 226.502 124.705 225.604L128.941 231.319L139.309 227.446L138.764 220.343C142.118 218.621 145.278 216.629 148.298 214.399L154.413 218.08L162.515 210.542L159.264 204.162C161.694 201.329 163.897 198.283 165.817 195.054L172.866 196.113L177.468 186.035L172.028 181.417C173.169 177.899 174.052 174.255 174.589 170.484L181.5 168.738ZM106.912 204.498C82.7381 203.669 63.8086 183.397 64.6369 159.222C65.466 135.02 85.7385 116.092 109.912 116.92C134.086 117.748 153.015 138.019 152.186 162.222C151.358 186.396 131.085 205.326 106.912 204.498Z" fill="#EBEBEB"/>
<path d="M370.404 132.235L373.188 129.635L372.075 127.443C372.927 126.455 373.681 125.393 374.337 124.3L376.771 124.668L378.348 121.188L376.475 119.596C376.88 118.365 377.172 117.103 377.358 115.829L379.754 115.229L379.877 111.415L377.535 110.659C377.43 109.369 377.232 108.096 376.92 106.834L378.89 105.366L377.548 101.794L375.103 101.987C374.523 100.85 373.843 99.7532 373.062 98.6965L374.328 96.5923L371.722 93.8009L369.535 94.9198C368.533 94.0672 367.486 93.3137 366.392 92.6577L366.746 90.2234L363.273 88.64L361.68 90.5123C360.443 90.1142 359.181 89.8219 357.906 89.6362L357.312 87.2481L353.499 87.1104L352.736 89.459C351.453 89.5573 350.173 89.7622 348.917 90.0823L347.457 88.1057L343.877 89.4405L344.077 91.8933C342.941 92.4729 341.829 93.1533 340.786 93.9354L338.669 92.6678L335.885 95.2676L337.004 97.4675C336.145 98.4621 335.398 99.5171 334.742 100.611L332.308 100.243L330.731 103.723L332.603 105.316C332.198 106.546 331.906 107.809 331.72 109.082L329.324 109.683L329.201 113.497L331.543 114.252C331.641 115.536 331.846 116.816 332.158 118.078L330.181 119.539L331.524 123.111L333.976 122.925C334.556 124.061 335.236 125.157 336.018 126.216L334.752 128.32L337.358 131.111L339.544 129.992C340.545 130.843 341.593 131.598 342.687 132.254L342.327 134.68L345.799 136.264L347.399 134.399C348.637 134.797 349.893 135.082 351.173 135.274L351.767 137.662L355.58 137.8L356.343 135.452C357.627 135.353 358.906 135.148 360.162 134.828L361.622 136.806L365.202 135.471L365.002 133.018C366.137 132.438 367.242 131.766 368.293 130.977L370.404 132.235ZM350.566 116.165C348.518 113.972 348.636 110.532 350.829 108.484C353.025 106.434 356.465 106.551 358.513 108.745C360.561 110.939 360.443 114.378 358.247 116.429C356.054 118.477 352.614 118.358 350.566 116.165Z" fill="#EBEBEB"/>
<path d="M268.79 245.562L260.104 239.563C260.101 239.556 260.101 239.549 260.099 239.542C259.239 236.386 258.054 233.349 256.605 230.494L258.83 221.759L246.23 208.265L237.361 209.888C234.614 208.25 231.666 206.86 228.579 205.788C228.573 205.786 228.564 205.784 228.557 205.781L223.165 196.7L204.714 196.068L198.715 204.754C198.704 204.757 198.692 204.76 198.68 204.763C195.528 205.622 192.493 206.805 189.642 208.252L180.912 206.027L167.418 218.628L169.038 227.48C169.037 227.483 169.035 227.484 169.033 227.487C167.36 230.265 166.003 233.214 164.93 236.302L155.851 241.692L155.219 260.144L163.913 266.148C164.771 269.326 165.92 272.357 167.396 275.235C167.397 275.237 167.397 275.237 167.398 275.239L165.179 283.946L177.779 297.439L186.593 295.826C189.375 297.471 192.327 298.862 195.451 299.936C195.454 299.938 195.456 299.938 195.459 299.938L200.843 309.005L219.293 309.638L225.288 300.957C228.478 300.099 231.517 298.915 234.403 297.464C234.403 297.464 234.405 297.464 234.406 297.463L243.096 299.677L256.59 287.078L254.97 278.224C256.643 275.446 258 272.496 259.073 269.407L259.074 269.406L268.156 264.012L268.79 245.562ZM211.29 273.61C199.821 273.217 190.862 263.588 191.253 252.151C191.646 240.682 201.242 231.722 212.712 232.114C224.181 232.507 233.141 242.103 232.749 253.573C232.358 265.009 222.76 274.003 211.29 273.61Z" fill="#EBEBEB"/>
<path d="M288.58 193.161C288.56 193.161 288.54 193.161 288.52 193.161L273.973 192.662C273.369 192.642 272.817 192.315 272.509 191.796L268.592 185.2C266.51 184.445 264.458 183.492 262.475 182.362L256.169 183.516C255.574 183.628 254.966 183.424 254.553 182.981L244.619 172.345C244.207 171.903 244.048 171.281 244.197 170.696L245.783 164.471C244.819 162.5 244.013 160.394 243.381 158.196L237.055 153.828C236.558 153.485 236.27 152.911 236.29 152.308L236.788 137.762C236.808 137.158 237.136 136.606 237.655 136.298L244.262 132.374C245.046 130.229 245.996 128.187 247.093 126.286L245.935 119.958C245.827 119.364 246.027 118.754 246.469 118.343L257.108 108.408C257.55 107.995 258.171 107.837 258.757 107.985L265.002 109.577C267.022 108.594 269.121 107.785 271.259 107.166L275.625 100.845C275.967 100.347 276.531 100.04 277.145 100.08L291.691 100.579C292.295 100.599 292.847 100.926 293.156 101.446L297.08 108.053C299.165 108.817 301.201 109.767 303.151 110.886L309.496 109.723C310.092 109.615 310.7 109.816 311.112 110.258L321.046 120.897C321.458 121.339 321.617 121.961 321.469 122.546L319.876 128.794C320.86 130.815 321.668 132.913 322.288 135.049L328.609 139.413C329.107 139.756 329.395 140.33 329.375 140.934L328.877 155.481C328.856 156.085 328.529 156.637 328.01 156.945L321.4 160.87C320.616 163.015 319.668 165.056 318.572 166.954L319.731 173.285C319.839 173.878 319.638 174.488 319.196 174.9L308.558 184.832C308.117 185.245 307.496 185.405 306.91 185.255L300.693 183.67C298.644 184.66 296.533 185.469 294.403 186.081L290.042 192.397C289.708 192.876 289.162 193.161 288.58 193.161ZM275.064 189.15L287.671 189.583L291.847 183.537C292.085 183.191 292.44 182.941 292.846 182.832C295.168 182.208 297.472 181.324 299.696 180.206C299.7 180.204 299.703 180.203 299.708 180.2C300.078 180.018 300.51 179.962 300.932 180.072L306.844 181.578L316.065 172.969L314.962 166.943C314.884 166.517 314.964 166.079 315.187 165.708C316.403 163.689 317.435 161.475 318.253 159.127C318.387 158.711 318.672 158.36 319.043 158.142L325.363 154.389L325.795 141.78L319.744 137.601C319.427 137.383 319.19 137.067 319.069 136.703C319.054 136.658 319.04 136.61 319.028 136.561C318.396 134.245 317.516 131.968 316.413 129.795C316.218 129.411 316.17 128.97 316.275 128.554L317.79 122.608L309.18 113.386L303.141 114.491C302.718 114.569 302.282 114.49 301.913 114.269C299.813 113.016 297.596 111.98 295.323 111.19C295.194 111.146 295.064 111.086 294.952 111.018C294.707 110.867 294.503 110.659 294.357 110.412L290.6 104.088L277.993 103.655L273.814 109.707C273.565 110.067 273.193 110.321 272.77 110.422C270.437 111.062 268.168 111.938 266.004 113.036C265.62 113.231 265.178 113.28 264.764 113.173L258.821 111.658L249.6 120.269L250.703 126.294C250.772 126.672 250.716 127.063 250.545 127.406C250.52 127.455 250.494 127.502 250.465 127.549C249.246 129.575 248.213 131.796 247.396 134.151C247.258 134.545 246.986 134.88 246.626 135.093L240.303 138.849L239.871 151.456L245.927 155.639C246.273 155.877 246.522 156.231 246.632 156.636C247.285 159.052 248.163 161.346 249.245 163.454C249.307 163.575 249.355 163.703 249.388 163.835C249.46 164.12 249.459 164.418 249.386 164.703L247.876 170.628L256.486 179.848L262.482 178.751C262.903 178.675 263.336 178.753 263.703 178.97C265.841 180.234 268.07 181.269 270.329 182.048C270.738 182.178 271.091 182.454 271.316 182.833L275.064 189.15ZM282.851 173.22C282.54 173.22 282.23 173.214 281.918 173.203C267.263 172.701 255.75 160.37 256.252 145.716C256.754 131.062 269.105 119.551 283.739 120.049C298.394 120.551 309.908 132.881 309.405 147.537C309.163 154.626 306.171 161.203 300.983 166.052C296.018 170.694 289.61 173.22 282.851 173.22ZM282.819 123.581C270.473 123.581 260.223 133.405 259.797 145.838C259.362 158.537 269.34 169.222 282.04 169.657C288.194 169.863 294.061 167.668 298.562 163.461C303.058 159.257 305.651 153.559 305.861 147.415C306.296 134.716 296.317 124.029 283.618 123.594C283.351 123.586 283.084 123.581 282.819 123.581Z" fill="#EBEBEB"/>
<path d="M322.089 88.4715L316.062 86.8536L314.445 80.8283L316.804 78.4688L319.293 83.623L324.447 86.1127L322.089 88.4715Z" fill="#E0E0E0"/>
<path d="M322.462 84.4379C323.56 83.34 323.56 81.5508 322.462 80.453C321.365 79.3551 319.584 79.3635 318.486 80.4614L321.483 75.9648L325.503 77.9968L326.384 82.2212L322.462 84.4379Z" fill="#E0E0E0"/>
<path d="M316.329 78.9442L320.745 74.5283L326.77 76.1462L328.389 82.1723L323.973 86.5882L317.947 84.9695L316.329 78.9442ZM324.347 82.5545C325.445 81.4566 325.445 79.6674 324.347 78.5696C323.249 77.4717 321.468 77.4801 320.37 78.578C319.272 79.6758 319.272 81.4491 320.37 82.5461C321.468 83.644 323.249 83.6524 324.347 82.5545Z" fill="#F0F0F0"/>
<path d="M75.7849 249.235L79.0181 248.366L79.8866 245.133L78.6208 243.867L77.2852 246.633L74.519 247.969L75.7849 249.235Z" fill="#E0E0E0"/>
<path d="M75.584 247.07C74.9952 246.481 74.9952 245.521 75.584 244.932C76.1729 244.343 77.1288 244.347 77.7176 244.936L76.109 242.522L73.9519 243.613L73.479 245.879L75.584 247.07Z" fill="#E0E0E0"/>
<path d="M78.8764 244.123L76.5068 241.753L73.2736 242.622L72.405 245.856L74.7747 248.226L78.0078 247.357L78.8764 244.123ZM74.5731 246.06C73.9842 245.471 73.9842 244.511 74.5731 243.921C75.1619 243.333 76.1178 243.337 76.7067 243.926C77.2955 244.514 77.2955 245.466 76.7067 246.055C76.1187 246.645 75.1628 246.649 74.5731 246.06Z" fill="#F0F0F0"/>
<path d="M64.144 71.9563L66.8278 74.6401C67.5267 75.339 68.67 75.339 69.3688 74.6401C70.0677 73.9412 70.0677 72.798 69.3688 72.0991L66.685 69.4153C65.9862 68.7164 64.8429 68.7164 64.144 69.4153C63.4452 70.1142 63.4452 71.2582 64.144 71.9563Z" fill="#F0F0F0"/>
<path d="M62.2538 65.2724C64.3219 64.5299 66.5639 65.5009 67.2611 67.4422C67.9583 69.3834 66.8469 71.559 64.7789 72.3024C62.7108 73.0449 60.4688 72.0739 59.7716 70.1327C59.0744 68.1914 60.1857 66.0158 62.2538 65.2724Z" fill="#E0E0E0"/>
<path d="M59.329 69.6846L59.718 70.7676L67.7039 67.8994L67.3149 66.8164L59.329 69.6846Z" fill="#F0F0F0"/>
<path d="M210 359.151C299.949 359.151 372.867 354.893 372.867 349.64C372.867 344.387 299.949 340.128 210 340.128C120.051 340.128 47.1331 344.387 47.1331 349.64C47.1331 354.893 120.051 359.151 210 359.151Z" fill="#F5F5F5"/>
<path d="M72.8417 101.343C72.0008 97.6444 72.3763 94.5305 73.969 91.9996C75.5616 89.4703 78.1975 87.7878 81.8759 86.9512C85.6475 86.0935 88.7832 86.4455 91.2839 88.0071C93.7846 89.5678 95.4494 92.1718 96.2785 95.8199C96.8808 98.4684 96.9287 100.741 96.423 102.639C95.9165 104.537 94.9286 106.149 93.4586 107.475C91.9878 108.801 89.9953 109.749 87.4812 110.321C84.9259 110.902 82.7184 110.976 80.8586 110.543C78.9989 110.11 77.3483 109.131 75.9068 107.604C74.4654 106.079 73.4431 103.992 72.8417 101.343ZM79.8506 99.783C80.3706 102.071 81.1694 103.618 82.2472 104.423C83.324 105.23 84.5941 105.466 86.0582 105.133C87.5627 104.792 88.616 104.038 89.2175 102.872C89.8189 101.706 89.8324 99.8544 89.2553 97.3201C88.7706 95.1874 87.986 93.7266 86.9016 92.937C85.8172 92.1491 84.5387 91.9223 83.0653 92.2575C81.6533 92.5783 80.6335 93.336 80.0052 94.5297C79.3769 95.7241 79.3256 97.4747 79.8506 99.783Z" fill="#263238"/>
<path d="M99.6185 98.5717C99.049 96.0685 99.4253 93.8123 100.747 91.8047C102.067 89.7971 104.165 88.4665 107.041 87.8139C110.328 87.0663 113.027 87.4543 115.141 88.9798C116.839 90.2087 117.945 91.9458 118.456 94.192C119.029 96.7179 118.663 98.9758 117.354 100.969C116.046 102.962 113.914 104.295 110.956 104.968C108.318 105.567 106.033 105.383 104.1 104.413C101.724 103.209 100.23 101.262 99.6185 98.5717ZM105.922 97.1236C106.255 98.586 106.796 99.6007 107.549 100.168C108.301 100.734 109.125 100.915 110.021 100.71C110.927 100.504 111.594 99.9897 112.019 99.1665C112.444 98.3441 112.483 97.1698 112.137 95.646C111.814 94.2239 111.279 93.231 110.534 92.6691C109.788 92.1071 108.982 91.924 108.117 92.1214C107.2 92.3297 106.523 92.8555 106.086 93.6972C105.648 94.5381 105.593 95.6805 105.922 97.1236Z" fill="#263238"/>
<path d="M124.811 107.995L119.66 85.3345L125.549 83.9947L126.101 86.4215C126.683 85.2169 127.273 84.3576 127.871 83.8418C128.678 83.1497 129.638 82.6759 130.751 82.4239C132.946 81.9241 134.834 82.3786 136.417 83.7847C137.999 85.1917 139.072 87.1313 139.634 89.6051C140.255 92.3359 140.074 94.5686 139.092 96.3041C138.11 98.0387 136.62 99.134 134.621 99.5885C133.652 99.8086 132.732 99.8447 131.857 99.696C130.984 99.5473 130.159 99.2214 129.383 98.7149L131.164 106.551L124.811 107.995ZM127.843 92.1553C128.138 93.454 128.63 94.3553 129.319 94.8601C130.008 95.365 130.77 95.5212 131.604 95.3322C132.336 95.1659 132.881 94.7249 133.238 94.01C133.595 93.2944 133.61 92.2158 133.283 90.7727C132.98 89.443 132.501 88.5257 131.844 88.02C131.187 87.5126 130.487 87.3446 129.746 87.5126C128.943 87.6958 128.344 88.1628 127.95 88.9121C127.557 89.663 127.521 90.7433 127.843 92.1553Z" fill="#263238"/>
<path d="M142.326 92.651L148.437 90.6434C148.863 91.3263 149.345 91.7757 149.881 91.9908C150.417 92.2041 151.072 92.2235 151.845 92.0479C152.689 91.8555 153.303 91.5271 153.685 91.0609C153.985 90.7115 154.089 90.3368 153.998 89.9345C153.895 89.4817 153.578 89.1852 153.048 89.0466C152.669 88.9491 151.718 88.9382 150.196 89.013C147.925 89.1297 146.328 89.1213 145.403 88.9911C144.479 88.8593 143.639 88.4745 142.881 87.8345C142.123 87.1952 141.632 86.3804 141.408 85.3926C141.162 84.3115 141.265 83.3094 141.715 82.3837C142.166 81.458 142.899 80.6768 143.913 80.0401C144.928 79.4034 146.363 78.8742 148.217 78.4525C150.176 78.0073 151.655 77.8292 152.655 77.9149C153.656 78.0023 154.539 78.2887 155.305 78.7751C156.072 79.2623 156.783 79.9939 157.438 80.9725L151.605 82.9163C151.331 82.4249 150.986 82.0973 150.569 81.9326C149.999 81.7142 149.364 81.6848 148.664 81.8453C147.952 82.0065 147.463 82.2501 147.196 82.5761C146.929 82.902 146.836 83.2455 146.918 83.6059C147.009 84.0074 147.284 84.2636 147.743 84.3753C148.202 84.4887 149.141 84.4686 150.559 84.3199C152.704 84.0822 154.335 84.057 155.452 84.2477C156.568 84.4375 157.485 84.8625 158.204 85.5219C158.922 86.1813 159.389 86.9793 159.602 87.9168C159.817 88.8643 159.741 89.8505 159.373 90.8753C159.004 91.9009 158.265 92.8182 157.153 93.6288C156.043 94.4377 154.426 95.0845 152.303 95.5683C149.304 96.2504 147.071 96.3067 145.604 95.7414C144.138 95.1752 143.045 94.1454 142.326 92.651Z" fill="#263238"/>
<path d="M162.833 71.8756L169.728 71.8369L169.758 77.1314L168.487 87.7751L164.223 87.7986L162.863 77.1701L162.833 71.8756ZM163.17 89.4215L169.606 89.3854L169.638 95.0755L163.203 95.1116L163.17 89.4215Z" fill="#263238"/>
<path d="M108.091 144.128C108.041 144.128 107.99 144.119 107.939 144.1C104.159 142.635 101.896 141.205 100.722 139.486C99.8687 139.658 98.9136 139.544 98.0073 139.113C97.127 138.695 96.2794 137.963 95.6712 136.911C95.1042 137.349 94.4037 137.468 93.6342 137.226C92.7808 136.958 91.8929 136.239 91.1546 135.201C90.685 135.54 90.2037 135.591 89.8509 135.562C87.3536 135.359 83.97 130.387 83.7273 125.09C83.7164 124.859 83.8961 124.661 84.128 124.652C84.3548 124.633 84.5564 124.82 84.5664 125.053C84.7966 130.08 88.018 134.571 89.9198 134.725C90.228 134.755 90.4859 134.659 90.7026 134.491C89.5619 132.489 88.9697 129.635 89.8433 126.585C90.5657 124.061 91.2041 123.074 91.9702 123.257C93.4175 123.617 93.2277 129.113 92.4608 132.739C92.2869 133.561 92.0366 134.151 91.751 134.572C92.4137 135.551 93.1991 136.209 93.8871 136.426C94.502 136.619 94.9572 136.456 95.2932 136.136C94.633 134.509 94.4961 132.293 95.3924 129.467C96.5717 125.746 97.0463 125.646 97.3302 125.586C97.5302 125.543 97.7301 125.61 97.872 125.771C98.6482 126.647 97.7208 132.425 96.7431 135.283C96.6162 135.654 96.4583 135.979 96.2752 136.255C96.7968 137.277 97.5654 137.973 98.3693 138.356C99.0144 138.662 99.6764 138.774 100.279 138.718C100.203 138.559 100.135 138.398 100.074 138.234C99.4076 136.43 99.7335 134.348 101.069 131.868C101.955 130.224 102.678 129.457 103.343 129.456C103.54 129.456 103.911 129.529 104.172 130.012C104.905 131.364 104.374 135.824 102.926 138.037C102.585 138.559 102.114 138.955 101.567 139.212C102.693 140.692 104.83 141.995 108.244 143.319C108.46 143.403 108.568 143.646 108.485 143.862C108.419 144.027 108.259 144.128 108.091 144.128ZM103.342 130.293C103.34 130.293 102.868 130.297 101.807 132.265C100.593 134.52 100.283 136.377 100.861 137.941C100.931 138.132 101.015 138.319 101.113 138.504C101.561 138.311 101.945 137.999 102.222 137.576C103.398 135.778 103.962 132.084 103.524 130.64C103.435 130.345 103.343 130.293 103.342 130.293ZM97.3176 126.754C97.1009 127.162 96.7364 128.001 96.192 129.719C95.4713 131.994 95.4671 133.821 95.8686 135.219C95.8964 135.149 95.9224 135.078 95.9468 135.008C96.9346 132.12 97.4159 128.142 97.3176 126.754ZM91.7854 124.108C91.6434 124.239 91.2352 124.768 90.6497 126.814C89.8778 129.513 90.3532 131.975 91.2604 133.741C91.4343 133.376 91.5552 132.956 91.6384 132.563C92.5095 128.438 92.2558 124.706 91.7854 124.108Z" fill="#263238"/>
<path d="M140.026 188.157C138.745 188.157 137.398 187.865 136.195 187.158C135.995 187.04 135.928 186.784 136.046 186.583C136.162 186.382 136.42 186.318 136.62 186.433C139.617 188.193 143.49 186.964 144.287 185.683C144.379 185.532 144.464 185.342 144.41 185.119C143.225 185.244 141.767 184.93 140.1 183.888C137.963 182.551 137.798 182.154 137.811 181.836C137.82 181.648 137.926 181.484 138.098 181.397C138.934 180.973 142.722 182.719 144.301 183.757C144.508 183.893 144.683 184.04 144.824 184.196C145.522 184.026 146.063 183.665 146.422 183.234C146.669 182.937 146.834 182.615 146.915 182.292C146.86 182.3 146.804 182.307 146.747 182.312C145.404 182.447 144.057 181.871 142.622 180.544C141.636 179.633 141.253 179.005 141.381 178.506C141.421 178.348 141.554 178.065 141.985 177.958C143.146 177.669 146.014 178.891 147.187 180.177C147.45 180.466 147.63 180.806 147.726 181.172C148.822 180.657 149.981 179.502 151.354 177.584C151.489 177.395 151.751 177.352 151.94 177.488C152.129 177.622 152.172 177.885 152.038 178.073C150.451 180.291 149.128 181.547 147.799 182.06C147.747 182.651 147.502 183.252 147.069 183.773C146.643 184.283 146.022 184.722 145.237 184.959C145.321 185.337 145.245 185.736 145.002 186.128C144.292 187.268 142.261 188.157 140.026 188.157ZM139.281 182.331C139.563 182.539 139.968 182.815 140.546 183.177C141.685 183.89 142.701 184.218 143.57 184.287C142.178 183.425 140.357 182.661 139.281 182.331ZM142.212 178.763C142.259 178.894 142.446 179.239 143.192 179.929C144.44 181.083 145.576 181.596 146.662 181.478C146.751 181.468 146.841 181.456 146.93 181.437C146.871 181.182 146.749 180.946 146.566 180.744C145.384 179.448 142.786 178.627 142.212 178.763Z" fill="#263238"/>
<path d="M151.151 187.004L138.062 189.382L126.179 124.523L100.925 129.111L59.7744 202.19L64.1928 226.305L116.976 216.717L120.59 236.441L145.843 231.854L142.23 212.13L155.319 209.752L151.151 187.004ZM84.919 199.036L106.725 160.759L112.809 193.97L84.919 199.036Z" fill="#407BFF"/>
<path d="M256.561 120.113C256.072 115.633 255.178 111.652 253.876 108.17C252.575 104.688 250.617 101.276 248.004 97.9315C245.392 94.5874 241.834 91.6844 237.333 89.224C232.83 86.7645 226.888 85.0518 219.506 84.09C204.14 82.0882 192.163 84.8166 183.569 92.2716C174.974 99.7282 169.32 114.012 166.602 135.121C165.497 143.706 165.223 151.643 165.782 158.931C166.339 166.218 167.676 172.079 169.795 176.514C172.694 182.746 176.797 187.723 182.1 191.443C187.403 195.163 194.668 197.625 203.898 198.827C220.36 200.972 232.558 197.813 240.496 189.346C248.433 180.881 253.699 166.572 256.292 146.421C257.451 137.431 257.54 128.662 256.561 120.113Z" fill="#407BFF"/>
<path d="M211.483 190.204C209.463 190.135 207.314 189.952 205.094 189.663C197.404 188.661 191.454 186.715 187.409 183.877C183.417 181.078 180.398 177.395 178.176 172.616L178.135 172.529C176.519 169.15 175.464 164.337 174.997 158.226C174.489 151.6 174.749 144.224 175.768 136.3C178.766 113.014 184.959 103.299 189.626 99.2501C195.067 94.5293 202.411 92.3957 212.079 92.7267C214.06 92.7947 216.157 92.9719 218.313 93.2525C224.517 94.0606 229.426 95.4331 232.903 97.3324C236.271 99.1728 238.903 101.289 240.724 103.62C242.743 106.204 244.256 108.824 245.221 111.406C246.249 114.153 246.973 117.419 247.377 121.114C248.271 128.934 248.186 137.035 247.131 145.241C244.801 163.334 240.302 176.046 233.758 183.025C228.903 188.204 221.618 190.552 211.486 190.204C211.484 190.204 211.483 190.204 211.483 190.204Z" fill="#263238"/>
<path d="M227.922 120.361L228.031 117.179L226.078 116.541C225.998 115.454 225.816 114.38 225.558 113.345L227.213 112.125L226.088 109.136L224.041 109.301C223.552 108.335 222.979 107.415 222.336 106.552L223.397 104.782L221.216 102.455L219.384 103.392C218.56 102.692 217.69 102.057 216.759 101.496L217.056 99.4627L214.151 98.1439L212.821 99.7038C211.807 99.3745 210.756 99.1284 209.669 98.9654L209.174 96.973L205.984 96.8638L205.354 98.8176C204.258 98.9058 203.193 99.0797 202.159 99.3384L200.93 97.6912L197.941 98.8075L198.106 100.855C197.14 101.352 196.221 101.925 195.358 102.568L193.596 101.508L191.26 103.68L192.198 105.519C191.497 106.336 190.862 107.213 190.309 108.144L188.277 107.839L186.95 110.744L188.519 112.075C188.189 113.09 187.935 114.148 187.78 115.227L185.779 115.729L185.67 118.911L187.632 119.55C187.711 120.646 187.894 121.711 188.152 122.745L186.497 123.966L187.621 126.954L189.669 126.789C190.157 127.755 190.731 128.675 191.374 129.537L190.313 131.308L192.494 133.636L194.325 132.698C195.141 133.399 196.019 134.034 196.949 134.596L196.644 136.628L199.549 137.946L200.888 136.387C201.902 136.716 202.953 136.962 204.04 137.125L204.535 139.117L207.725 139.227L208.355 137.273C209.451 137.185 210.516 137.011 211.55 136.752L212.771 138.399L215.76 137.283L215.603 135.235C216.57 134.739 217.48 134.165 218.351 133.521L220.114 134.582L222.449 132.409L221.511 130.57C222.212 129.754 222.847 128.876 223.4 127.945L225.432 128.25L226.758 125.346L225.19 124.014C225.519 123 225.773 121.95 225.928 120.863L227.922 120.361ZM206.422 130.669C199.455 130.43 193.998 124.586 194.236 117.618C194.476 110.642 200.319 105.186 207.287 105.425C214.255 105.664 219.711 111.507 219.472 118.483C219.234 125.451 213.39 130.907 206.422 130.669Z" fill="#407BFF"/>
<path opacity="0.3" d="M241.183 178.806L241.414 176.662L240.124 176.136C240.12 175.399 240.056 174.669 239.934 173.957L241.11 173.21L240.512 171.136L239.116 171.146C238.835 170.469 238.503 169.818 238.112 169.205L238.908 168.063L237.56 166.385L236.274 166.92C235.76 166.411 235.206 165.94 234.601 165.517L234.914 164.151L233.023 163.114L232.035 164.111C231.357 163.823 230.657 163.612 229.954 163.45L229.717 162.076L227.572 161.836L227.046 163.125C226.309 163.13 225.589 163.203 224.867 163.326L224.121 162.14L222.046 162.747L222.057 164.143C221.388 164.426 220.738 164.757 220.115 165.149L218.973 164.342L217.296 165.691L217.831 166.977C217.332 167.491 216.851 168.044 216.427 168.649L215.07 168.347L214.033 170.238L215.022 171.215C214.743 171.904 214.523 172.595 214.361 173.306L212.986 173.534L212.755 175.678L214.044 176.214C214.039 176.942 214.112 177.672 214.235 178.384L213.05 179.13L213.658 181.205L215.054 181.204C215.336 181.872 215.667 182.523 216.059 183.136L215.254 184.278L216.602 185.966L217.899 185.421C218.412 185.93 218.966 186.401 219.571 186.825L219.259 188.191L221.15 189.229L222.136 188.24C222.815 188.519 223.516 188.73 224.218 188.891L224.456 190.266L226.6 190.506L227.126 189.217C227.854 189.212 228.583 189.139 229.305 189.017L230.051 190.202L232.117 189.595L232.116 188.199C232.784 187.916 233.434 187.585 234.057 187.194L235.189 187.999L236.877 186.652L236.331 185.365C236.84 184.852 237.311 184.298 237.745 183.694L239.1 183.995L240.138 182.104L239.149 181.127C239.428 180.439 239.639 179.747 239.8 179.045L241.183 178.806ZM230.369 177.974C229.373 179.788 227.089 180.457 225.276 179.461C223.462 178.465 222.803 176.181 223.799 174.368C224.795 172.554 227.068 171.895 228.883 172.89C230.696 173.887 231.365 176.16 230.369 177.974Z" fill="#407BFF"/>
<path d="M253.084 142.505L250.58 140.776C250.579 140.774 250.579 140.772 250.578 140.77C250.331 139.86 249.989 138.985 249.571 138.162L250.213 135.644L246.581 131.754L244.025 132.222C243.233 131.749 242.383 131.349 241.494 131.04C241.492 131.039 241.49 131.039 241.487 131.038L239.933 128.421L234.615 128.239L232.885 130.743C232.882 130.744 232.879 130.744 232.875 130.745C231.967 130.993 231.092 131.334 230.27 131.751L227.753 131.109L223.864 134.741L224.331 137.293C224.33 137.294 224.33 137.295 224.329 137.296C223.847 138.096 223.456 138.946 223.147 139.837L220.53 141.391L220.348 146.709L222.853 148.439C223.1 149.355 223.432 150.228 223.857 151.058C223.857 151.059 223.857 151.059 223.857 151.059L223.218 153.569L226.849 157.458L229.39 156.994C230.192 157.467 231.043 157.869 231.944 158.178C231.945 158.179 231.946 158.179 231.946 158.179L233.498 160.792L238.816 160.974L240.544 158.472C241.463 158.225 242.339 157.883 243.171 157.465C243.171 157.465 243.172 157.465 243.172 157.464L245.677 158.102L249.566 154.471L249.099 151.919C249.581 151.119 249.973 150.268 250.282 149.378L252.899 147.823L253.084 142.505ZM236.51 150.59C233.204 150.477 230.622 147.702 230.734 144.405C230.848 141.099 233.614 138.517 236.919 138.63C240.225 138.743 242.808 141.509 242.695 144.814C242.582 148.111 239.815 150.704 236.51 150.59Z" fill="white"/>
<path d="M271.356 100.064L271.794 99.0083C271.795 99.0083 271.796 99.0075 271.796 99.0075C272.111 98.8454 272.405 98.6505 272.675 98.4321L273.65 98.4691L274.793 96.8294L274.42 95.9272C274.531 95.5996 274.611 95.2561 274.654 94.9049C274.654 94.9041 274.654 94.9032 274.654 94.9024L275.492 94.1254L275.141 92.1581L274.085 91.7205C274.084 91.7197 274.084 91.718 274.083 91.7171C273.921 91.403 273.727 91.109 273.508 90.8393L273.545 89.8649L271.906 88.7225L271.005 89.0947H271.004C270.673 88.9804 270.33 88.904 269.979 88.8603L269.202 88.022L267.234 88.3739L266.796 89.4306C266.479 89.5936 266.184 89.7843 265.913 90.0061L264.941 89.9691L263.8 91.6088L264.17 92.5051C264.059 92.8369 263.979 93.1804 263.937 93.5357L263.099 94.3119L263.451 96.2792L264.506 96.7168C264.669 97.0352 264.864 97.33 265.083 97.6022L265.046 98.5724L266.686 99.7148L267.586 99.3418C267.918 99.4561 268.262 99.5325 268.613 99.5762L269.39 100.415L271.356 100.064ZM267.082 94.6151C266.863 93.3921 267.679 92.2253 268.898 92.0069C270.121 91.7885 271.287 92.6 271.506 93.823C271.725 95.0461 270.912 96.212 269.69 96.4312C268.471 96.6496 267.301 95.8382 267.082 94.6151Z" fill="#407BFF"/>
<path d="M248.31 94.4908L247.668 93.949C248.784 92.6285 250.365 90.9552 252.715 89.7246L253.105 90.4697C250.6 91.7809 248.995 93.6802 248.31 94.4908Z" fill="#407BFF"/>
<path d="M255.017 89.7133L254.685 88.9405C257.863 87.5797 261.182 87.0489 264.546 87.3613L264.468 88.198C261.242 87.8905 258.064 88.4063 255.017 89.7133Z" fill="#407BFF"/>
<path d="M253.431 95.5252L252.737 95.0523C254.462 92.518 257.872 90.3113 261.028 89.6855L261.191 90.5087C258.233 91.0967 255.042 93.159 253.431 95.5252Z" fill="#407BFF"/>
<path d="M197.689 176.364C197.576 176.364 197.467 176.318 197.387 176.236L195.626 174.421C194.728 174.336 193.841 174.171 192.983 173.929L190.238 175.139C190.108 175.199 189.956 175.183 189.836 175.105L185.237 172.056C185.118 171.976 185.047 171.843 185.049 171.699L185.095 168.706C184.536 168.011 184.038 167.256 183.611 166.458L181.255 165.544C181.121 165.492 181.024 165.376 180.994 165.236L179.898 159.828C179.87 159.688 179.915 159.543 180.018 159.443L181.833 157.682C181.917 156.789 182.081 155.901 182.323 155.037L181.115 152.295C181.057 152.164 181.07 152.013 181.148 151.893L184.197 147.293C184.276 147.174 184.388 147.1 184.554 147.105L187.545 147.151C188.247 146.59 189.003 146.092 189.795 145.668L190.709 143.311C190.761 143.177 190.877 143.08 191.017 143.05L196.425 141.953C196.566 141.926 196.711 141.97 196.81 142.072L198.569 143.886C199.463 143.97 200.351 144.135 201.217 144.377L203.958 143.169C204.089 143.111 204.24 143.124 204.36 143.203L208.959 146.251C209.078 146.331 209.149 146.465 209.147 146.608L209.102 149.603C209.661 150.299 210.158 151.054 210.583 151.85L212.941 152.765C213.075 152.817 213.172 152.932 213.202 153.072L214.298 158.48C214.327 158.62 214.281 158.766 214.179 158.866L212.363 160.627C212.279 161.51 212.115 162.396 211.871 163.267L213.082 166.013C213.14 166.144 213.126 166.296 213.048 166.416L210.001 171.016C209.922 171.136 209.796 171.195 209.644 171.204L206.651 171.159C205.954 171.715 205.199 172.212 204.404 172.637L203.488 175C203.437 175.133 203.32 175.231 203.18 175.26L197.772 176.357C197.744 176.361 197.716 176.364 197.689 176.364ZM192.954 173.062C192.993 173.062 193.033 173.068 193.072 173.08C193.972 173.344 194.907 173.519 195.853 173.598C195.955 173.606 196.049 173.65 196.12 173.724L197.83 175.487L202.787 174.481L203.678 172.186C203.715 172.091 203.785 172.012 203.875 171.965C204.718 171.526 205.513 171.004 206.24 170.411C206.316 170.348 206.403 170.306 206.511 170.317L209.427 170.361L212.221 166.144L211.042 163.47C211.003 163.38 210.996 163.277 211.024 163.182C211.289 162.266 211.463 161.33 211.541 160.401C211.549 160.3 211.594 160.205 211.667 160.134L213.43 158.424L212.426 153.467L210.135 152.578C210.037 152.54 209.958 152.468 209.911 152.375C209.474 151.535 208.951 150.743 208.356 150.018C208.293 149.941 208.258 149.844 208.26 149.745L208.305 146.827L204.088 144.032L201.42 145.208C201.329 145.248 201.228 145.254 201.133 145.227C200.223 144.963 199.284 144.788 198.342 144.71C198.241 144.702 198.146 144.656 198.076 144.585L196.368 142.823L191.41 143.829L190.523 146.119C190.486 146.214 190.415 146.293 190.324 146.34C189.488 146.776 188.691 147.301 187.959 147.898C187.882 147.96 187.78 148.004 187.686 147.994L184.771 147.948L181.976 152.165L183.154 154.835C183.205 154.95 183.201 155.081 183.146 155.193C182.909 156.032 182.735 156.969 182.656 157.909C182.648 158.01 182.603 158.104 182.53 158.175L180.768 159.885L181.772 164.841L184.062 165.729C184.165 165.769 184.247 165.847 184.291 165.945C184.727 166.778 185.249 167.57 185.84 168.29C185.903 168.367 185.939 168.465 185.937 168.564L185.893 171.481L190.109 174.276L192.784 173.097C192.838 173.075 192.896 173.062 192.954 173.062ZM197.085 170.345C194.961 170.345 192.816 169.744 190.917 168.485C188.425 166.834 186.725 164.311 186.129 161.381C185.534 158.452 186.116 155.465 187.767 152.973H187.768C191.183 147.828 198.144 146.415 203.286 149.823C208.428 153.236 209.839 160.197 206.431 165.341C204.279 168.586 200.714 170.345 197.085 170.345ZM188.468 153.438C186.941 155.742 186.402 158.504 186.953 161.214C187.504 163.924 189.076 166.258 191.381 167.785C196.141 170.938 202.577 169.634 205.729 164.877C208.882 160.119 207.578 153.679 202.821 150.524C198.065 147.371 191.626 148.678 188.468 153.438Z" fill="white"/>
<path d="M357.694 194.586L344.51 192.807L353.229 127.448L327.793 124.016L266.093 180.821L262.851 205.122L316.017 212.297L313.366 232.173L338.802 235.605L341.453 215.729L354.636 217.508L357.694 194.586ZM290.983 185.583L323.54 155.907L319.075 189.374L290.983 185.583Z" fill="#407BFF"/>
<path d="M331.073 234.983C331.047 234.983 331.022 234.98 330.997 234.976C330.769 234.934 330.617 234.715 330.659 234.487L350.253 127.026C350.294 126.799 350.515 126.656 350.741 126.688C350.97 126.73 351.121 126.949 351.079 127.177L331.485 234.638C331.448 234.841 331.272 234.983 331.073 234.983Z" fill="#263238"/>
<path d="M348.459 128.831C348.445 129.211 348.127 129.508 347.747 129.495C347.367 129.482 347.07 129.164 347.083 128.784C347.095 128.404 347.414 128.107 347.794 128.12C348.175 128.132 348.472 128.45 348.459 128.831Z" fill="#263238"/>
<path d="M345.66 143.364C345.646 143.743 345.328 144.041 344.948 144.028C344.568 144.016 344.271 143.696 344.284 143.317C344.296 142.937 344.615 142.64 344.995 142.652C345.375 142.665 345.672 142.983 345.66 143.364Z" fill="#263238"/>
<path d="M342.86 157.896C342.847 158.276 342.528 158.573 342.149 158.56C341.769 158.548 341.472 158.229 341.484 157.849C341.497 157.469 341.816 157.172 342.196 157.184C342.576 157.198 342.874 157.516 342.86 157.896Z" fill="#263238"/>
<path d="M337.355 173.025C337.342 173.405 337.023 173.702 336.644 173.689C336.264 173.676 335.967 173.357 335.979 172.978C335.992 172.598 336.311 172.301 336.691 172.313C337.071 172.326 337.369 172.644 337.355 173.025Z" fill="#263238"/>
<path d="M337.261 186.961C337.248 187.341 336.929 187.638 336.55 187.626C336.17 187.612 335.873 187.294 335.885 186.914C335.898 186.535 336.217 186.237 336.597 186.25C336.977 186.262 337.275 186.582 337.261 186.961Z" fill="#263238"/>
<path d="M334.462 201.495C334.449 201.874 334.13 202.172 333.751 202.159C333.371 202.146 333.074 201.827 333.086 201.448C333.099 201.068 333.418 200.771 333.798 200.783C334.177 200.796 334.475 201.114 334.462 201.495Z" fill="#263238"/>
<path d="M331.663 216.028C331.649 216.407 331.331 216.705 330.951 216.692C330.572 216.679 330.274 216.36 330.287 215.981C330.3 215.601 330.619 215.304 330.998 215.316C331.379 215.329 331.676 215.647 331.663 216.028Z" fill="#263238"/>
<path d="M328.864 230.56C328.85 230.939 328.532 231.237 328.152 231.224C327.773 231.211 327.475 230.892 327.488 230.512C327.501 230.133 327.82 229.835 328.199 229.848C328.579 229.861 328.876 230.18 328.864 230.56Z" fill="#263238"/>
<path d="M336.667 173.422C336.474 173.422 336.299 173.287 336.257 173.089C336.209 172.862 336.353 172.64 336.58 172.59L338.666 172.142C338.897 172.097 339.117 172.237 339.165 172.466C339.214 172.692 339.07 172.915 338.843 172.965L336.756 173.412C336.726 173.418 336.697 173.422 336.667 173.422Z" fill="#263238"/>
<path d="M343.632 165.683C343.632 165.683 341.752 170.579 341.119 173.546C340.487 176.513 340.448 183.142 340.448 183.142" fill="#263238"/>
<path d="M340.448 183.562H340.446C340.214 183.56 340.026 183.371 340.028 183.14C340.03 182.867 340.073 176.433 340.708 173.458C341.341 170.493 343.162 165.734 343.239 165.531C343.323 165.316 343.564 165.208 343.782 165.29C343.999 165.374 344.107 165.617 344.024 165.833C344.005 165.883 342.149 170.734 341.53 173.633C340.913 176.525 340.869 183.079 340.868 183.145C340.866 183.376 340.679 183.562 340.448 183.562Z" fill="#263238"/>
<path d="M186.86 256.066C188.027 237.248 185.881 203.04 221.253 207.568C259.166 212.422 248.32 256.755 248.32 256.755L186.86 256.066Z" fill="#263238"/>
<path d="M211.272 244.755C219.796 244.755 226.707 237.845 226.707 229.32C226.707 220.796 219.796 213.885 211.272 213.885C202.747 213.885 195.837 220.796 195.837 229.32C195.837 237.845 202.747 244.755 211.272 244.755Z" fill="white"/>
<path d="M213.298 213.909C205.987 212.661 198.17 218.051 197.4 223.511L226.386 226.176C225.364 219.952 219.099 214.9 213.298 213.909Z" fill="#263238"/>
<path d="M223.084 228.936C222.876 232.972 220.677 236.138 218.171 236.01C215.666 235.881 213.802 232.505 214.009 228.47C214.217 224.435 216.416 221.268 218.921 221.396C221.427 221.525 223.291 224.901 223.084 228.936Z" fill="#263238"/>
<path d="M211.272 245.595C202.297 245.595 194.996 238.294 194.996 229.32C194.996 220.345 202.297 213.045 211.272 213.045C220.246 213.045 227.547 220.345 227.547 229.32C227.547 238.294 220.245 245.595 211.272 245.595ZM211.272 214.725C203.224 214.725 196.676 221.272 196.676 229.32C196.676 237.368 203.223 243.915 211.272 243.915C219.32 243.915 225.867 237.368 225.867 229.32C225.867 221.272 219.319 214.725 211.272 214.725Z" fill="#407BFF"/>
<path opacity="0.3" d="M244.008 255.593C243.975 255.593 243.942 255.588 243.909 255.581C243.684 255.526 243.544 255.299 243.599 255.074C243.626 254.96 246.303 243.571 243.523 232.055C243.469 231.83 243.607 231.603 243.833 231.548C244.056 231.497 244.285 231.632 244.34 231.858C247.169 243.576 244.444 255.154 244.415 255.27C244.369 255.464 244.198 255.593 244.008 255.593Z" fill="white"/>
<path opacity="0.3" d="M241.667 225.758C241.507 225.758 241.355 225.667 241.284 225.513C240.204 223.156 238.864 220.992 237.301 219.081C237.154 218.901 237.181 218.637 237.361 218.49C237.54 218.343 237.804 218.369 237.952 218.549C239.56 220.516 240.938 222.741 242.048 225.163C242.145 225.374 242.052 225.624 241.841 225.719C241.784 225.745 241.725 225.758 241.667 225.758Z" fill="white"/>
<path d="M108.138 344.331C108.034 344.331 107.929 344.331 107.825 344.327C105.507 344.263 103.679 342.332 103.742 340.013C103.805 337.695 105.715 335.901 108.055 335.931C108.081 335.931 108.108 335.931 108.136 335.931C110.563 335.931 116.401 332.983 128.614 313.73C129.27 312.697 130.345 312 131.556 311.823C132.77 311.651 133.996 312.011 134.92 312.815C149.991 325.955 165.962 334.134 166.121 334.215C168.189 335.265 169.014 337.794 167.964 339.861C166.914 341.929 164.388 342.756 162.32 341.706C161.686 341.384 147.726 334.246 133.09 322.263C122.854 337.651 115.258 344.331 108.138 344.331Z" fill="#263238"/>
<path d="M134.123 312.06C134.003 312.06 133.884 312.052 133.763 312.035C132.386 311.838 131.428 310.562 131.625 309.183C132.223 305.003 131.483 289.337 126.186 277.157C125.703 276.048 126.078 274.752 127.078 274.07C138.585 266.228 163.094 265.291 164.132 265.255C165.516 265.224 166.689 266.294 166.738 267.686C166.787 269.076 165.698 270.243 164.308 270.291C164.081 270.3 142.653 271.121 131.642 277.181C136.333 289.309 137.396 304.428 136.614 309.896C136.434 311.154 135.357 312.06 134.123 312.06Z" fill="#263238"/>
<path d="M138.357 308.798C136.681 304.844 129.127 305.294 124.691 308.682C122.321 310.492 119.113 315.94 118.775 317.914C118.438 319.889 119.806 321.677 122.155 321.474C125.051 321.224 129.027 317.014 129.027 317.014C126.381 319.608 129.794 321.439 134.887 317.687C137.713 315.607 140.233 313.224 138.357 308.798Z" fill="#407BFF"/>
<path d="M282.833 257.176C282.796 257.176 282.756 257.171 282.718 257.159C282.495 257.095 282.366 256.861 282.43 256.64C283.549 252.742 284.771 250.361 286.378 249.037C286.132 248.2 286.16 247.239 286.507 246.299C286.844 245.385 287.497 244.476 288.491 243.775C288.004 243.249 287.823 242.561 287.995 241.774C288.186 240.9 288.822 239.951 289.789 239.123C289.409 238.686 289.316 238.209 289.313 237.856C289.292 235.352 293.939 231.535 299.193 230.818C299.423 230.775 299.635 230.947 299.666 231.178C299.697 231.407 299.537 231.619 299.307 231.651C294.319 232.332 290.136 235.942 290.153 237.85C290.156 238.159 290.27 238.408 290.457 238.608C292.348 237.292 295.139 236.445 298.254 237.043C300.832 237.536 301.88 238.081 301.759 238.864C301.531 240.336 296.04 240.64 292.36 240.203C291.526 240.103 290.915 239.906 290.47 239.66C289.555 240.408 288.969 241.248 288.816 241.953C288.679 242.582 288.882 243.021 289.232 243.327C290.791 242.524 292.986 242.188 295.881 242.828C299.692 243.668 299.834 244.133 299.92 244.409C299.98 244.607 299.932 244.81 299.785 244.965C298.982 245.816 293.144 245.412 290.21 244.694C289.828 244.601 289.491 244.473 289.2 244.315C288.228 244.928 287.603 245.754 287.295 246.59C287.048 247.26 286.991 247.928 287.105 248.524C287.256 248.435 287.411 248.352 287.569 248.277C289.306 247.452 291.408 247.59 293.998 248.698C295.716 249.433 296.544 250.084 296.604 250.746C296.623 250.942 296.584 251.317 296.126 251.622C294.845 252.472 290.355 252.343 288.021 251.101C287.471 250.807 287.035 250.374 286.729 249.853C285.356 251.107 284.249 253.352 283.238 256.871C283.184 257.056 283.016 257.176 282.833 257.176ZM287.39 249.338C287.622 249.768 287.968 250.122 288.414 250.36C290.31 251.369 294.039 251.6 295.438 251.035C295.724 250.919 295.767 250.823 295.767 250.823C295.767 250.82 295.721 250.35 293.666 249.471C291.312 248.464 289.434 248.323 287.928 249.036C287.745 249.123 287.565 249.223 287.39 249.338ZM290.191 243.82C290.263 243.841 290.336 243.862 290.408 243.879C293.374 244.605 297.378 244.729 298.751 244.503C298.326 244.324 297.458 244.036 295.698 243.648C293.369 243.135 291.548 243.295 290.191 243.82ZM291.251 239.098C291.63 239.239 292.058 239.322 292.458 239.369C296.644 239.865 300.339 239.279 300.892 238.758C300.749 238.628 300.185 238.269 298.095 237.869C295.338 237.344 292.929 238.035 291.251 239.098Z" fill="#263238"/>
<path d="M173.482 342.928C174.036 342.751 173.85 342.217 173.233 342.217H161.86C140.204 339.924 125.073 342.997 134.608 343.722C144.142 344.447 133.937 344.295 126.974 346.928C120.011 349.563 178.763 350.226 184.107 346.928C189.034 343.887 165.809 345.388 173.482 342.928Z" fill="#263238"/>
<path d="M254.914 346.279L155.961 342.999L151.854 247.053L268.707 249.666L254.914 346.279Z" fill="#407BFF"/>
<path d="M186.86 344.444C186.643 344.444 186.459 344.279 186.441 344.059L178.509 247.693C178.49 247.462 178.662 247.259 178.894 247.241C179.132 247.227 179.328 247.393 179.347 247.624L187.279 343.99C187.297 344.221 187.126 344.424 186.894 344.443C186.882 344.444 186.871 344.444 186.86 344.444Z" fill="#263238"/>
<path d="M254.914 346.28L281.51 342.231L289.887 253.015L268.707 249.667L254.914 346.28Z" fill="#407BFF"/>
<path opacity="0.2" d="M254.914 346.28L281.51 342.231L289.887 253.015L268.707 249.667L254.914 346.28Z" fill="black"/>
<path d="M164.417 324.506L161.978 267.503C161.723 261.552 166.551 256.625 172.505 256.759L246.474 258.413C252.651 258.551 257.319 264.056 256.446 270.173L248.245 327.621C247.501 332.828 242.957 336.64 237.701 336.465L174.373 334.366C168.987 334.187 164.648 329.889 164.417 324.506Z" fill="#263238"/>
<path d="M172.408 274.25L183.852 274.615L183.758 277.566L176.593 277.338L176.524 279.535L183.17 279.747L183.08 282.565L176.434 282.353L176.347 285.077L183.719 285.312L183.62 288.441L171.968 288.071L172.408 274.25Z" fill="white"/>
<path d="M185.976 288.516L186.415 274.696L193.532 274.923C194.852 274.965 195.858 275.11 196.547 275.359C197.238 275.608 197.786 276.044 198.194 276.671C198.603 277.298 198.793 278.05 198.764 278.931C198.74 279.698 198.555 280.354 198.21 280.9C197.866 281.446 197.402 281.882 196.819 282.209C196.447 282.418 195.942 282.584 195.302 282.708C195.805 282.895 196.17 283.076 196.397 283.253C196.55 283.371 196.77 283.62 197.056 284.001C197.343 284.381 197.533 284.674 197.627 284.879L199.568 288.949L194.743 288.796L192.595 284.5C192.323 283.945 192.077 283.581 191.856 283.41C191.554 283.187 191.209 283.069 190.819 283.056L190.442 283.044L190.264 288.654L185.976 288.516ZM190.527 280.433L192.327 280.49C192.522 280.496 192.901 280.445 193.464 280.338C193.749 280.29 193.984 280.153 194.171 279.926C194.357 279.699 194.456 279.435 194.465 279.133C194.479 278.687 194.349 278.34 194.073 278.092C193.798 277.845 193.271 277.709 192.492 277.683L190.616 277.624L190.527 280.433Z" fill="white"/>
<path d="M200.993 288.994L201.432 275.174L208.549 275.401C209.869 275.443 210.874 275.588 211.564 275.837C212.255 276.086 212.803 276.523 213.211 277.149C213.62 277.776 213.809 278.529 213.781 279.409C213.756 280.176 213.572 280.832 213.227 281.378C212.882 281.924 212.418 282.361 211.835 282.687C211.464 282.896 210.958 283.062 210.318 283.186C210.822 283.373 211.187 283.554 211.414 283.731C211.567 283.849 211.787 284.098 212.074 284.479C212.36 284.86 212.551 285.152 212.645 285.357L214.586 289.427L209.76 289.274L207.612 284.978C207.341 284.423 207.094 284.059 206.873 283.888C206.571 283.665 206.226 283.547 205.836 283.534L205.459 283.522L205.281 289.131L200.993 288.994ZM205.544 280.911L207.344 280.968C207.539 280.974 207.918 280.923 208.481 280.815C208.766 280.767 209.001 280.63 209.188 280.403C209.374 280.176 209.472 279.912 209.482 279.61C209.496 279.164 209.366 278.817 209.09 278.57C208.815 278.322 208.287 278.186 207.509 278.161L205.633 278.101L205.544 280.911Z" fill="white"/>
<path d="M215.306 282.542C215.378 280.286 216.062 278.549 217.359 277.332C218.656 276.116 220.425 275.543 222.669 275.614C224.969 275.687 226.722 276.361 227.927 277.635C229.132 278.91 229.699 280.659 229.628 282.885C229.577 284.5 229.263 285.816 228.687 286.833C228.11 287.849 227.299 288.628 226.253 289.171C225.208 289.714 223.918 289.96 222.384 289.911C220.826 289.862 219.544 289.573 218.539 289.043C217.533 288.514 216.73 287.703 216.13 286.607C215.529 285.512 215.254 284.157 215.306 282.542ZM219.575 282.696C219.531 284.092 219.758 285.102 220.257 285.728C220.756 286.354 221.452 286.681 222.345 286.71C223.262 286.739 223.982 286.463 224.504 285.882C225.025 285.301 225.311 284.238 225.36 282.691C225.402 281.391 225.17 280.432 224.664 279.815C224.158 279.198 223.456 278.875 222.557 278.847C221.696 278.819 220.995 279.102 220.454 279.695C219.913 280.288 219.62 281.289 219.575 282.696Z" fill="white"/>
<path d="M231.762 289.973L232.201 276.153L239.318 276.38C240.638 276.422 241.643 276.567 242.333 276.816C243.024 277.064 243.572 277.501 243.98 278.128C244.389 278.754 244.578 279.508 244.55 280.387C244.526 281.154 244.341 281.81 243.996 282.356C243.652 282.902 243.187 283.339 242.604 283.666C242.232 283.874 241.727 284.04 241.087 284.165C241.591 284.351 241.956 284.533 242.183 284.709C242.336 284.828 242.556 285.077 242.842 285.458C243.129 285.838 243.319 286.13 243.413 286.335L245.354 290.406L240.529 290.252L238.381 285.956C238.109 285.401 237.863 285.038 237.642 284.867C237.34 284.644 236.995 284.525 236.605 284.513L236.228 284.501L236.05 290.109L231.762 289.973ZM236.313 281.889L238.113 281.946C238.308 281.952 238.687 281.902 239.25 281.793C239.535 281.746 239.77 281.609 239.957 281.382C240.143 281.155 240.242 280.89 240.251 280.589C240.265 280.143 240.135 279.796 239.859 279.548C239.584 279.3 239.057 279.164 238.278 279.139L236.402 279.079L236.313 281.889Z" fill="white"/>
<path d="M238.559 313.453C238.26 313.453 237.963 313.332 237.744 313.094L230.553 305.224L222.794 312.313C222.345 312.725 221.648 312.692 221.237 312.243L214.046 304.373L206.286 311.462C205.837 311.873 205.139 311.841 204.729 311.392L197.538 303.522L189.779 310.612C189.564 310.809 189.273 310.913 188.986 310.9C188.693 310.887 188.419 310.758 188.221 310.542L181.03 302.672L173.271 309.761C172.822 310.172 172.124 310.139 171.714 309.691C171.303 309.242 171.335 308.544 171.784 308.133L180.356 300.3C180.806 299.888 181.503 299.921 181.915 300.37L189.106 308.24L196.865 301.15C197.08 300.953 197.37 300.85 197.658 300.862C197.95 300.876 198.225 301.004 198.422 301.22L205.614 309.09L213.373 302.001C213.821 301.59 214.519 301.622 214.93 302.071L222.121 309.941L229.88 302.852C230.33 302.44 231.027 302.472 231.439 302.922L239.373 311.606C239.784 312.055 239.752 312.753 239.303 313.164C239.091 313.358 238.825 313.453 238.559 313.453Z" fill="white"/>
<path d="M105.63 348.321L100.373 345.813L95.6836 322.993L98.2288 320.19L105.63 348.321Z" fill="#407BFF"/>
<path d="M105.63 348.321L112.606 344.245L106.625 325.443L98.2285 320.19L105.63 348.321Z" fill="#407BFF"/>
<path opacity="0.2" d="M105.63 348.321L112.606 344.245L106.625 325.443L98.2285 320.19L105.63 348.321Z" fill="black"/>
<path d="M220.038 352.468C219.839 352.468 219.645 352.465 219.457 352.46C217.139 352.396 215.31 350.465 215.374 348.146C215.438 345.828 217.353 344.005 219.687 344.063C226.158 344.275 239.852 340.3 247.675 332.705C248.159 332.236 248.748 331.89 249.394 331.697C262.656 327.717 267.592 335.757 267.796 336.102L260.566 340.377C260.566 340.377 260.594 340.435 260.663 340.531C260.582 340.42 258.704 337.978 252.723 339.489C242.906 348.45 227.836 352.468 220.038 352.468Z" fill="#263238"/>
<path d="M219.572 358.052L204.273 357.088L203.066 328.884L223.627 329.652L219.572 358.052Z" fill="#407BFF"/>
<path d="M219.572 358.052L223.148 354.493L225.365 336.907L223.627 329.652L219.572 358.052Z" fill="#407BFF"/>
<path opacity="0.2" d="M219.572 358.052L223.148 354.493L225.365 336.907L223.627 329.652L219.572 358.052Z" fill="black"/>
<path d="M308.204 347.371C307.674 347.371 307.138 347.204 306.682 346.858C297.95 340.222 286.148 328.44 281.618 317.074C281.552 316.909 281.504 316.736 281.475 316.559C279.266 303.427 277.156 275.785 277.067 274.614C276.962 273.227 278.001 272.016 279.389 271.911C280.773 271.809 281.987 272.845 282.092 274.233C282.114 274.516 284.245 302.429 286.4 315.455C290.917 326.506 303.164 337.854 309.731 342.844C310.839 343.687 311.055 345.268 310.212 346.376C309.717 347.029 308.966 347.371 308.204 347.371Z" fill="#263238"/>
<path d="M319.854 348.645C317.906 348.645 315.697 347.761 313.29 346.02C312.163 345.203 311.91 343.628 312.727 342.501C313.543 341.374 315.118 341.121 316.245 341.936C318.326 343.442 319.463 343.605 319.855 343.605C321.247 343.605 322.375 344.733 322.375 346.125C322.374 347.517 321.246 348.645 319.854 348.645Z" fill="#263238"/>
<path d="M313.996 345.947C316.692 337.938 327.746 339.52 331.553 340.71C335.36 341.899 338.79 343.396 340.852 344.744C342.914 346.093 342.947 348.344 340.198 349.63C336.807 351.216 328.302 349.809 328.302 349.809C332.705 351.736 328.294 354.825 320.57 351.791C318.055 350.803 313.044 348.882 313.996 345.947Z" fill="#407BFF"/>
<path d="M287.165 278.071C286.164 284.876 280.529 289.894 275.944 289.221C271.359 288.547 271.169 282.469 272.169 275.663C273.17 268.857 274.982 263.902 279.567 264.576C284.152 265.25 288.165 271.266 287.165 278.071Z" fill="#263238"/>
<path d="M176.295 250.903C176.675 250.903 176.983 250.595 176.983 250.215C176.983 249.835 176.675 249.527 176.295 249.527C175.915 249.527 175.607 249.835 175.607 250.215C175.607 250.595 175.915 250.903 176.295 250.903Z" fill="#263238"/>
<path d="M183.295 255.174C183.295 255.553 182.986 255.862 182.607 255.862C182.227 255.862 181.918 255.553 181.918 255.174C181.918 254.793 182.226 254.486 182.607 254.486C182.987 254.486 183.295 254.793 183.295 255.174Z" fill="#263238"/>
<path d="M184.065 336.574C184.065 336.955 183.757 337.262 183.377 337.262C182.997 337.262 182.688 336.954 182.688 336.574C182.688 336.194 182.997 335.886 183.377 335.886C183.757 335.885 184.065 336.194 184.065 336.574Z" fill="#263238"/>
<path d="M190.377 341.532C190.377 341.913 190.068 342.22 189.688 342.22C189.308 342.22 189 341.912 189 341.532C189 341.152 189.308 340.844 189.688 340.844C190.068 340.843 190.377 341.152 190.377 341.532Z" fill="#263238"/>
<path d="M69.3082 349.792C67.309 349.792 64.6059 348.581 63.1485 346.475C63.0166 346.284 63.0637 346.023 63.2543 345.891C63.445 345.758 63.7063 345.806 63.839 345.998C65.4064 348.261 68.8613 349.468 70.3952 348.753C70.5565 348.677 70.6875 348.582 70.7875 348.468C69.4166 347.835 68.1633 346.595 67.8256 344.703C67.6349 343.639 67.4837 342.2 68.3624 342.001C69.5669 341.731 71.1428 344.644 71.7493 346.852C71.8618 347.26 71.8971 347.639 71.8585 347.98C72.3893 348.126 72.9118 348.163 73.3595 348.099C73.7233 348.046 74.2399 347.896 74.5145 347.473C73.4939 346.783 72.8077 345.567 72.5783 343.954C72.2524 341.658 72.4969 341.257 72.7514 341.061C72.9169 340.934 73.1269 340.91 73.3293 340.996C74.2273 341.378 75.3159 344.636 75.5242 346.48C75.5469 346.683 75.5469 346.878 75.5267 347.062C75.8703 347.199 76.2491 347.274 76.6599 347.282C77.3882 347.324 78.1081 347.092 78.6843 346.754C78.565 346.679 78.4525 346.596 78.3466 346.506C77.4747 345.761 77.1236 344.571 77.2714 342.868C77.3857 341.552 77.6855 340.832 78.2147 340.606C78.4004 340.524 78.7784 340.447 79.2295 340.807C80.1367 341.532 80.9834 343.829 80.6793 345.475C80.6163 345.815 80.4693 346.141 80.2576 346.441C81.799 346.707 83.9679 346.274 85.8386 345.812C86.0629 345.758 86.2913 345.894 86.3468 346.119C86.4022 346.345 86.2653 346.572 86.0402 346.627C83.7638 347.19 81.3135 347.648 79.5823 347.145C78.8128 347.758 77.7292 348.129 76.6439 348.121C76.1492 348.111 75.688 348.023 75.2672 347.863C74.9362 348.426 74.3205 348.808 73.483 348.93C72.9253 349.013 72.2684 348.96 71.6031 348.77C71.4141 349.085 71.1285 349.338 70.7522 349.514C70.349 349.701 69.8551 349.791 69.3082 349.792ZM68.5825 342.839C68.5337 342.968 68.4455 343.393 68.6539 344.556C68.9302 346.102 69.9307 347.129 71.0386 347.671C71.0336 347.492 71.0008 347.294 70.9412 347.076C70.2809 344.675 69.0268 343.02 68.5825 342.839ZM73.2621 342.107C73.2571 342.423 73.2856 342.954 73.4108 343.837C73.5813 345.036 74.0231 345.957 74.6867 346.544C74.4902 344.856 73.7417 342.903 73.2621 342.107ZM78.5465 341.377H78.5449C78.5432 341.378 78.2299 341.537 78.1072 342.939C77.9846 344.353 78.2416 345.311 78.8918 345.866C79.0396 345.992 79.2076 346.098 79.3949 346.184C79.6327 345.921 79.7948 345.627 79.8511 345.321C80.0762 344.104 79.4966 342.321 78.8464 341.6C78.6784 341.412 78.5701 341.377 78.5465 341.377Z" fill="#263238"/>
<path d="M192.253 356.142L194.53 352.194L192.253 348.246H189.817L191.193 352.194L189.817 356.142H192.253Z" fill="#263238"/>
<path d="M189.977 354.251C188.843 354.251 187.919 353.327 187.919 352.193C187.919 351.059 188.843 350.144 189.977 350.144L186.106 349.369L185.08 352.495L186.807 355.132L189.977 354.251Z" fill="#263238"/>
<path d="M190.308 348.246H185.747L183.47 352.194L185.747 356.142H190.308L192.584 352.194L190.308 348.246ZM188.032 354.252C186.898 354.252 185.974 353.328 185.974 352.194C185.974 351.06 186.898 350.144 188.032 350.144C189.166 350.144 190.081 351.06 190.081 352.194C190.081 353.328 189.166 354.252 188.032 354.252Z" fill="#407BFF"/>
<path d="M351.027 347.983L349.337 345.05L351.027 342.119H352.837L351.815 345.051L352.837 347.983H351.027Z" fill="#407BFF"/>
<path d="M352.718 346.579C353.56 346.579 354.247 345.893 354.247 345.051C354.247 344.209 353.56 343.529 352.718 343.529L355.592 342.953L356.355 345.275L355.072 347.233L352.718 346.579Z" fill="#407BFF"/>
<path d="M352.472 342.119H355.86L357.551 345.05L355.86 347.983H352.472L350.781 345.05L352.472 342.119ZM354.163 346.579C355.006 346.579 355.692 345.893 355.692 345.05C355.692 344.209 355.006 343.528 354.163 343.528C353.321 343.528 352.641 344.209 352.641 345.05C352.64 345.893 353.321 346.579 354.163 346.579Z" fill="#263238"/>
<path d="M288.077 351.875H291.872C292.86 351.875 293.669 351.067 293.669 350.078C293.669 349.09 292.86 348.281 291.872 348.281H288.077C287.088 348.281 286.28 349.09 286.28 350.078C286.28 351.067 287.088 351.875 288.077 351.875Z" fill="#263238"/>
<path d="M282.014 348.485C282.951 346.498 285.222 345.6 287.089 346.479C288.954 347.359 289.707 349.683 288.771 351.67C287.834 353.658 285.562 354.556 283.696 353.676C281.829 352.797 281.076 350.473 282.014 348.485Z" fill="#407BFF"/>
<path d="M283.082 353.661L284.123 354.151L287.742 346.476L286.701 345.985L283.082 353.661Z" fill="#263238"/>
</svg>
