<svg width="420" height="420" viewBox="0 0 420 420" fill="none" xmlns="http://www.w3.org/2000/svg">
<g clip-path="url(#clip0_648_56074)">
<path d="M383.988 343.485L59.846 340.683V348.973C59.846 351.223 61.2598 353.136 63.1745 353.477L154.832 369.802C155.92 369.996 157.023 370.047 158.121 369.955L380.466 351.342C382.451 351.176 383.988 349.257 383.988 346.945V343.485Z" fill="#BFC8D6"/>
<path d="M264.703 330.199L58.6839 345.365C54.9974 345.636 51.9999 342.752 51.9999 338.923V185.507C51.9999 181.678 54.9974 178.573 58.6839 178.573L65.9723 182.774L264.703 178.573C267.74 178.573 270.196 181.379 270.196 184.841V323.527C270.195 326.988 267.74 329.975 264.703 330.199Z" fill="#BFC8D6"/>
<path d="M267.988 330.199L61.9691 345.365C58.2825 345.636 55.2851 342.752 55.2851 338.923V185.507C55.2851 181.678 58.2825 178.573 61.9691 178.573H267.988C271.025 178.573 273.481 181.379 273.481 184.841V323.527C273.481 326.988 271.025 329.975 267.988 330.199Z" fill="white"/>
<path d="M261.57 320.421L69.6848 333.595C66.6848 333.801 64.2468 331.434 64.2468 328.308V193.992C64.2468 190.866 66.6848 188.321 69.6848 188.308L261.57 187.481C264.075 187.47 266.102 189.77 266.102 192.617V314.955C266.102 317.802 264.075 320.249 261.57 320.421Z" fill="#D8DEE8"/>
<path d="M137.74 200.914L85.9552 201.049L85.9476 196.112L137.733 196.128L137.74 200.914Z" fill="white"/>
<path d="M162.126 199.484L150.163 199.505L150.158 196.132L162.12 196.136L162.126 199.484Z" fill="white"/>
<path d="M162.133 204.137L150.17 204.192L150.165 200.819L162.128 200.789L162.133 204.137Z" fill="white"/>
<path d="M221.748 203.86L175.338 204.076L175.333 200.755L221.743 200.636L221.748 203.86Z" fill="white"/>
<path d="M229.366 208.282L183.417 208.629L183.412 205.325L229.361 205.074L229.366 208.282Z" fill="white"/>
<path d="M229.373 212.74L183.424 213.219L183.419 209.915L229.368 209.532L229.373 212.74Z" fill="white"/>
<path d="M229.379 217.198L183.431 217.81L183.426 214.506L229.374 213.99L229.379 217.198Z" fill="white"/>
<path d="M162.14 208.789L150.177 208.879L150.172 205.506L162.135 205.441L162.14 208.789Z" fill="white"/>
<path d="M162.147 213.442L150.184 213.567L150.179 210.194L162.142 210.094L162.147 213.442Z" fill="white"/>
<path d="M162.154 218.093L150.191 218.252L150.186 214.879L162.149 214.745L162.154 218.093Z" fill="white"/>
<path d="M162.162 222.746L150.199 222.94L150.194 219.567L162.157 219.398L162.162 222.746Z" fill="white"/>
<path d="M194.217 222.226L164.772 222.703L164.767 219.36L194.212 218.944L194.217 222.226Z" fill="white"/>
<path d="M162.168 227.398L150.206 227.627L150.201 224.253L162.163 224.05L162.168 227.398Z" fill="white"/>
<path d="M162.175 232.05L150.213 232.313L150.208 228.94L162.17 228.702L162.175 232.05Z" fill="white"/>
<path d="M162.182 236.703L150.22 237L150.215 233.627L162.177 233.354L162.182 236.703Z" fill="white"/>
<path d="M208.019 226.521L175.373 227.145L175.368 223.824L208.014 223.269L208.019 226.521Z" fill="white"/>
<path d="M224.986 230.669L183.452 231.582L183.446 228.278L224.981 227.451L224.986 230.669Z" fill="white"/>
<path d="M224.994 235.139L183.459 236.173L183.454 232.869L224.989 231.922L224.994 235.139Z" fill="white"/>
<path d="M162.19 241.355L150.228 241.687L150.223 238.314L162.185 238.006L162.19 241.355Z" fill="white"/>
<path d="M162.197 246.007L150.235 246.374L150.23 243.001L162.192 242.659L162.197 246.007Z" fill="white"/>
<path d="M162.205 250.659L150.243 251.061L150.237 247.688L162.2 247.311L162.205 250.659Z" fill="white"/>
<path d="M162.212 255.311L150.25 255.747L150.245 252.374L162.207 251.963L162.212 255.311Z" fill="white"/>
<path d="M162.219 259.963L150.257 260.434L150.252 257.06L162.214 256.615L162.219 259.963Z" fill="white"/>
<path d="M162.226 264.616L150.264 265.121L150.259 261.748L162.221 261.268L162.226 264.616Z" fill="white"/>
<path d="M162.233 269.268L150.271 269.808L150.265 266.435L162.227 265.92L162.233 269.268Z" fill="white"/>
<path d="M162.24 273.92L150.278 274.494L150.272 271.121L162.234 270.571L162.24 273.92Z" fill="white"/>
<path d="M162.248 278.572L150.286 279.181L150.28 275.808L162.242 275.224L162.248 278.572Z" fill="white"/>
<path d="M162.255 283.225L150.293 283.868L150.287 280.495L162.249 279.876L162.255 283.225Z" fill="white"/>
<path d="M162.262 287.876L150.3 288.554L150.295 285.181L162.257 284.528L162.262 287.876Z" fill="white"/>
<path d="M162.269 292.528L150.308 293.241L150.303 289.868L162.264 289.18L162.269 292.528Z" fill="white"/>
<path d="M162.277 297.181L150.315 297.929L150.31 294.555L162.272 293.833L162.277 297.181Z" fill="white"/>
<path d="M162.283 301.834L150.322 302.616L150.317 299.242L162.278 298.485L162.283 301.834Z" fill="white"/>
<path d="M162.291 306.486L150.329 307.302L150.324 303.929L162.286 303.137L162.291 306.486Z" fill="white"/>
<path d="M162.298 311.138L150.336 311.989L150.331 308.616L162.293 307.79L162.298 311.138Z" fill="white"/>
<path d="M162.305 315.79L150.344 316.676L150.339 313.303L162.3 312.442L162.305 315.79Z" fill="white"/>
<path d="M162.312 320.443L150.35 321.363L150.345 317.99L162.307 317.094L162.312 320.443Z" fill="white"/>
<path d="M197.28 199.423L164.654 199.481L164.649 196.138L197.275 196.148L197.28 199.423Z" fill="white"/>
<path d="M221.887 293.456L175.481 296.356L175.475 293.035L221.882 290.232L221.887 293.456Z" fill="white"/>
<path d="M229.503 297.439L183.558 300.443L183.553 297.139L229.498 294.231L229.503 297.439Z" fill="white"/>
<path d="M229.51 301.896L183.565 305.033L183.56 301.729L229.505 298.688L229.51 301.896Z" fill="white"/>
<path d="M249.316 304.946L204.561 308.131L204.556 304.87L249.311 301.779L249.316 304.946Z" fill="white"/>
<path d="M249.322 309.347L204.568 312.661L204.563 309.4L249.318 306.18L249.322 309.347Z" fill="white"/>
<path d="M249.33 313.748L204.576 317.191L204.57 313.931L249.325 310.581L249.33 313.748Z" fill="white"/>
<path d="M197.421 290.435L164.798 292.379L164.793 289.036L197.416 287.16L197.421 290.435Z" fill="white"/>
<path d="M221.81 244.179L175.402 245.602L175.397 242.281L221.805 240.955L221.81 244.179Z" fill="white"/>
<path d="M229.428 248.403L183.481 249.945L183.476 246.641L229.423 245.195L229.428 248.403Z" fill="white"/>
<path d="M229.435 252.861L183.488 254.536L183.483 251.232L229.43 249.652L229.435 252.861Z" fill="white"/>
<path d="M229.441 257.32L183.495 259.127L183.49 255.823L229.436 254.111L229.441 257.32Z" fill="white"/>
<path d="M194.281 263.262L164.837 264.506L164.831 261.163L194.276 259.98L194.281 263.262Z" fill="white"/>
<path d="M208.082 267.199L175.437 268.672L175.432 265.351L208.077 263.946L208.082 267.199Z" fill="white"/>
<path d="M225.049 270.904L183.516 272.898L183.511 269.594L225.044 267.686L225.049 270.904Z" fill="white"/>
<path d="M225.056 275.374L183.523 277.489L183.518 274.185L225.051 272.157L225.056 275.374Z" fill="white"/>
<path d="M234.27 279.35L193.237 281.557L193.232 278.273L234.265 276.151L234.27 279.35Z" fill="white"/>
<path d="M234.277 283.795L193.244 286.121L193.239 282.837L234.272 280.596L234.277 283.795Z" fill="white"/>
<path d="M197.343 240.379L164.719 241.285L164.713 237.942L197.338 237.104L197.343 240.379Z" fill="white"/>
<path d="M137.751 208.392L108.111 208.605L108.103 203.732L137.744 203.606L137.751 208.392Z" fill="white"/>
<path d="M100.445 208.659L106.027 208.619L106.02 203.74L100.437 203.764L100.445 208.659Z" fill="white"/>
<path d="M137.762 215.272L108.122 215.609L108.114 210.737L137.755 210.486L137.762 215.272Z" fill="white"/>
<path d="M100.456 215.697L106.039 215.633L106.031 210.754L100.448 210.802L100.456 215.697Z" fill="white"/>
<path d="M137.773 222.15L108.133 222.613L108.125 217.74L137.765 217.364L137.773 222.15Z" fill="white"/>
<path d="M100.467 222.732L106.049 222.645L106.042 217.767L100.459 217.837L100.467 222.732Z" fill="white"/>
<path d="M137.848 270.981L86.0666 273.338L86.059 268.4L137.841 266.196L137.848 270.981Z" fill="white"/>
<path d="M137.86 278.46L108.221 279.944L108.214 275.071L137.852 273.674L137.86 278.46Z" fill="white"/>
<path d="M100.555 280.329L106.137 280.05L106.13 275.171L100.548 275.434L100.555 280.329Z" fill="white"/>
<path d="M137.87 285.34L108.232 286.95L108.224 282.077L137.863 280.555L137.87 285.34Z" fill="white"/>
<path d="M100.566 287.365L106.149 287.062L106.141 282.183L100.559 282.47L100.566 287.365Z" fill="white"/>
<path d="M137.881 292.219L108.243 293.953L108.236 289.08L137.874 287.433L137.881 292.219Z" fill="white"/>
<path d="M100.577 294.401L106.159 294.075L106.151 289.196L100.569 289.506L100.577 294.401Z" fill="white"/>
<path d="M137.784 229.076L85.9998 230.104L85.9922 225.166L137.776 224.291L137.784 229.076Z" fill="white"/>
<path d="M137.796 236.554L108.156 237.278L108.149 232.405L137.789 231.768L137.796 236.554Z" fill="white"/>
<path d="M100.489 237.465L106.072 237.329L106.064 232.45L100.482 232.57L100.489 237.465Z" fill="white"/>
<path d="M137.806 243.434L108.166 244.283L108.159 239.41L137.798 238.648L137.806 243.434Z" fill="white"/>
<path d="M100.5 244.503L106.083 244.343L106.075 239.464L100.493 239.608L100.5 244.503Z" fill="white"/>
<path d="M137.827 257.282L108.188 258.382L108.181 253.509L137.82 252.496L137.827 257.282Z" fill="white"/>
<path d="M100.522 258.667L106.105 258.46L106.097 253.582L100.515 253.772L100.522 258.667Z" fill="white"/>
<path d="M137.838 264.161L108.199 265.386L108.191 260.514L137.831 259.375L137.838 264.161Z" fill="white"/>
<path d="M100.533 265.704L106.115 265.473L106.108 260.594L100.525 260.809L100.533 265.704Z" fill="white"/>
<path d="M137.816 250.314L108.177 251.287L108.169 246.415L137.809 245.528L137.816 250.314Z" fill="white"/>
<path d="M100.511 251.539L106.093 251.355L106.086 246.477L100.503 246.644L100.511 251.539Z" fill="white"/>
<path d="M137.892 299.096L86.1119 302.344L86.1043 297.406L137.885 294.311L137.892 299.096Z" fill="white"/>
<path d="M137.903 306.574L108.265 308.568L108.258 303.696L137.896 301.788L137.903 306.574Z" fill="white"/>
<path d="M100.6 309.084L106.182 308.708L106.174 303.83L100.592 304.189L100.6 309.084Z" fill="white"/>
<path d="M137.914 313.454L108.276 315.573L108.269 310.7L137.906 308.668L137.914 313.454Z" fill="white"/>
<path d="M100.611 316.12L106.193 315.72L106.185 310.842L100.603 311.225L100.611 316.12Z" fill="white"/>
<path d="M137.925 320.333L108.287 322.577L108.28 317.704L137.917 315.547L137.925 320.333Z" fill="white"/>
<path d="M100.621 323.157L106.203 322.734L106.196 317.855L100.614 318.262L100.621 323.157Z" fill="white"/>
<path d="M144.217 319.88L143.077 319.966L142.886 196.13L144.026 196.131L144.217 319.88Z" fill="white"/>
<path d="M172.255 182.769C172.255 184.194 171.195 185.353 169.885 185.358C168.574 185.362 167.51 184.207 167.51 182.778C167.51 181.349 168.574 180.191 169.885 180.189C171.195 180.188 172.255 181.343 172.255 182.769Z" fill="white"/>
<path opacity="0.48" d="M61.9684 345.365L266.945 330.276L267.988 330.199C269.381 330.096 270.649 329.407 271.616 328.363C256.866 327.555 247.704 322.321 241.794 316.912C229.926 306.05 231.985 295.339 219.186 288.197C203.222 279.29 190.67 290.577 178.557 279.44C171.213 272.689 174.818 267.654 165.782 257.564C155.773 246.39 149.256 250.146 139.198 240.089C126.479 227.372 132.84 217.477 121.885 208.347C108.594 197.27 94.2608 207.522 81.6093 196.9C76.1526 192.318 73.1584 185.657 71.595 178.573H61.9693C58.2826 178.573 55.2851 181.678 55.2851 185.507V338.923C55.2851 342.752 58.282 345.636 61.9684 345.365Z" fill="white"/>
<path d="M277.695 329.359L59.846 345.322L154.832 362.24C155.92 362.434 157.023 362.485 158.121 362.393L383.988 343.485L281.161 329.467C280.011 329.311 278.851 329.274 277.695 329.359Z" fill="url(#paint0_linear_648_56074)"/>
<path d="M91.6333 345.459L272.999 331.971L329.13 339.561L149.327 353.979L91.6333 345.459Z" fill="#D8DEE8"/>
<path d="M278.132 121.276L90.5858 115.227C84.1801 115.021 78.9598 119.983 78.9598 126.311V309.134C78.9598 315.462 84.1801 320.273 90.5858 319.882L278.132 308.416C283.458 308.09 287.755 303.184 287.755 297.455V131.959C287.755 126.231 283.458 121.448 278.132 121.276Z" fill="url(#paint1_linear_648_56074)"/>
<path opacity="0.74" d="M90.5857 316.243C86.2295 316.502 82.6853 313.226 82.6853 308.926V126.413C82.6853 122.112 86.2295 118.734 90.5857 118.868L278.132 124.605C281.761 124.716 284.693 127.971 284.693 131.877V297.627C284.693 301.532 281.761 304.873 278.132 305.088L90.5857 316.243Z" fill="white"/>
<path d="M278.132 121.276L90.5859 115.227C84.1804 115.021 78.9598 119.983 78.9598 126.311V134.531L287.755 139.4V131.959C287.755 126.231 283.458 121.448 278.132 121.276Z" fill="url(#paint2_linear_648_56074)"/>
<path d="M99.6134 125.77C99.6134 127.821 97.9315 129.441 95.8531 129.388C93.7708 129.334 92.0799 127.621 92.0799 125.562C92.0799 123.503 93.7708 121.884 95.8531 121.945C97.9315 122.005 99.6134 123.718 99.6134 125.77Z" fill="white"/>
<path d="M112.718 126.131C112.718 128.171 111.056 129.781 109.002 129.728C106.945 129.675 105.274 127.973 105.274 125.926C105.274 123.88 106.945 122.27 109.002 122.33C111.056 122.39 112.718 124.092 112.718 126.131Z" fill="white"/>
<path d="M125.667 126.488C125.667 128.516 124.025 130.117 121.996 130.064C119.963 130.012 118.312 128.32 118.312 126.286C118.312 124.251 119.963 122.651 121.996 122.71C124.025 122.769 125.667 124.461 125.667 126.488Z" fill="white"/>
<g opacity="0.5">
<path d="M206.023 190.762C184.16 159.354 146.104 169.592 121.887 134.635C117.508 128.314 114.535 121.875 112.494 115.934L90.5864 115.227C84.1808 115.021 78.9604 119.983 78.9604 126.311V309.134C78.9604 315.462 84.1807 320.273 90.5863 319.882L271.38 308.829C267.307 303.039 231.699 281.88 222.461 248.53C213.998 217.979 219.169 209.649 206.023 190.762Z" fill="white"/>
</g>
<path opacity="0.5" d="M189.127 247.806C180.788 247.957 172.483 246.031 165.121 242.218C157.173 238.106 150.516 231.943 145.902 224.395C141.429 217.078 139.058 208.686 139.058 200.148C139.058 173.372 161.804 152.18 189.127 152.892C215.774 153.586 236.971 174.955 236.971 200.541C236.971 226.128 215.774 247.326 189.127 247.806Z" fill="white"/>
<path d="M232.831 200.525C232.831 223.934 213.484 243.224 189.127 243.616C181.243 243.743 173.788 241.879 167.265 238.486C160.032 234.727 153.971 229.092 149.786 222.231C145.841 215.761 143.572 208.22 143.572 200.166C143.572 175.767 164.205 156.482 189.127 157.083C213.484 157.67 232.831 177.116 232.831 200.525Z" fill="white"/>
<path d="M217.063 193.592L217.05 206.025C217.046 207.216 216.566 208.353 215.706 209.193L204.879 219.81C204.006 220.663 202.821 221.149 201.587 221.147L185.2 221.148C185.2 221.148 173.945 232.015 167.264 238.486C160.031 234.728 153.97 229.093 149.785 222.231C156.529 215.758 168.075 204.636 168.075 204.636L168.009 188.518C168.004 187.295 168.511 186.124 169.413 185.271L180.598 174.661C181.486 173.821 182.686 173.362 183.933 173.382L196.909 173.604C197.981 173.622 198.949 174.268 199.36 175.238C199.766 176.212 199.539 177.318 198.782 178.045L186.418 189.891C185.317 190.944 185.312 192.673 186.413 193.747L190.84 198.074L192.06 199.265L196.463 203.574C197.553 204.637 199.317 204.64 200.404 203.584L212.609 191.74C213.356 191.013 214.479 190.803 215.458 191.208C216.431 191.614 217.067 192.554 217.063 193.592Z" fill="url(#paint3_linear_648_56074)"/>
<path d="M253.974 283.825C253.974 286.518 251.789 288.785 249.086 288.888L126.775 293.558C123.739 293.674 121.272 291.446 121.272 288.581V269.129C121.272 266.264 123.739 263.881 126.775 263.806L249.086 260.779C251.789 260.713 253.974 262.842 253.974 265.535V283.825Z" fill="white"/>
<path d="M204.218 347.039V350.829C204.218 351.8 203.719 352.602 203.06 352.689L143.924 358.048C143.485 358.109 143.044 358.098 142.608 358.022C142.494 358.001 142.38 357.977 142.267 357.949L101.064 350.182C100.625 350.069 100.303 349.495 100.303 348.83V344.825L144.02 339.407L149.648 336.743L155.243 337.549L158.547 336.916L166.099 339.114L204.218 347.039Z" fill="url(#paint4_linear_648_56074)"/>
<path opacity="0.3" d="M204.217 347.04V350.83C204.217 351.8 203.718 352.602 203.059 352.689L143.926 358.048C143.487 358.109 142.94 358.095 142.613 358.022V337.604L149.649 336.743L155.244 337.549L158.547 336.916L166.099 339.114L204.217 347.04Z" fill="url(#paint5_linear_648_56074)"/>
<path d="M158.547 336.916L100.303 344.647L142.314 352.56C142.831 352.692 143.356 352.723 143.877 352.652L204.218 347.039L158.547 336.916Z" fill="url(#paint6_linear_648_56074)"/>
<path d="M179.898 343.899C179.898 346.673 171.168 348.829 159.118 349.389C156.076 349.529 152.824 349.568 149.45 349.49C132.865 349.108 119.538 346.023 119.538 342.607C119.538 342.53 119.547 342.362 119.561 342.362L119.538 342.361L119.607 342.197C119.623 342.141 119.644 342.09 119.669 342.037L123.494 332.038L128.113 319.973L134.582 303.062L139.533 290.118L145.692 274.022C146.462 272.007 147.89 270.754 149.434 270.754C149.644 270.754 149.849 270.775 150.052 270.821C151.354 271.106 152.518 272.279 153.186 274.026L159.397 290.235L164.357 303.35L170.901 320.599V320.603L175.6 332.997V333L175.675 333.008L179.589 343.08C179.757 343.349 179.898 343.623 179.898 343.899Z" fill="url(#paint7_linear_648_56074)"/>
<path d="M175.676 333.007C171.899 334.269 165.863 335.177 158.636 335.515C155.724 335.652 152.643 335.697 149.432 335.636C138.289 335.424 128.628 333.99 123.486 332.04L128.109 319.973C133.519 321.19 141.06 322.011 149.441 322.137C152.151 322.178 154.792 322.143 157.307 322.042C162.599 321.832 167.266 321.324 170.942 320.603L175.601 332.996V333L175.676 333.007Z" fill="white"/>
<path d="M164.413 303.35C161.531 303.662 158.363 303.873 155.001 303.969C153.2 304.022 151.345 304.04 149.45 304.021C144.026 303.969 138.954 303.622 134.582 303.063L139.533 290.118C142.632 290.363 145.969 290.503 149.45 290.523C150.68 290.53 151.892 290.523 153.081 290.498C155.263 290.457 157.378 290.369 159.397 290.235L164.413 303.35Z" fill="white"/>
<path opacity="0.2" d="M159.118 349.389C156.076 349.529 152.824 349.568 149.45 349.49C132.865 349.108 119.538 346.023 119.538 342.607C119.538 342.53 119.547 342.362 119.561 342.362L119.538 342.361L119.607 342.197C119.623 342.141 119.644 342.09 119.669 342.037L123.494 332.038L128.113 319.973L134.582 303.062L139.533 290.118L145.692 274.022C146.462 272.007 147.89 270.754 149.434 270.754C149.644 270.754 149.849 270.775 150.052 270.821C150.71 274.919 151.836 282.069 153.081 290.497C153.705 294.74 154.36 299.309 155.001 303.968C155.827 309.995 156.628 316.183 157.308 322.042C157.863 326.844 158.337 331.425 158.672 335.516C159.162 341.439 159.364 346.338 159.118 349.389Z" fill="url(#paint8_linear_648_56074)"/>
<path d="M249.833 186.705L249.916 192.295C249.94 193.935 251.315 195.137 252.986 194.981L256.023 194.696C256.443 197.335 257.15 199.854 258.115 202.224L255.62 203.892C254.186 204.849 253.718 206.711 254.574 208.049L257.488 212.606C258.342 213.942 262.182 214.573 263.611 213.613L263.983 211.701C265.71 213.655 267.663 215.398 269.803 216.897L268.51 219.292C267.702 220.79 268.221 222.548 269.668 223.22L274.595 225.505C276.038 226.174 280.611 226.065 281.415 224.571L279.901 221.709C282.437 222.438 285.099 222.889 287.853 223.033L287.89 225.51C287.914 227.135 289.264 228.315 290.905 228.147L296.486 227.574C298.121 227.406 299.426 225.956 299.402 224.336L299.365 221.867C302.087 221.169 304.703 220.188 307.179 218.959L308.464 220.989C309.297 222.307 314.041 222.774 315.435 221.823L317.239 218.417C318.628 217.469 319.082 215.636 318.253 214.32L316.924 212.213C318.963 210.319 320.81 208.227 322.427 205.974L324.757 207.078C326.165 207.746 330.247 207.923 331.031 206.45L331.397 200.607C332.179 199.137 331.676 197.403 330.272 196.733L327.823 195.564C328.683 193.062 329.291 190.464 329.62 187.804L332.544 187.53C334.149 187.379 335.43 185.956 335.407 184.35L335.326 178.877C335.302 177.271 333.982 176.088 332.376 176.234L329.28 176.515C328.803 173.995 328.061 171.59 327.083 169.325L329.839 167.474C331.219 166.547 331.67 164.725 330.845 163.404L331.12 157.948C330.295 156.624 325.417 157.248 324.033 158.173L321.132 160.112C319.488 158.311 317.647 156.696 315.64 155.293L317.332 152.15C318.12 150.685 317.613 148.94 316.2 148.251L314.008 145.388C312.59 144.697 308.164 145.835 307.372 147.302L305.633 150.523C303.288 149.845 300.831 149.402 298.289 149.222L298.236 145.634C298.212 144.014 296.868 142.809 295.233 142.943L289.649 143.4C288.008 143.534 286.697 144.96 286.721 146.585L286.774 150.183C284.226 150.788 281.765 151.646 279.418 152.723L280.344 148.879C279.498 147.537 274.881 148.106 273.462 149.039L268.616 152.226C267.193 153.163 266.727 155.012 267.578 156.356L269.4 159.236C267.393 161.001 265.557 162.955 263.926 165.065L263.959 163.161C262.506 162.467 257.596 163.565 256.784 165.055L254.012 170.136C253.198 171.628 253.721 173.398 255.178 174.089L258.082 175.466C257.141 177.943 256.447 180.522 256.031 183.169L252.816 183.461C251.145 183.613 249.809 185.065 249.833 186.705ZM270.604 188.152C270.422 175.854 280.368 165.008 292.751 163.932C305.058 162.862 315.127 171.859 315.307 184.022C315.487 196.185 305.712 207.015 293.406 208.219C281.026 209.431 270.786 200.449 270.604 188.152Z" fill="url(#paint9_linear_648_56074)"/>
<path d="M253.578 186.475L253.661 192.065C253.686 193.705 255.061 194.907 256.732 194.75L259.768 194.466C260.189 197.104 260.896 199.623 261.86 201.994L259.365 203.662C257.932 204.619 257.463 206.481 258.319 207.819L261.233 212.376C262.087 213.712 263.939 214.015 265.368 213.056L267.728 211.471C269.455 213.425 271.408 215.167 273.548 216.667L272.255 219.062C271.447 220.559 271.966 222.318 273.413 222.989L278.34 225.275C279.783 225.944 281.604 225.274 282.408 223.78L283.646 221.479C286.182 222.208 288.845 222.659 291.599 222.803L291.635 225.28C291.659 226.905 293.01 228.085 294.65 227.917L300.232 227.343C301.866 227.176 303.171 225.726 303.147 224.106L303.11 221.637C305.833 220.939 308.449 219.958 310.925 218.729L312.209 220.759C313.043 222.077 314.848 222.373 316.242 221.423L320.985 218.187C322.374 217.239 322.827 215.406 321.998 214.09L320.67 211.983C322.709 210.089 324.555 207.997 326.173 205.743L328.503 206.848C329.91 207.515 331.687 206.863 332.471 205.39L335.142 200.376C335.925 198.907 335.422 197.173 334.018 196.503L331.568 195.334C332.428 192.832 333.036 190.234 333.365 187.573L336.289 187.299C337.895 187.149 339.176 185.726 339.152 184.12L339.071 178.647C339.047 177.041 337.727 175.858 336.122 176.003L333.025 176.285C332.549 173.765 331.806 171.359 330.828 169.094L333.584 167.244C334.965 166.317 335.415 164.495 334.591 163.174L331.779 158.666C330.954 157.342 329.163 157.018 327.779 157.943L324.878 159.881C323.233 158.081 321.392 156.466 319.386 155.062L321.077 151.919C321.865 150.455 321.359 148.709 319.945 148.02L315.12 145.667C313.702 144.976 311.91 145.604 311.118 147.072L309.379 150.293C307.033 149.615 304.576 149.171 302.034 148.992L301.981 145.404C301.957 143.783 300.613 142.579 298.978 142.712L293.394 143.169C291.754 143.303 290.442 144.729 290.466 146.354L290.519 149.952C287.971 150.558 285.51 151.415 283.163 152.492L281.308 149.55C280.462 148.208 278.626 147.875 277.207 148.809L272.361 151.996C270.938 152.932 270.472 154.781 271.322 156.125L273.145 159.006C271.138 160.771 269.302 162.724 267.671 164.835L264.632 163.384C263.178 162.691 261.341 163.335 260.529 164.824L257.757 169.905C256.943 171.398 257.466 173.168 258.923 173.859L261.827 175.236C260.886 177.713 260.192 180.291 259.776 182.939L256.561 183.231C254.89 183.383 253.554 184.835 253.578 186.475ZM274.349 187.921C274.167 175.624 284.113 164.778 296.496 163.701C308.804 162.631 318.873 171.629 319.053 183.791C319.233 195.954 309.458 206.785 297.152 207.989C284.771 209.2 274.531 200.219 274.349 187.921Z" fill="url(#paint10_linear_648_56074)"/>
<path d="M207.775 116.182L207.837 120.396C207.855 121.633 208.892 122.54 210.152 122.422L212.442 122.207C212.759 124.197 213.292 126.096 214.019 127.884L212.138 129.141C211.057 129.863 210.704 131.267 211.349 132.276L213.547 135.712C214.191 136.72 217.086 137.195 218.164 136.472L218.444 135.03C219.746 136.503 221.219 137.817 222.833 138.948L221.858 140.754C221.248 141.883 221.64 143.209 222.731 143.716L226.446 145.439C227.534 145.943 230.983 145.862 231.589 144.735L230.447 142.577C232.359 143.126 234.367 143.466 236.444 143.575L236.472 145.442C236.49 146.668 237.508 147.558 238.745 147.431L242.954 146.999C244.187 146.872 245.17 145.779 245.152 144.557L245.125 142.695C247.177 142.169 249.15 141.429 251.017 140.503L251.986 142.034C252.614 143.027 256.192 143.379 257.242 142.662L258.603 140.094C259.65 139.379 259.992 137.997 259.367 137.005L258.366 135.416C259.903 133.988 261.295 132.41 262.515 130.711L264.272 131.544C265.334 132.047 268.412 132.181 269.003 131.07L269.278 126.664C269.869 125.556 269.489 124.248 268.431 123.743L266.584 122.862C267.232 120.975 267.691 119.016 267.939 117.01L270.144 116.803C271.354 116.69 272.32 115.617 272.302 114.406L272.241 110.279C272.223 109.068 271.228 108.175 270.017 108.285L267.682 108.497C267.323 106.597 266.763 104.783 266.025 103.076L268.104 101.68C269.144 100.981 269.484 99.6072 268.863 98.6107L269.07 94.4966C268.448 93.4984 264.77 93.969 263.726 94.6665L261.538 96.1283C260.298 94.7704 258.91 93.5526 257.397 92.4946L258.673 90.1245C259.267 89.0202 258.885 87.704 257.819 87.1844L256.166 85.0261C255.097 84.5049 251.76 85.3626 251.163 86.4691L249.851 88.8981C248.083 88.3866 246.23 88.0523 244.313 87.9169L244.273 85.2115C244.255 83.9896 243.241 83.081 242.008 83.182L237.798 83.5264C236.561 83.6276 235.572 84.7029 235.59 85.9283L235.63 88.6413C233.709 89.0981 231.853 89.7447 230.083 90.5565L230.781 87.6582C230.143 86.6461 226.662 87.0754 225.592 87.7792L221.938 90.1823C220.864 90.8883 220.513 92.283 221.155 93.2963L222.529 95.4683C221.015 96.7991 219.631 98.2725 218.401 99.8638L218.426 98.4278C217.33 97.9047 213.628 98.7326 213.015 99.8558L210.925 103.687C210.312 104.813 210.706 106.148 211.805 106.669L213.995 107.707C213.285 109.575 212.762 111.519 212.448 113.515L210.023 113.736C208.764 113.85 207.756 114.945 207.775 116.182ZM223.437 117.272C223.3 107.999 230.8 99.8205 240.137 99.0088C249.418 98.2021 257.01 104.987 257.146 114.158C257.282 123.33 249.911 131.496 240.632 132.404C231.296 133.318 223.574 126.545 223.437 117.272Z" fill="url(#paint11_linear_648_56074)"/>
<path d="M210.598 116.008L210.661 120.223C210.679 121.459 211.716 122.366 212.976 122.248L215.266 122.033C215.583 124.023 216.116 125.922 216.843 127.71L214.962 128.967C213.881 129.689 213.528 131.093 214.173 132.102L216.371 135.538C217.015 136.546 218.411 136.775 219.488 136.051L221.268 134.856C222.57 136.329 224.043 137.643 225.656 138.774L224.682 140.58C224.072 141.709 224.463 143.035 225.555 143.542L229.27 145.265C230.358 145.769 231.731 145.265 232.338 144.138L233.271 142.403C235.183 142.953 237.191 143.292 239.268 143.401L239.296 145.269C239.314 146.494 240.332 147.384 241.569 147.257L245.778 146.825C247.01 146.698 247.994 145.605 247.976 144.383L247.949 142.521C250.001 141.995 251.974 141.255 253.841 140.329L254.81 141.86C255.438 142.853 256.8 143.077 257.85 142.36L261.427 139.92C262.474 139.205 262.816 137.823 262.191 136.831L261.189 135.242C262.727 133.814 264.119 132.236 265.339 130.537L267.096 131.37C268.157 131.873 269.497 131.381 270.088 130.271L272.102 126.49C272.692 125.382 272.313 124.074 271.254 123.569L269.407 122.688C270.056 120.801 270.515 118.842 270.762 116.836L272.967 116.629C274.178 116.516 275.144 115.442 275.126 114.232L275.065 110.104C275.047 108.894 274.052 108.001 272.841 108.111L270.506 108.323C270.147 106.423 269.587 104.609 268.849 102.901L270.927 101.506C271.968 100.807 272.308 99.4332 271.686 98.4368L269.566 95.0375C268.944 94.0393 267.593 93.795 266.55 94.4926L264.362 95.9543C263.122 94.5964 261.734 93.3786 260.221 92.3205L261.496 89.9504C262.091 88.8461 261.709 87.5299 260.643 87.0103L257.004 85.236C255.935 84.7148 254.584 85.1885 253.986 86.2952L252.675 88.724C250.906 88.2125 249.054 87.8782 247.137 87.7427L247.097 85.0373C247.079 83.8154 246.065 82.9068 244.832 83.0076L240.622 83.3521C239.385 83.4534 238.396 84.5285 238.414 85.7539L238.454 88.4668C236.533 88.9236 234.677 89.5703 232.907 90.3821L231.508 88.1634C230.87 87.1514 229.486 86.9009 228.416 87.6047L224.762 90.0079C223.688 90.7138 223.337 92.1085 223.979 93.1218L225.353 95.2939C223.839 96.6247 222.455 98.0981 221.225 99.6893L218.933 98.5955C217.837 98.0724 216.452 98.5581 215.839 99.6812L213.749 103.513C213.136 104.638 213.529 105.973 214.629 106.494L216.819 107.532C216.109 109.4 215.586 111.345 215.272 113.341L212.847 113.561C211.587 113.676 210.58 114.771 210.598 116.008ZM226.261 117.098C226.123 107.825 233.623 99.6465 242.961 98.8348C252.242 98.028 259.834 104.813 259.97 113.984C260.106 123.156 252.735 131.322 243.455 132.23C234.119 133.144 226.398 126.372 226.261 117.098Z" fill="url(#paint12_linear_648_56074)"/>
</g>
<path d="M59.5 29.5781C59.5 32.4531 58.625 34.6562 56.875 36.1875C55.125 37.7188 52.5469 38.4844 49.1406 38.4844C45.7344 38.4844 43.1562 37.7188 41.4062 36.1875C39.6667 34.6562 38.7969 32.4583 38.7969 29.5938V14.7344H44.8281V29.25C44.8281 30.8646 45.1667 32.0677 45.8438 32.8594C46.5208 33.651 47.6198 34.0469 49.1406 34.0469C50.6406 34.0469 51.7344 33.6667 52.4219 32.9062C53.1198 32.1458 53.4688 30.9271 53.4688 29.25V14.7344H59.5V29.5781ZM82.4375 38H76.7812V29.2969C76.7812 28.5885 76.7448 27.8854 76.6719 27.1875C76.599 26.4792 76.474 25.9583 76.2969 25.625C76.0885 25.2396 75.7812 24.9583 75.375 24.7812C74.9792 24.6042 74.4219 24.5156 73.7031 24.5156C73.1927 24.5156 72.6719 24.599 72.1406 24.7656C71.6198 24.9323 71.0521 25.1979 70.4375 25.5625V38H64.8125V20.4531H70.4375V22.3906C71.4375 21.6094 72.3958 21.0104 73.3125 20.5938C74.2396 20.1771 75.2656 19.9688 76.3906 19.9688C78.2865 19.9688 79.7656 20.5208 80.8281 21.625C81.901 22.7292 82.4375 24.3802 82.4375 26.5781V38ZM104.688 38H99.0625V36.1719C98.0938 36.9635 97.1875 37.5469 96.3438 37.9219C95.5 38.2969 94.526 38.4844 93.4219 38.4844C91.2865 38.4844 89.5781 37.6615 88.2969 36.0156C87.0156 34.3698 86.375 32.151 86.375 29.3594C86.375 27.8698 86.5885 26.5521 87.0156 25.4062C87.4531 24.25 88.0469 23.2604 88.7969 22.4375C89.5052 21.6562 90.3646 21.0521 91.375 20.625C92.3854 20.1875 93.3958 19.9688 94.4062 19.9688C95.4583 19.9688 96.3177 20.0833 96.9844 20.3125C97.6615 20.5312 98.3542 20.8125 99.0625 21.1562V13.6875H104.688V38ZM99.0625 33.1562V24.5469C98.6667 24.3802 98.25 24.2604 97.8125 24.1875C97.375 24.1146 96.974 24.0781 96.6094 24.0781C95.1302 24.0781 94.0208 24.5417 93.2812 25.4688C92.5417 26.3854 92.1719 27.6615 92.1719 29.2969C92.1719 31.0156 92.4688 32.2656 93.0625 33.0469C93.6562 33.8177 94.6094 34.2031 95.9219 34.2031C96.4323 34.2031 96.974 34.1094 97.5469 33.9219C98.1198 33.724 98.625 33.4688 99.0625 33.1562ZM127.281 30.2656H114.406C114.49 31.6406 115.01 32.6927 115.969 33.4219C116.938 34.151 118.359 34.5156 120.234 34.5156C121.422 34.5156 122.573 34.3021 123.688 33.875C124.802 33.4479 125.682 32.9896 126.328 32.5H126.953V37.0156C125.682 37.526 124.484 37.8958 123.359 38.125C122.234 38.3542 120.99 38.4688 119.625 38.4688C116.104 38.4688 113.406 37.6771 111.531 36.0938C109.656 34.5104 108.719 32.2552 108.719 29.3281C108.719 26.4323 109.604 24.1406 111.375 22.4531C113.156 20.7552 115.594 19.9062 118.688 19.9062C121.542 19.9062 123.688 20.6302 125.125 22.0781C126.562 23.5156 127.281 25.5885 127.281 28.2969V30.2656ZM121.688 26.9688C121.656 25.7917 121.365 24.9062 120.812 24.3125C120.26 23.7188 119.401 23.4219 118.234 23.4219C117.151 23.4219 116.26 23.7031 115.562 24.2656C114.865 24.8281 114.474 25.7292 114.391 26.9688H121.688ZM143.969 25.8125H143.469C143.229 25.7292 142.844 25.6667 142.312 25.625C141.781 25.5833 141.339 25.5625 140.984 25.5625C140.182 25.5625 139.474 25.6146 138.859 25.7188C138.245 25.8229 137.583 26 136.875 26.25V38H131.25V20.4531H136.875V23.0312C138.115 21.9688 139.193 21.2656 140.109 20.9219C141.026 20.5677 141.87 20.3906 142.641 20.3906C142.839 20.3906 143.062 20.3958 143.312 20.4062C143.562 20.4167 143.781 20.4323 143.969 20.4531V25.8125ZM182.797 38H176.828V22.4219L172.516 32.5312H168.375L164.062 22.4219V38H158.406V14.7344H165.375L170.609 26.4062L175.828 14.7344H182.797V38ZM199.062 33.4219V29.7656C198.302 29.8281 197.479 29.9167 196.594 30.0312C195.708 30.1354 195.036 30.2604 194.578 30.4062C194.016 30.5833 193.583 30.8438 193.281 31.1875C192.99 31.5208 192.844 31.9635 192.844 32.5156C192.844 32.8802 192.875 33.1771 192.938 33.4062C193 33.6354 193.156 33.8542 193.406 34.0625C193.646 34.2708 193.932 34.4271 194.266 34.5312C194.599 34.625 195.12 34.6719 195.828 34.6719C196.391 34.6719 196.958 34.5573 197.531 34.3281C198.115 34.099 198.625 33.7969 199.062 33.4219ZM199.062 36.1406C198.76 36.3698 198.385 36.6458 197.938 36.9688C197.49 37.2917 197.068 37.5469 196.672 37.7344C196.12 37.9844 195.547 38.1667 194.953 38.2812C194.359 38.4062 193.708 38.4688 193 38.4688C191.333 38.4688 189.938 37.9531 188.812 36.9219C187.688 35.8906 187.125 34.5729 187.125 32.9688C187.125 31.6875 187.411 30.6406 187.984 29.8281C188.557 29.0156 189.37 28.375 190.422 27.9062C191.464 27.4375 192.755 27.1042 194.297 26.9062C195.839 26.7083 197.438 26.5625 199.094 26.4688V26.375C199.094 25.4062 198.698 24.7396 197.906 24.375C197.115 24 195.948 23.8125 194.406 23.8125C193.479 23.8125 192.49 23.9792 191.438 24.3125C190.385 24.6354 189.63 24.8854 189.172 25.0625H188.656V20.8281C189.25 20.6719 190.214 20.4896 191.547 20.2812C192.891 20.0625 194.234 19.9531 195.578 19.9531C198.776 19.9531 201.083 20.4479 202.5 21.4375C203.927 22.4167 204.641 23.9583 204.641 26.0625V38H199.062V36.1406ZM215.438 38H209.812V20.4531H215.438V38ZM215.594 17.9531H209.656V13.6875H215.594V17.9531ZM238.375 38H232.719V29.2969C232.719 28.5885 232.682 27.8854 232.609 27.1875C232.536 26.4792 232.411 25.9583 232.234 25.625C232.026 25.2396 231.719 24.9583 231.312 24.7812C230.917 24.6042 230.359 24.5156 229.641 24.5156C229.13 24.5156 228.609 24.599 228.078 24.7656C227.557 24.9323 226.99 25.1979 226.375 25.5625V38H220.75V20.4531H226.375V22.3906C227.375 21.6094 228.333 21.0104 229.25 20.5938C230.177 20.1771 231.203 19.9688 232.328 19.9688C234.224 19.9688 235.703 20.5208 236.766 21.625C237.839 22.7292 238.375 24.3802 238.375 26.5781V38ZM254.781 37.8438C254.177 38 253.536 38.1198 252.859 38.2031C252.182 38.2969 251.354 38.3438 250.375 38.3438C248.188 38.3438 246.557 37.901 245.484 37.0156C244.422 36.1302 243.891 34.6146 243.891 32.4688V24.2656H241.578V20.4531H243.891V15.4375H249.516V20.4531H254.781V24.2656H249.516V30.4844C249.516 31.099 249.521 31.6354 249.531 32.0938C249.542 32.5521 249.625 32.9635 249.781 33.3281C249.927 33.6927 250.182 33.9844 250.547 34.2031C250.922 34.4115 251.464 34.5156 252.172 34.5156C252.464 34.5156 252.844 34.4531 253.312 34.3281C253.792 34.2031 254.125 34.0885 254.312 33.9844H254.781V37.8438ZM275.438 30.2656H262.562C262.646 31.6406 263.167 32.6927 264.125 33.4219C265.094 34.151 266.516 34.5156 268.391 34.5156C269.578 34.5156 270.729 34.3021 271.844 33.875C272.958 33.4479 273.839 32.9896 274.484 32.5H275.109V37.0156C273.839 37.526 272.641 37.8958 271.516 38.125C270.391 38.3542 269.146 38.4688 267.781 38.4688C264.26 38.4688 261.562 37.6771 259.688 36.0938C257.812 34.5104 256.875 32.2552 256.875 29.3281C256.875 26.4323 257.76 24.1406 259.531 22.4531C261.312 20.7552 263.75 19.9062 266.844 19.9062C269.698 19.9062 271.844 20.6302 273.281 22.0781C274.719 23.5156 275.438 25.5885 275.438 28.2969V30.2656ZM269.844 26.9688C269.812 25.7917 269.521 24.9062 268.969 24.3125C268.417 23.7188 267.557 23.4219 266.391 23.4219C265.307 23.4219 264.417 23.7031 263.719 24.2656C263.021 24.8281 262.63 25.7292 262.547 26.9688H269.844ZM297.031 38H291.375V29.2969C291.375 28.5885 291.339 27.8854 291.266 27.1875C291.193 26.4792 291.068 25.9583 290.891 25.625C290.682 25.2396 290.375 24.9583 289.969 24.7812C289.573 24.6042 289.016 24.5156 288.297 24.5156C287.786 24.5156 287.266 24.599 286.734 24.7656C286.214 24.9323 285.646 25.1979 285.031 25.5625V38H279.406V20.4531H285.031V22.3906C286.031 21.6094 286.99 21.0104 287.906 20.5938C288.833 20.1771 289.859 19.9688 290.984 19.9688C292.88 19.9688 294.359 20.5208 295.422 21.625C296.495 22.7292 297.031 24.3802 297.031 26.5781V38ZM312.844 33.4219V29.7656C312.083 29.8281 311.26 29.9167 310.375 30.0312C309.49 30.1354 308.818 30.2604 308.359 30.4062C307.797 30.5833 307.365 30.8438 307.062 31.1875C306.771 31.5208 306.625 31.9635 306.625 32.5156C306.625 32.8802 306.656 33.1771 306.719 33.4062C306.781 33.6354 306.938 33.8542 307.188 34.0625C307.427 34.2708 307.714 34.4271 308.047 34.5312C308.38 34.625 308.901 34.6719 309.609 34.6719C310.172 34.6719 310.74 34.5573 311.312 34.3281C311.896 34.099 312.406 33.7969 312.844 33.4219ZM312.844 36.1406C312.542 36.3698 312.167 36.6458 311.719 36.9688C311.271 37.2917 310.849 37.5469 310.453 37.7344C309.901 37.9844 309.328 38.1667 308.734 38.2812C308.141 38.4062 307.49 38.4688 306.781 38.4688C305.115 38.4688 303.719 37.9531 302.594 36.9219C301.469 35.8906 300.906 34.5729 300.906 32.9688C300.906 31.6875 301.193 30.6406 301.766 29.8281C302.339 29.0156 303.151 28.375 304.203 27.9062C305.245 27.4375 306.536 27.1042 308.078 26.9062C309.62 26.7083 311.219 26.5625 312.875 26.4688V26.375C312.875 25.4062 312.479 24.7396 311.688 24.375C310.896 24 309.729 23.8125 308.188 23.8125C307.26 23.8125 306.271 23.9792 305.219 24.3125C304.167 24.6354 303.411 24.8854 302.953 25.0625H302.438V20.8281C303.031 20.6719 303.995 20.4896 305.328 20.2812C306.672 20.0625 308.016 19.9531 309.359 19.9531C312.557 19.9531 314.865 20.4479 316.281 21.4375C317.708 22.4167 318.422 23.9583 318.422 26.0625V38H312.844V36.1406ZM341.219 38H335.562V29.2969C335.562 28.5885 335.526 27.8854 335.453 27.1875C335.38 26.4792 335.255 25.9583 335.078 25.625C334.87 25.2396 334.562 24.9583 334.156 24.7812C333.76 24.6042 333.203 24.5156 332.484 24.5156C331.974 24.5156 331.453 24.599 330.922 24.7656C330.401 24.9323 329.833 25.1979 329.219 25.5625V38H323.594V20.4531H329.219V22.3906C330.219 21.6094 331.177 21.0104 332.094 20.5938C333.021 20.1771 334.047 19.9688 335.172 19.9688C337.068 19.9688 338.547 20.5208 339.609 21.625C340.682 22.7292 341.219 24.3802 341.219 26.5781V38ZM355.547 38.4688C354.016 38.4688 352.615 38.2865 351.344 37.9219C350.083 37.5573 348.984 36.9948 348.047 36.2344C347.12 35.474 346.401 34.5156 345.891 33.3594C345.38 32.2031 345.125 30.849 345.125 29.2969C345.125 27.6615 345.396 26.25 345.938 25.0625C346.49 23.875 347.255 22.8906 348.234 22.1094C349.182 21.3698 350.276 20.8281 351.516 20.4844C352.755 20.1406 354.042 19.9688 355.375 19.9688C356.573 19.9688 357.677 20.099 358.688 20.3594C359.698 20.6198 360.641 20.9583 361.516 21.375V26.1719H360.719C360.5 25.9844 360.234 25.7656 359.922 25.5156C359.62 25.2656 359.245 25.0208 358.797 24.7812C358.37 24.5521 357.901 24.3646 357.391 24.2188C356.88 24.0625 356.286 23.9844 355.609 23.9844C354.109 23.9844 352.953 24.4635 352.141 25.4219C351.339 26.3698 350.938 27.6615 350.938 29.2969C350.938 30.9844 351.349 32.2656 352.172 33.1406C353.005 34.0156 354.182 34.4531 355.703 34.4531C356.411 34.4531 357.047 34.375 357.609 34.2188C358.182 34.0521 358.656 33.8594 359.031 33.6406C359.385 33.4323 359.698 33.2135 359.969 32.9844C360.24 32.7552 360.49 32.5312 360.719 32.3125H361.516V37.1094C360.63 37.526 359.703 37.8542 358.734 38.0938C357.776 38.3438 356.714 38.4688 355.547 38.4688ZM382.531 30.2656H369.656C369.74 31.6406 370.26 32.6927 371.219 33.4219C372.188 34.151 373.609 34.5156 375.484 34.5156C376.672 34.5156 377.823 34.3021 378.938 33.875C380.052 33.4479 380.932 32.9896 381.578 32.5H382.203V37.0156C380.932 37.526 379.734 37.8958 378.609 38.125C377.484 38.3542 376.24 38.4688 374.875 38.4688C371.354 38.4688 368.656 37.6771 366.781 36.0938C364.906 34.5104 363.969 32.2552 363.969 29.3281C363.969 26.4323 364.854 24.1406 366.625 22.4531C368.406 20.7552 370.844 19.9062 373.938 19.9062C376.792 19.9062 378.938 20.6302 380.375 22.0781C381.812 23.5156 382.531 25.5885 382.531 28.2969V30.2656ZM376.938 26.9688C376.906 25.7917 376.615 24.9062 376.062 24.3125C375.51 23.7188 374.651 23.4219 373.484 23.4219C372.401 23.4219 371.51 23.7031 370.812 24.2656C370.115 24.8281 369.724 25.7292 369.641 26.9688H376.938Z" fill="#7E90FF"/>
<defs>
<linearGradient id="paint0_linear_648_56074" x1="59.846" y1="345.876" x2="383.988" y2="345.876" gradientUnits="userSpaceOnUse">
<stop offset="0.494" stop-color="#EBEFF2"/>
<stop offset="1" stop-color="white"/>
</linearGradient>
<linearGradient id="paint1_linear_648_56074" x1="252.714" y1="73.2032" x2="49.4107" y2="479.809" gradientUnits="userSpaceOnUse">
<stop offset="0.0036" stop-color="#8D9AE3"/>
<stop offset="1" stop-color="#71BAF6"/>
</linearGradient>
<linearGradient id="paint2_linear_648_56074" x1="139.227" y1="-43.9774" x2="174.301" y2="96.3198" gradientUnits="userSpaceOnUse">
<stop offset="0.0036" stop-color="#8DB1E3"/>
<stop offset="1" stop-color="#7190F6"/>
</linearGradient>
<linearGradient id="paint3_linear_648_56074" x1="201.168" y1="177.274" x2="144.251" y2="297.025" gradientUnits="userSpaceOnUse">
<stop stop-color="#444B8C"/>
<stop offset="0.9964" stop-color="#26264F"/>
</linearGradient>
<linearGradient id="paint4_linear_648_56074" x1="100.303" y1="347.415" x2="204.218" y2="347.415" gradientUnits="userSpaceOnUse">
<stop stop-color="#FFC444"/>
<stop offset="0.9964" stop-color="#F36F56"/>
</linearGradient>
<linearGradient id="paint5_linear_648_56074" x1="177.913" y1="332.055" x2="160.349" y2="380.464" gradientUnits="userSpaceOnUse">
<stop stop-color="#FFC444"/>
<stop offset="0.5917" stop-color="#F8924F"/>
<stop offset="0.9964" stop-color="#F36F56"/>
</linearGradient>
<linearGradient id="paint6_linear_648_56074" x1="159.769" y1="325.149" x2="141.164" y2="376.428" gradientUnits="userSpaceOnUse">
<stop stop-color="#FFC444"/>
<stop offset="0.5917" stop-color="#F8924F"/>
<stop offset="0.9964" stop-color="#F36F56"/>
</linearGradient>
<linearGradient id="paint7_linear_648_56074" x1="152.636" y1="248.131" x2="148.854" y2="371.267" gradientUnits="userSpaceOnUse">
<stop stop-color="#FFC444"/>
<stop offset="0.9964" stop-color="#F36F56"/>
</linearGradient>
<linearGradient id="paint8_linear_648_56074" x1="119.538" y1="310.142" x2="159.223" y2="310.142" gradientUnits="userSpaceOnUse">
<stop stop-color="#FFC444"/>
<stop offset="0.9964" stop-color="#F36F56"/>
</linearGradient>
<linearGradient id="paint9_linear_648_56074" x1="338.321" y1="107.804" x2="238.461" y2="283.065" gradientUnits="userSpaceOnUse">
<stop stop-color="#311944"/>
<stop offset="1" stop-color="#893976"/>
</linearGradient>
<linearGradient id="paint10_linear_648_56074" x1="339.982" y1="108.794" x2="241.678" y2="281.324" gradientUnits="userSpaceOnUse">
<stop stop-color="#FFDA85"/>
<stop offset="1" stop-color="#FBD16F"/>
</linearGradient>
<linearGradient id="paint11_linear_648_56074" x1="274.5" y1="56.6848" x2="199.199" y2="188.843" gradientUnits="userSpaceOnUse">
<stop stop-color="#311944"/>
<stop offset="1" stop-color="#893976"/>
</linearGradient>
<linearGradient id="paint12_linear_648_56074" x1="275.752" y1="57.4314" x2="201.625" y2="187.53" gradientUnits="userSpaceOnUse">
<stop stop-color="#FFD285"/>
<stop offset="1" stop-color="#FBD36F"/>
</linearGradient>
<clipPath id="clip0_648_56074">
<rect width="332.258" height="287" fill="white" transform="translate(52 83)"/>
</clipPath>
</defs>
</svg>
