<svg width="20" height="20" viewBox="0 0 20 20" fill="none" xmlns="http://www.w3.org/2000/svg">
<mask id="mask0_22124_59399" style="mask-type:alpha" maskUnits="userSpaceOnUse" x="0" y="0" width="20" height="20">
<rect width="20" height="20" fill="#D9D9D9"/>
</mask>
<g mask="url(#mask0_22124_59399)">
<path d="M1.45875 10.8748C1.29208 10.7081 1.21222 10.5137 1.21917 10.2914C1.22611 10.0692 1.31292 9.87477 1.47958 9.7081C1.64625 9.55532 1.84069 9.47546 2.06292 9.46852C2.28514 9.46157 2.47958 9.54143 2.64625 9.7081L6.18792 13.2498C6.35458 13.4164 6.43444 13.6109 6.4275 13.8331C6.42056 14.0553 6.33375 14.2498 6.16708 14.4164C6.00042 14.5692 5.80597 14.6491 5.58375 14.656C5.36153 14.663 5.16708 14.5831 5.00042 14.4164L1.45875 10.8748ZM10.2921 12.6456L17.3754 5.56227C17.5421 5.3956 17.7365 5.31574 17.9587 5.32268C18.181 5.32963 18.3754 5.41643 18.5421 5.5831C18.6949 5.74977 18.7747 5.94421 18.7817 6.16643C18.7886 6.38865 18.7087 6.5831 18.5421 6.74977L10.8754 14.4164C10.7087 14.5831 10.5143 14.6664 10.2921 14.6664C10.0699 14.6664 9.87542 14.5831 9.70875 14.4164L6.16708 10.8748C6.01431 10.722 5.93792 10.531 5.93792 10.3018C5.93792 10.0727 6.01431 9.87477 6.16708 9.7081C6.33375 9.54143 6.53167 9.4581 6.76083 9.4581C6.99 9.4581 7.18792 9.54143 7.35458 9.7081L10.2921 12.6456ZM13.8129 6.7706L10.8754 9.7081C10.7226 9.86088 10.5317 9.93727 10.3025 9.93727C10.0733 9.93727 9.87542 9.86088 9.70875 9.7081C9.54208 9.54143 9.45875 9.34352 9.45875 9.11435C9.45875 8.88518 9.54208 8.68727 9.70875 8.5206L12.6462 5.5831C12.799 5.43032 12.99 5.35393 13.2192 5.35393C13.4483 5.35393 13.6463 5.43032 13.8129 5.5831C13.9796 5.74977 14.0629 5.94768 14.0629 6.17685C14.0629 6.40602 13.9796 6.60393 13.8129 6.7706Z" fill="#319300"/>
</g>
</svg>
