<svg width="21" height="21" viewBox="0 0 21 21" fill="none" xmlns="http://www.w3.org/2000/svg">
<g id="done_all">
<mask id="mask0_18568_93274" style="mask-type:alpha" maskUnits="userSpaceOnUse" x="0" y="0" width="21" height="21">
<rect id="Bounding box" x="0.5" y="0.132812" width="20" height="20" fill="#D9D9D9"/>
</mask>
<g mask="url(#mask0_18568_93274)">
<path id="done_all_2" d="M1.95875 11.0076C1.79208 10.8409 1.71222 10.6465 1.71917 10.4242C1.72611 10.202 1.81292 10.0076 1.97958 9.84091C2.14625 9.68813 2.34069 9.60827 2.56292 9.60133C2.78514 9.59438 2.97958 9.67424 3.14625 9.84091L6.68792 13.3826C6.85458 13.5492 6.93444 13.7437 6.9275 13.9659C6.92056 14.1881 6.83375 14.3826 6.66708 14.5492C6.50042 14.702 6.30597 14.7819 6.08375 14.7888C5.86153 14.7958 5.66708 14.7159 5.50042 14.5492L1.95875 11.0076ZM10.7921 12.7784L17.8754 5.69508C18.0421 5.52841 18.2365 5.44855 18.4587 5.45549C18.681 5.46244 18.8754 5.54924 19.0421 5.71591C19.1949 5.88258 19.2747 6.07702 19.2817 6.29924C19.2886 6.52147 19.2087 6.71591 19.0421 6.88258L11.3754 14.5492C11.2087 14.7159 11.0143 14.7992 10.7921 14.7992C10.5699 14.7992 10.3754 14.7159 10.2087 14.5492L6.66708 11.0076C6.51431 10.8548 6.43792 10.6638 6.43792 10.4347C6.43792 10.2055 6.51431 10.0076 6.66708 9.84091C6.83375 9.67424 7.03167 9.59091 7.26083 9.59091C7.49 9.59091 7.68792 9.67424 7.85458 9.84091L10.7921 12.7784ZM14.3129 6.90341L11.3754 9.84091C11.2226 9.99369 11.0317 10.0701 10.8025 10.0701C10.5733 10.0701 10.3754 9.99369 10.2087 9.84091C10.0421 9.67424 9.95875 9.47633 9.95875 9.24716C9.95875 9.018 10.0421 8.82008 10.2087 8.65341L13.1462 5.71591C13.299 5.56313 13.49 5.48674 13.7192 5.48674C13.9483 5.48674 14.1463 5.56313 14.3129 5.71591C14.4796 5.88258 14.5629 6.08049 14.5629 6.30966C14.5629 6.53883 14.4796 6.73674 14.3129 6.90341Z" fill="white"/>
</g>
</g>
</svg>
