<svg width="20" height="20" viewBox="0 0 20 20" fill="none" xmlns="http://www.w3.org/2000/svg">
<path fill-rule="evenodd" clip-rule="evenodd" d="M9.99919 17.0837C9.99919 16.6234 10.3469 16.2503 10.7759 16.2503H16.9892C17.4181 16.2503 17.7659 16.6234 17.7659 17.0837C17.7659 17.5439 17.4181 17.917 16.9892 17.917H10.7759C10.3469 17.917 9.99919 17.5439 9.99919 17.0837Z" fill="white"/>
<path d="M16.0538 6.74776L17.1586 5.64346C17.9722 4.82986 17.9723 3.5107 17.1587 2.69711C16.3451 1.88351 15.026 1.88352 14.2124 2.69711L13.1075 3.80148L16.0538 6.74776Z" fill="white"/>
<path d="M11.9287 4.9797L4.45987 12.4449C3.7932 13.1116 3.41681 13.4879 3.12386 13.9233C2.86402 14.3094 2.65503 14.7273 2.50205 15.1669C2.29155 15.7717 2.20774 16.4251 2.13153 17.0193C2.11267 17.1663 2.09424 17.31 2.07451 17.4482C2.05498 17.5849 2.10445 17.7224 2.2066 17.8153C2.30875 17.9082 2.45031 17.9445 2.58457 17.9122C2.75749 17.8705 2.93875 17.8306 3.125 17.7896C3.72808 17.6567 4.38358 17.5124 4.97858 17.2601C5.34398 17.1051 5.69124 16.9104 6.01411 16.6796C6.37795 16.4195 6.69696 16.1004 7.26192 15.5354L14.875 7.92599L11.9287 4.9797Z" fill="white"/>
</svg>
