<svg width="20" height="20" viewBox="0 0 20 20" fill="none" xmlns="http://www.w3.org/2000/svg">
<g id="skip_next">
<mask id="mask0_6176_56966" style="mask-type:alpha" maskUnits="userSpaceOnUse" x="0" y="0" width="20" height="20">
<rect id="Bounding box" width="20" height="20" fill="#D9D9D9"/>
</mask>
<g mask="url(#mask0_6176_56966)">
<path id="skip_next_2" d="M13.7497 14.1667V5.83333C13.7497 5.59722 13.8295 5.39931 13.9893 5.23958C14.149 5.07986 14.3469 5 14.583 5C14.8191 5 15.017 5.07986 15.1768 5.23958C15.3365 5.39931 15.4163 5.59722 15.4163 5.83333V14.1667C15.4163 14.4028 15.3365 14.6007 15.1768 14.7604C15.017 14.9201 14.8191 15 14.583 15C14.3469 15 14.149 14.9201 13.9893 14.7604C13.8295 14.6007 13.7497 14.4028 13.7497 14.1667ZM4.58301 13.4375V6.5625C4.58301 6.3125 4.66634 6.11111 4.83301 5.95833C4.99967 5.80556 5.19412 5.72917 5.41634 5.72917C5.48579 5.72917 5.56217 5.73611 5.64551 5.75C5.72884 5.76389 5.80523 5.79861 5.87467 5.85417L11.0413 9.3125C11.1663 9.39583 11.2601 9.49653 11.3226 9.61458C11.3851 9.73264 11.4163 9.86111 11.4163 10C11.4163 10.1389 11.3851 10.2674 11.3226 10.3854C11.2601 10.5035 11.1663 10.6042 11.0413 10.6875L5.87467 14.1458C5.80523 14.2014 5.72884 14.2361 5.64551 14.25C5.56217 14.2639 5.48579 14.2708 5.41634 14.2708C5.19412 14.2708 4.99967 14.1944 4.83301 14.0417C4.66634 13.8889 4.58301 13.6875 4.58301 13.4375ZM6.24967 11.875L9.08301 10L6.24967 8.125V11.875Z" fill="#4B4B4B"/>
</g>
</g>
</svg>
