<svg width="20" height="20" viewBox="0 0 20 20" fill="none" xmlns="http://www.w3.org/2000/svg">
<mask id="mask0_19092_98096" style="mask-type:alpha" maskUnits="userSpaceOnUse" x="0" y="0" width="20" height="20">
<rect width="20" height="20" fill="#D9D9D9"/>
</mask>
<g mask="url(#mask0_19092_98096)">
<path d="M5.83398 15C4.4451 15 3.26454 14.5139 2.29232 13.5417C1.3201 12.5694 0.833984 11.3889 0.833984 10C0.833984 8.61111 1.3201 7.43056 2.29232 6.45833C3.26454 5.48611 4.4451 5 5.83398 5H14.1673C15.5562 5 16.7368 5.48611 17.709 6.45833C18.6812 7.43056 19.1673 8.61111 19.1673 10C19.1673 11.3889 18.6812 12.5694 17.709 13.5417C16.7368 14.5139 15.5562 15 14.1673 15H5.83398ZM5.83398 13.3333H14.1673C15.084 13.3333 15.8687 13.0069 16.5215 12.3542C17.1743 11.7014 17.5007 10.9167 17.5007 10C17.5007 9.08333 17.1743 8.29861 16.5215 7.64583C15.8687 6.99306 15.084 6.66667 14.1673 6.66667H5.83398C4.91732 6.66667 4.1326 6.99306 3.47982 7.64583C2.82704 8.29861 2.50065 9.08333 2.50065 10C2.50065 10.9167 2.82704 11.7014 3.47982 12.3542C4.1326 13.0069 4.91732 13.3333 5.83398 13.3333ZM5.83398 12.5C6.52843 12.5 7.11871 12.2569 7.60482 11.7708C8.09093 11.2847 8.33398 10.6944 8.33398 10C8.33398 9.30556 8.09093 8.71528 7.60482 8.22917C7.11871 7.74306 6.52843 7.5 5.83398 7.5C5.13954 7.5 4.54926 7.74306 4.06315 8.22917C3.57704 8.71528 3.33398 9.30556 3.33398 10C3.33398 10.6944 3.57704 11.2847 4.06315 11.7708C4.54926 12.2569 5.13954 12.5 5.83398 12.5Z" fill="white"/>
</g>
</svg>
