<svg width="20" height="10" viewBox="0 0 20 10" fill="none" xmlns="http://www.w3.org/2000/svg">
<path d="M5.8335 10C4.44461 10 3.26405 9.51389 2.29183 8.54167C1.31961 7.56944 0.833496 6.38889 0.833496 5C0.833496 3.61111 1.31961 2.43056 2.29183 1.45833C3.26405 0.486111 4.44461 0 5.8335 0H14.1668C15.5557 0 16.7363 0.486111 17.7085 1.45833C18.6807 2.43056 19.1668 3.61111 19.1668 5C19.1668 6.38889 18.6807 7.56944 17.7085 8.54167C16.7363 9.51389 15.5557 10 14.1668 10H5.8335ZM5.8335 8.33333H14.1668C15.0835 8.33333 15.8682 8.00694 16.521 7.35417C17.1738 6.70139 17.5002 5.91667 17.5002 5C17.5002 4.08333 17.1738 3.29861 16.521 2.64583C15.8682 1.99306 15.0835 1.66667 14.1668 1.66667H5.8335C4.91683 1.66667 4.13211 1.99306 3.47933 2.64583C2.82655 3.29861 2.50016 4.08333 2.50016 5C2.50016 5.91667 2.82655 6.70139 3.47933 7.35417C4.13211 8.00694 4.91683 8.33333 5.8335 8.33333ZM14.1668 7.5C14.8613 7.5 15.4516 7.25694 15.9377 6.77083C16.4238 6.28472 16.6668 5.69444 16.6668 5C16.6668 4.30556 16.4238 3.71528 15.9377 3.22917C15.4516 2.74306 14.8613 2.5 14.1668 2.5C13.4724 2.5 12.8821 2.74306 12.396 3.22917C11.9099 3.71528 11.6668 4.30556 11.6668 5C11.6668 5.69444 11.9099 6.28472 12.396 6.77083C12.8821 7.25694 13.4724 7.5 14.1668 7.5Z" fill="white"/>
</svg>
