<svg width="20" height="20" viewBox="0 0 20 20" fill="none" xmlns="http://www.w3.org/2000/svg">
<g id="skip_previous">
<mask id="mask0_6176_56942" style="mask-type:alpha" maskUnits="userSpaceOnUse" x="0" y="0" width="20" height="20">
<rect id="Bounding box" width="20" height="20" fill="#D9D9D9"/>
</mask>
<g mask="url(#mask0_6176_56942)">
<path id="skip_previous_2" d="M4.58301 14.1667V5.83333C4.58301 5.59722 4.66287 5.39931 4.82259 5.23958C4.98231 5.07986 5.18023 5 5.41634 5C5.65245 5 5.85037 5.07986 6.01009 5.23958C6.16981 5.39931 6.24967 5.59722 6.24967 5.83333V14.1667C6.24967 14.4028 6.16981 14.6007 6.01009 14.7604C5.85037 14.9201 5.65245 15 5.41634 15C5.18023 15 4.98231 14.9201 4.82259 14.7604C4.66287 14.6007 4.58301 14.4028 4.58301 14.1667ZM14.1247 14.1458L8.95801 10.6875C8.83301 10.6042 8.73926 10.5035 8.67676 10.3854C8.61426 10.2674 8.58301 10.1389 8.58301 10C8.58301 9.86111 8.61426 9.73264 8.67676 9.61458C8.73926 9.49653 8.83301 9.39583 8.95801 9.3125L14.1247 5.85417C14.1941 5.79861 14.2705 5.76389 14.3538 5.75C14.4372 5.73611 14.5136 5.72917 14.583 5.72917C14.8052 5.72917 14.9997 5.80556 15.1663 5.95833C15.333 6.11111 15.4163 6.3125 15.4163 6.5625V13.4375C15.4163 13.6875 15.333 13.8889 15.1663 14.0417C14.9997 14.1944 14.8052 14.2708 14.583 14.2708C14.5136 14.2708 14.4372 14.2639 14.3538 14.25C14.2705 14.2361 14.1941 14.2014 14.1247 14.1458ZM13.7497 11.875V8.125L10.9163 10L13.7497 11.875Z" fill="#4B4B4B"/>
</g>
</g>
</svg>
