<svg width="82" height="82" viewBox="0 0 82 82" fill="none" xmlns="http://www.w3.org/2000/svg">
<path d="M1.21409 72.1246C0.687183 70.854 0.319291 69.5008 0.135237 68.0898L0.631036 68.0251C0.544611 67.3625 0.5 66.6866 0.5 66V63.9167H0V59.75H0.5V55.5833H0V51.4167H0.5V47.25H0V43.0833H0.5V38.9167H0V34.75H0.5V30.5833H0V26.4167H0.5V22.25H0V18.0833H0.5V16C0.5 15.3134 0.544611 14.6375 0.631036 13.9749L0.135236 13.9103C0.31929 12.4992 0.687182 11.146 1.21409 9.87539L1.67595 10.0669C2.19839 8.80708 2.88232 7.63086 3.70207 6.56412L3.30561 6.25945C4.15737 5.15105 5.15105 4.15737 6.25945 3.30561L6.56412 3.70207C7.63086 2.88232 8.80708 2.19839 10.0669 1.67595L9.87539 1.21409C11.146 0.687182 12.4992 0.319291 13.9103 0.135237L13.9749 0.631036C14.6375 0.544611 15.3134 0.5 16 0.5H18.0833V0H22.25V0.5H26.4167V0H30.5833V0.5H34.75V0H38.9167V0.5H43.0833V0H47.25V0.5H51.4167V0H55.5833V0.5H59.75V0H63.9167V0.5H66C66.6866 0.5 67.3625 0.544611 68.0251 0.631036L68.0897 0.135237C69.5008 0.31929 70.854 0.687182 72.1246 1.21409L71.9331 1.67595C73.1929 2.19839 74.3691 2.88232 75.4359 3.70207L75.7405 3.30561C76.849 4.15737 77.8426 5.15105 78.6944 6.25945L78.2979 6.56412C79.1177 7.63086 79.8016 8.80708 80.3241 10.0669L80.7859 9.87539C81.3128 11.146 81.6807 12.4992 81.8648 13.9103L81.369 13.9749C81.4554 14.6375 81.5 15.3134 81.5 16V18.0833H82V22.25H81.5V26.4167H82V30.5833H81.5V34.75H82V38.9167H81.5V43.0833H82V47.25H81.5V51.4167H82V55.5833H81.5V59.75H82V63.9167H81.5V66C81.5 66.6866 81.4554 67.3625 81.369 68.0251L81.8648 68.0897C81.6807 69.5008 81.3128 70.854 80.7859 72.1246L80.3241 71.9331C79.8016 73.1929 79.1177 74.3691 78.2979 75.4359L78.6944 75.7405C77.8426 76.8489 76.849 77.8426 75.7405 78.6944L75.4359 78.2979C74.3691 79.1177 73.1929 79.8016 71.9331 80.3241L72.1246 80.7859C70.854 81.3128 69.5008 81.6807 68.0897 81.8648L68.0251 81.369C67.3625 81.4554 66.6866 81.5 66 81.5H63.9167V82H59.75V81.5H55.5833V82H51.4167V81.5H47.25V82H43.0833V81.5H38.9167V82H34.75V81.5H30.5833V82H26.4167V81.5H22.25V82H18.0833V81.5H16C15.3134 81.5 14.6375 81.4554 13.9749 81.369L13.9103 81.8648C12.4992 81.6807 11.146 81.3128 9.87539 80.7859L10.0669 80.3241C8.80708 79.8016 7.63086 79.1177 6.56412 78.2979L6.25946 78.6944C5.15105 77.8426 4.15738 76.849 3.30561 75.7405L3.70207 75.4359C2.88232 74.3691 2.19839 73.1929 1.67595 71.9331L1.21409 72.1246Z" fill="#F7F7F7"/>
<path d="M1.21409 72.1246C0.687183 70.854 0.319291 69.5008 0.135237 68.0898L0.631036 68.0251C0.544611 67.3625 0.5 66.6866 0.5 66V63.9167H0V59.75H0.5V55.5833H0V51.4167H0.5V47.25H0V43.0833H0.5V38.9167H0V34.75H0.5V30.5833H0V26.4167H0.5V22.25H0V18.0833H0.5V16C0.5 15.3134 0.544611 14.6375 0.631036 13.9749L0.135236 13.9103C0.31929 12.4992 0.687182 11.146 1.21409 9.87539L1.67595 10.0669C2.19839 8.80708 2.88232 7.63086 3.70207 6.56412L3.30561 6.25945C4.15737 5.15105 5.15105 4.15737 6.25945 3.30561L6.56412 3.70207C7.63086 2.88232 8.80708 2.19839 10.0669 1.67595L9.87539 1.21409C11.146 0.687182 12.4992 0.319291 13.9103 0.135237L13.9749 0.631036C14.6375 0.544611 15.3134 0.5 16 0.5H18.0833V0H22.25V0.5H26.4167V0H30.5833V0.5H34.75V0H38.9167V0.5H43.0833V0H47.25V0.5H51.4167V0H55.5833V0.5H59.75V0H63.9167V0.5H66C66.6866 0.5 67.3625 0.544611 68.0251 0.631036L68.0897 0.135237C69.5008 0.31929 70.854 0.687182 72.1246 1.21409L71.9331 1.67595C73.1929 2.19839 74.3691 2.88232 75.4359 3.70207L75.7405 3.30561C76.849 4.15737 77.8426 5.15105 78.6944 6.25945L78.2979 6.56412C79.1177 7.63086 79.8016 8.80708 80.3241 10.0669L80.7859 9.87539C81.3128 11.146 81.6807 12.4992 81.8648 13.9103L81.369 13.9749C81.4554 14.6375 81.5 15.3134 81.5 16V18.0833H82V22.25H81.5V26.4167H82V30.5833H81.5V34.75H82V38.9167H81.5V43.0833H82V47.25H81.5V51.4167H82V55.5833H81.5V59.75H82V63.9167H81.5V66C81.5 66.6866 81.4554 67.3625 81.369 68.0251L81.8648 68.0897C81.6807 69.5008 81.3128 70.854 80.7859 72.1246L80.3241 71.9331C79.8016 73.1929 79.1177 74.3691 78.2979 75.4359L78.6944 75.7405C77.8426 76.8489 76.849 77.8426 75.7405 78.6944L75.4359 78.2979C74.3691 79.1177 73.1929 79.8016 71.9331 80.3241L72.1246 80.7859C70.854 81.3128 69.5008 81.6807 68.0897 81.8648L68.0251 81.369C67.3625 81.4554 66.6866 81.5 66 81.5H63.9167V82H59.75V81.5H55.5833V82H51.4167V81.5H47.25V82H43.0833V81.5H38.9167V82H34.75V81.5H30.5833V82H26.4167V81.5H22.25V82H18.0833V81.5H16C15.3134 81.5 14.6375 81.4554 13.9749 81.369L13.9103 81.8648C12.4992 81.6807 11.146 81.3128 9.87539 80.7859L10.0669 80.3241C8.80708 79.8016 7.63086 79.1177 6.56412 78.2979L6.25946 78.6944C5.15105 77.8426 4.15738 76.849 3.30561 75.7405L3.70207 75.4359C2.88232 74.3691 2.19839 73.1929 1.67595 71.9331L1.21409 72.1246Z" stroke="#C3DAFB" stroke-dasharray="4 4"/>
<path d="M49 37V29" stroke="#275EE2" stroke-width="1.5" stroke-linecap="round" stroke-linejoin="round"/>
<path d="M53 33H45" stroke="#275EE2" stroke-width="1.5" stroke-linecap="round" stroke-linejoin="round"/>
<path d="M39.6673 30.333H33.534C32.4139 30.333 31.8538 30.333 31.426 30.551C31.0497 30.7427 30.7437 31.0487 30.552 31.425C30.334 31.8529 30.334 32.4129 30.334 33.533V48.4663C30.334 49.5864 30.334 50.1465 30.552 50.5743C30.7437 50.9506 31.0497 51.2566 31.426 51.4484C31.8538 51.6663 32.4139 51.6663 33.534 51.6663H48.4673C49.5874 51.6663 50.1475 51.6663 50.5753 51.4484C50.9516 51.2566 51.2576 50.9506 51.4493 50.5743C51.6673 50.1465 51.6673 49.5864 51.6673 48.4663V42.333" stroke="#275EE2" stroke-width="1.5" stroke-linecap="round" stroke-linejoin="round"/>
<path d="M49.3596 51.6027L41.0387 43.2889C40.2461 42.4971 39.8499 42.1012 39.3931 41.953C38.9913 41.8227 38.5585 41.8229 38.1568 41.9537C37.7002 42.1023 37.3044 42.4987 36.5127 43.2914L30.4355 49.3764" stroke="#275EE2" stroke-width="1.5" stroke-linecap="round" stroke-linejoin="round"/>
<path d="M44.0137 46.2537L45.2406 45.0354C46.0418 44.2399 46.4425 43.8421 46.9027 43.6958C47.3075 43.567 47.7428 43.5705 48.1455 43.7057C48.6033 43.8594 48.9975 44.2635 49.7859 45.0717L51.6672 47.0003" stroke="#275EE2" stroke-width="1.5" stroke-linecap="round" stroke-linejoin="round"/>
</svg>
