<svg width="20" height="20" viewBox="0 0 20 20" fill="none" xmlns="http://www.w3.org/2000/svg">
<g id="Frame">
<path id="Vector" d="M9.16667 13.333L5 17.4997" stroke="white" stroke-width="1.5" stroke-linecap="round" stroke-linejoin="round"/>
<path id="Vector_2" d="M9.16667 17.5H4.16667C3.72464 17.5 3.30072 17.3244 2.98816 17.0118C2.67559 16.6993 2.5 16.2754 2.5 15.8333V4.16667C2.5 3.72464 2.67559 3.30072 2.98816 2.98816C3.30072 2.67559 3.72464 2.5 4.16667 2.5H15.8333C16.2754 2.5 16.6993 2.67559 17.0118 2.98816C17.3244 3.30072 17.5 3.72464 17.5 4.16667V9.58333" stroke="white" stroke-width="1.5" stroke-linecap="round" stroke-linejoin="round"/>
<path id="Vector_3" d="M13.1375 18.3334C13.0744 18.3728 13.002 18.3946 12.9276 18.3966C12.8533 18.3985 12.7797 18.3806 12.7147 18.3445C12.6496 18.3084 12.5954 18.2556 12.5577 18.1916C12.5199 18.1275 12.5 18.0544 12.5 17.9801V11.1501C12.5 11.0757 12.5199 11.0027 12.5577 10.9386C12.5954 10.8745 12.6496 10.8217 12.7147 10.7856C12.7797 10.7496 12.8533 10.7316 12.9276 10.7335C13.002 10.7355 13.0744 10.7573 13.1375 10.7967L18.0358 13.8584C18.1557 13.9333 18.2545 14.0375 18.323 14.1611C18.3916 14.2847 18.4275 14.4237 18.4275 14.5651C18.4275 14.7064 18.3916 14.8454 18.323 14.969C18.2545 15.0927 18.1557 15.1968 18.0358 15.2717L13.1375 18.3334Z" stroke="white" stroke-width="1.5" stroke-linecap="round" stroke-linejoin="round"/>
<path id="Vector_4" d="M7.50016 9.16634C8.42064 9.16634 9.16683 8.42015 9.16683 7.49967C9.16683 6.5792 8.42064 5.83301 7.50016 5.83301C6.57969 5.83301 5.8335 6.5792 5.8335 7.49967C5.8335 8.42015 6.57969 9.16634 7.50016 9.16634Z" stroke="white" stroke-width="1.5" stroke-linecap="round" stroke-linejoin="round"/>
</g>
</svg>
