<svg width="20" height="20" viewBox="0 0 20 20" fill="none" xmlns="http://www.w3.org/2000/svg">
<g id="ad_units">
<mask id="mask0_18622_79144" style="mask-type:alpha" maskUnits="userSpaceOnUse" x="0" y="0" width="20" height="20">
<rect id="Bounding box" width="20" height="20" fill="#D9D9D9"/>
</mask>
<g mask="url(#mask0_18622_79144)">
<path id="ad_units_2" d="M7.49984 7.49967C7.26373 7.49967 7.06581 7.41981 6.90609 7.26009C6.74637 7.10037 6.6665 6.90245 6.6665 6.66634C6.6665 6.43023 6.74637 6.23231 6.90609 6.07259C7.06581 5.91287 7.26373 5.83301 7.49984 5.83301H12.4998C12.7359 5.83301 12.9339 5.91287 13.0936 6.07259C13.2533 6.23231 13.3332 6.43023 13.3332 6.66634C13.3332 6.90245 13.2533 7.10037 13.0936 7.26009C12.9339 7.41981 12.7359 7.49967 12.4998 7.49967H7.49984ZM5.83317 19.1663C5.37484 19.1663 4.98248 19.0031 4.65609 18.6768C4.3297 18.3504 4.1665 17.958 4.1665 17.4997V2.49967C4.1665 2.04134 4.3297 1.64898 4.65609 1.32259C4.98248 0.996202 5.37484 0.833008 5.83317 0.833008H14.1665C14.6248 0.833008 15.0172 0.996202 15.3436 1.32259C15.67 1.64898 15.8332 2.04134 15.8332 2.49967V17.4997C15.8332 17.958 15.67 18.3504 15.3436 18.6768C15.0172 19.0031 14.6248 19.1663 14.1665 19.1663H5.83317ZM5.83317 16.6663V17.4997H14.1665V16.6663H5.83317ZM5.83317 14.9997H14.1665V4.99967H5.83317V14.9997ZM5.83317 3.33301H14.1665V2.49967H5.83317V3.33301Z" fill="#275EE2"/>
</g>
</g>
</svg>
