<svg width="20" height="20" viewBox="0 0 20 20" fill="none" xmlns="http://www.w3.org/2000/svg">
<g id="laptop_windows">
<mask id="mask0_18622_79086" style="mask-type:alpha" maskUnits="userSpaceOnUse" x="0" y="0" width="20" height="20">
<rect id="Bounding box" width="20" height="20" fill="#D9D9D9"/>
</mask>
<g mask="url(#mask0_18622_79086)">
<path id="laptop_windows_2" d="M0.833333 16.6667C0.597222 16.6667 0.399306 16.5868 0.239583 16.4271C0.0798611 16.2674 0 16.0694 0 15.8333C0 15.5972 0.0798611 15.3993 0.239583 15.2396C0.399306 15.0799 0.597222 15 0.833333 15H3.33333V14.1667C2.875 14.1667 2.48264 14.0035 2.15625 13.6771C1.82986 13.3507 1.66667 12.9583 1.66667 12.5V4.16667C1.66667 3.70833 1.82986 3.31597 2.15625 2.98958C2.48264 2.66319 2.875 2.5 3.33333 2.5H16.6667C17.125 2.5 17.5174 2.66319 17.8438 2.98958C18.1701 3.31597 18.3333 3.70833 18.3333 4.16667V12.5C18.3333 12.9583 18.1701 13.3507 17.8438 13.6771C17.5174 14.0035 17.125 14.1667 16.6667 14.1667V15H19.1667C19.4028 15 19.6007 15.0799 19.7604 15.2396C19.9201 15.3993 20 15.5972 20 15.8333C20 16.0694 19.9201 16.2674 19.7604 16.4271C19.6007 16.5868 19.4028 16.6667 19.1667 16.6667H0.833333ZM3.33333 12.5H16.6667V4.16667H3.33333V12.5Z" fill="#275EE2"/>
</g>
</g>
</svg>
