<svg width="20" height="20" viewBox="0 0 20 20" fill="none" xmlns="http://www.w3.org/2000/svg">
<g id="tablet_android">
<mask id="mask0_18622_79090" style="mask-type:alpha" maskUnits="userSpaceOnUse" x="0" y="0" width="20" height="20">
<rect id="Bounding box" width="20" height="20" fill="#D9D9D9"/>
</mask>
<g mask="url(#mask0_18622_79090)">
<path id="tablet_android_2" d="M4.16667 19.1663C3.70833 19.1663 3.31597 19.0031 2.98958 18.6768C2.66319 18.3504 2.5 17.958 2.5 17.4997V2.49967C2.5 2.04134 2.66319 1.64898 2.98958 1.32259C3.31597 0.996202 3.70833 0.833008 4.16667 0.833008H15.8333C16.2917 0.833008 16.684 0.996202 17.0104 1.32259C17.3368 1.64898 17.5 2.04134 17.5 2.49967V17.4997C17.5 17.958 17.3368 18.3504 17.0104 18.6768C16.684 19.0031 16.2917 19.1663 15.8333 19.1663H4.16667ZM4.16667 14.9997V17.4997H15.8333V14.9997H4.16667ZM8.75 16.6663H11.25C11.3611 16.6663 11.4583 16.6247 11.5417 16.5413C11.625 16.458 11.6667 16.3608 11.6667 16.2497C11.6667 16.1386 11.625 16.0413 11.5417 15.958C11.4583 15.8747 11.3611 15.833 11.25 15.833H8.75C8.63889 15.833 8.54167 15.8747 8.45833 15.958C8.375 16.0413 8.33333 16.1386 8.33333 16.2497C8.33333 16.3608 8.375 16.458 8.45833 16.5413C8.54167 16.6247 8.63889 16.6663 8.75 16.6663ZM4.16667 13.333H15.8333V4.99967H4.16667V13.333ZM4.16667 3.33301H15.8333V2.49967H4.16667V3.33301Z" fill="#4B4B4B"/>
</g>
</g>
</svg>
