<svg width="20" height="20" viewBox="0 0 20 20" fill="none" xmlns="http://www.w3.org/2000/svg">
<mask id="mask0_19473_2731" style="mask-type:alpha" maskUnits="userSpaceOnUse" x="0" y="0" width="20" height="20">
<rect width="20" height="20" fill="#D9D9D9"/>
</mask>
<g mask="url(#mask0_19473_2731)">
<path d="M9.99992 10.8332C9.18047 10.8332 8.4895 10.5519 7.927 9.98942C7.3645 9.42692 7.08325 8.73595 7.08325 7.9165C7.08325 7.09706 7.3645 6.40609 7.927 5.84359C8.4895 5.28109 9.18047 4.99984 9.99992 4.99984C10.8194 4.99984 11.5103 5.28109 12.0728 5.84359C12.6353 6.40609 12.9166 7.09706 12.9166 7.9165C12.9166 8.73595 12.6353 9.42692 12.0728 9.98942C11.5103 10.5519 10.8194 10.8332 9.99992 10.8332ZM9.99992 9.1665C10.361 9.1665 10.6596 9.04845 10.8958 8.81234C11.1319 8.57623 11.2499 8.27762 11.2499 7.9165C11.2499 7.55539 11.1319 7.25678 10.8958 7.02067C10.6596 6.78456 10.361 6.6665 9.99992 6.6665C9.63881 6.6665 9.3402 6.78456 9.10409 7.02067C8.86797 7.25678 8.74992 7.55539 8.74992 7.9165C8.74992 8.27762 8.86797 8.57623 9.10409 8.81234C9.3402 9.04845 9.63881 9.1665 9.99992 9.1665ZM9.99992 3.43734L4.99992 5.31234V9.24984C4.99992 9.99984 5.10409 10.729 5.31242 11.4373C5.52075 12.1457 5.80547 12.8123 6.16659 13.4373C6.74992 13.1457 7.36103 12.9165 7.99992 12.7498C8.63881 12.5832 9.30547 12.4998 9.99992 12.4998C10.6944 12.4998 11.361 12.5832 11.9999 12.7498C12.6388 12.9165 13.2499 13.1457 13.8333 13.4373C14.1944 12.8123 14.4791 12.1457 14.6874 11.4373C14.8958 10.729 14.9999 9.99984 14.9999 9.24984V5.31234L9.99992 3.43734ZM9.99992 14.1665C9.49992 14.1665 9.01381 14.2221 8.54158 14.3332C8.06936 14.4443 7.61797 14.5971 7.18742 14.7915C7.5902 15.2082 8.0277 15.5693 8.49992 15.8748C8.97214 16.1804 9.47214 16.4165 9.99992 16.5832C10.5277 16.4165 11.0277 16.1804 11.4999 15.8748C11.9721 15.5693 12.4096 15.2082 12.8124 14.7915C12.3819 14.5971 11.9305 14.4443 11.4583 14.3332C10.986 14.2221 10.4999 14.1665 9.99992 14.1665ZM9.99992 18.2498C9.9027 18.2498 9.81242 18.2429 9.72909 18.229C9.64575 18.2151 9.56242 18.1943 9.47908 18.1665C7.60408 17.5415 6.11103 16.3853 4.99992 14.6978C3.88881 13.0103 3.33325 11.1943 3.33325 9.24984V5.31234C3.33325 4.96512 3.43395 4.65262 3.63534 4.37484C3.83672 4.09706 4.09714 3.89567 4.41659 3.77067L9.41659 1.89567C9.61103 1.82623 9.80547 1.7915 9.99992 1.7915C10.1944 1.7915 10.3888 1.82623 10.5833 1.89567L15.5833 3.77067C15.9027 3.89567 16.1631 4.09706 16.3645 4.37484C16.5659 4.65262 16.6666 4.96512 16.6666 5.31234V9.24984C16.6666 11.1943 16.111 13.0103 14.9999 14.6978C13.8888 16.3853 12.3958 17.5415 10.5208 18.1665C10.4374 18.1943 10.3541 18.2151 10.2708 18.229C10.1874 18.2429 10.0971 18.2498 9.99992 18.2498Z" fill="white"/>
</g>
</svg>
