<svg width="20" height="20" viewBox="0 0 20 20" fill="none" xmlns="http://www.w3.org/2000/svg">
<mask id="mask0_19473_31231" style="mask-type:alpha" maskUnits="userSpaceOnUse" x="0" y="0" width="20" height="20">
<rect width="20" height="20" fill="#D9D9D9"/>
</mask>
<g mask="url(#mask0_19473_31231)">
<path d="M9.99992 10.8327C9.18047 10.8327 8.4895 10.5514 7.927 9.98893C7.3645 9.42643 7.08325 8.73546 7.08325 7.91602C7.08325 7.09657 7.3645 6.4056 7.927 5.8431C8.4895 5.2806 9.18047 4.99935 9.99992 4.99935C10.8194 4.99935 11.5103 5.2806 12.0728 5.8431C12.6353 6.4056 12.9166 7.09657 12.9166 7.91602C12.9166 8.73546 12.6353 9.42643 12.0728 9.98893C11.5103 10.5514 10.8194 10.8327 9.99992 10.8327ZM9.99992 9.16602C10.361 9.16602 10.6596 9.04796 10.8958 8.81185C11.1319 8.57574 11.2499 8.27713 11.2499 7.91602C11.2499 7.5549 11.1319 7.25629 10.8958 7.02018C10.6596 6.78407 10.361 6.66602 9.99992 6.66602C9.63881 6.66602 9.3402 6.78407 9.10409 7.02018C8.86797 7.25629 8.74992 7.5549 8.74992 7.91602C8.74992 8.27713 8.86797 8.57574 9.10409 8.81185C9.3402 9.04796 9.63881 9.16602 9.99992 9.16602ZM9.99992 3.43685L4.99992 5.31185V9.24935C4.99992 9.99935 5.10409 10.7285 5.31242 11.4368C5.52075 12.1452 5.80547 12.8118 6.16659 13.4368C6.74992 13.1452 7.36103 12.916 7.99992 12.7493C8.63881 12.5827 9.30547 12.4993 9.99992 12.4993C10.6944 12.4993 11.361 12.5827 11.9999 12.7493C12.6388 12.916 13.2499 13.1452 13.8333 13.4368C14.1944 12.8118 14.4791 12.1452 14.6874 11.4368C14.8958 10.7285 14.9999 9.99935 14.9999 9.24935V5.31185L9.99992 3.43685ZM9.99992 14.166C9.49992 14.166 9.01381 14.2216 8.54158 14.3327C8.06936 14.4438 7.61797 14.5966 7.18742 14.791C7.5902 15.2077 8.0277 15.5688 8.49992 15.8743C8.97214 16.1799 9.47214 16.416 9.99992 16.5827C10.5277 16.416 11.0277 16.1799 11.4999 15.8743C11.9721 15.5688 12.4096 15.2077 12.8124 14.791C12.3819 14.5966 11.9305 14.4438 11.4583 14.3327C10.986 14.2216 10.4999 14.166 9.99992 14.166ZM9.99992 18.2493C9.9027 18.2493 9.81242 18.2424 9.72909 18.2285C9.64575 18.2146 9.56242 18.1938 9.47908 18.166C7.60408 17.541 6.11103 16.3848 4.99992 14.6973C3.88881 13.0098 3.33325 11.1938 3.33325 9.24935V5.31185C3.33325 4.96463 3.43395 4.65213 3.63534 4.37435C3.83672 4.09657 4.09714 3.89518 4.41659 3.77018L9.41659 1.89518C9.61103 1.82574 9.80547 1.79102 9.99992 1.79102C10.1944 1.79102 10.3888 1.82574 10.5833 1.89518L15.5833 3.77018C15.9027 3.89518 16.1631 4.09657 16.3645 4.37435C16.5659 4.65213 16.6666 4.96463 16.6666 5.31185V9.24935C16.6666 11.1938 16.111 13.0098 14.9999 14.6973C13.8888 16.3848 12.3958 17.541 10.5208 18.166C10.4374 18.1938 10.3541 18.2146 10.2708 18.2285C10.1874 18.2424 10.0971 18.2493 9.99992 18.2493Z" fill="#686868"/>
</g>
</svg>
