<svg width="24" height="24" viewBox="0 0 24 24" fill="none" xmlns="http://www.w3.org/2000/svg">
<path fill-rule="evenodd" clip-rule="evenodd" d="M5 9C5.55229 9 6 9.44772 6 10V17.6C6 18.0365 6.00078 18.3038 6.01712 18.5038C6.02473 18.5969 6.03429 18.6533 6.04235 18.6875C6.04618 18.7038 6.0494 18.7138 6.05133 18.7192C6.05318 18.7244 6.05429 18.7266 6.0545 18.727C6.10244 18.8211 6.17893 18.8976 6.27301 18.9455C6.27341 18.9457 6.27559 18.9468 6.28079 18.9487C6.28621 18.9506 6.29622 18.9538 6.3125 18.9577C6.34673 18.9657 6.40309 18.9753 6.49624 18.9829C6.6962 18.9992 6.96346 19 7.4 19H12.6C13.0365 19 13.3038 18.9992 13.5038 18.9829C13.5969 18.9753 13.6533 18.9657 13.6875 18.9577C13.7038 18.9538 13.7138 18.9506 13.7192 18.9487C13.7244 18.9468 13.7266 18.9457 13.727 18.9455C13.8211 18.8976 13.8976 18.8211 13.9455 18.727C13.9456 18.7268 13.9458 18.7264 13.9461 18.7257C13.9466 18.7245 13.9475 18.7225 13.9487 18.7192C13.9506 18.7138 13.9538 18.7038 13.9577 18.6875C13.9657 18.6533 13.9753 18.5969 13.9829 18.5038C13.9992 18.3038 14 18.0365 14 17.6V14C14 13.4477 14.4477 13 15 13C15.5523 13 16 13.4477 16 14L16 17.6361C16 18.0252 16 18.3753 15.9762 18.6666C15.9508 18.9786 15.8931 19.3101 15.7275 19.635C15.4878 20.1054 15.1054 20.4878 14.635 20.7275C14.3101 20.8931 13.9786 20.9508 13.6666 20.9762C13.3753 21 13.0252 21 12.6361 21H7.36393C6.97484 21 6.62469 21 6.33337 20.9762C6.0214 20.9508 5.68993 20.8931 5.36503 20.7275C4.89462 20.4878 4.51217 20.1054 4.27249 19.635C4.10694 19.3101 4.04925 18.9786 4.02376 18.6666C3.99996 18.3753 3.99998 18.0252 4 17.6361L4 10C4 9.44772 4.44772 9 5 9Z" fill="white"/>
<path fill-rule="evenodd" clip-rule="evenodd" d="M6.91264 3.00021C6.93852 3.00031 6.96378 3.0004 6.98833 3.0004H17.0106C17.0352 3.0004 17.0604 3.00031 17.0863 3.00021C17.3623 2.99916 17.7093 2.99784 18.0336 3.10971C18.3138 3.20638 18.5691 3.36413 18.7809 3.57157C19.026 3.81162 19.18 4.1225 19.3025 4.36985C19.3139 4.39305 19.3252 4.41568 19.3361 4.43765L21.3292 8.42371C21.4125 8.59024 21.5027 8.77057 21.5648 8.92956C21.6299 9.09625 21.7243 9.38132 21.6744 9.71964C21.614 10.1278 21.3883 10.4931 21.0502 10.7296C20.7699 10.9256 20.4727 10.9686 20.2945 10.985C20.1245 11.0005 19.9229 11.0005 19.7367 11.0004L4.29391 11.0004C4.28343 11.0004 4.27289 11.0004 4.2623 11.0004C4.07608 11.0005 3.87443 11.0005 3.70444 10.985C3.52623 10.9686 3.22904 10.9256 2.94879 10.7296C2.61068 10.4931 2.38491 10.1278 2.32461 9.71964C2.27462 9.38132 2.36903 9.09625 2.43414 8.92956C2.49624 8.77056 2.58647 8.59023 2.6698 8.42369C2.67453 8.41422 2.67925 8.40479 2.68394 8.39542L4.66282 4.43765C4.67381 4.41568 4.68501 4.39305 4.6965 4.36986C4.819 4.12251 4.97297 3.81163 5.21808 3.57157C5.42987 3.36413 5.68512 3.20638 5.96537 3.10971C6.2897 2.99784 6.63662 2.99916 6.91264 3.00021ZM6.62079 5.0057C6.61979 5.00739 6.61875 5.00917 6.61767 5.01103C6.58181 5.0728 6.53736 5.16072 6.45168 5.33207L4.61751 9.0004H19.3814L17.5473 5.33207C17.4616 5.16072 17.4171 5.0728 17.3813 5.01103C17.3802 5.00917 17.3792 5.00739 17.3782 5.0057C17.3762 5.00556 17.3742 5.00543 17.372 5.0053C17.3007 5.00085 17.2022 5.0004 17.0106 5.0004H6.98833C6.79675 5.0004 6.69824 5.00085 6.62694 5.0053C6.6248 5.00543 6.62275 5.00556 6.62079 5.0057Z" fill="white"/>
<path fill-rule="evenodd" clip-rule="evenodd" d="M19 9C19.5523 9 20 9.44772 20 10V20C20 20.5523 19.5523 21 19 21C18.4477 21 18 20.5523 18 20V10C18 9.44772 18.4477 9 19 9Z" fill="white"/>
<path fill-rule="evenodd" clip-rule="evenodd" d="M4 16C4 15.4477 4.44772 15 5 15H15C15.5523 15 16 15.4477 16 16C16 16.5523 15.5523 17 15 17H5C4.44772 17 4 16.5523 4 16Z" fill="white"/>
</svg>
