<svg width="24" height="24" viewBox="0 0 24 24" fill="none" xmlns="http://www.w3.org/2000/svg">
<path d="M9 17H15" stroke="#686868" stroke-width="2" stroke-linecap="round" stroke-linejoin="round"/>
<path d="M9 13L15 13" stroke="#686868" stroke-width="2" stroke-linecap="round" stroke-linejoin="round"/>
<path d="M9 9H10" stroke="#686868" stroke-width="2" stroke-linecap="round" stroke-linejoin="round"/>
<path d="M8.2 3H13L19 9V17.8C19 18.9201 19 19.4802 18.782 19.908C18.5903 20.2843 18.2843 20.5903 17.908 20.782C17.4802 21 16.9201 21 15.8 21H8.2C7.0799 21 6.51984 21 6.09202 20.782C5.71569 20.5903 5.40973 20.2843 5.21799 19.908C5 19.4802 5 18.9201 5 17.8V6.2C5 5.0799 5 4.51984 5.21799 4.09202C5.40973 3.71569 5.71569 3.40973 6.09202 3.21799C6.51984 3 7.0799 3 8.2 3Z" stroke="#686868" stroke-width="2" stroke-linecap="round" stroke-linejoin="round"/>
<path d="M13 3V7.4C13 7.96005 13 8.24008 13.109 8.45399C13.2049 8.64215 13.3578 8.79513 13.546 8.89101C13.7599 9 14.0399 9 14.6 9H19" stroke="#686868" stroke-width="2" stroke-linecap="round" stroke-linejoin="round"/>
</svg>
