<svg width="20" height="20" viewBox="0 0 20 20" fill="none" xmlns="http://www.w3.org/2000/svg">
<mask id="mask0_19473_19768" style="mask-type:alpha" maskUnits="userSpaceOnUse" x="0" y="0" width="20" height="20">
<rect width="20" height="20" fill="#D9D9D9"/>
</mask>
<g mask="url(#mask0_19473_19768)">
<path d="M12.7084 4.16666C12.4167 4.16666 12.1702 4.06596 11.9688 3.86457C11.7674 3.66318 11.6667 3.41665 11.6667 3.12499C11.6667 2.83332 11.7674 2.58679 11.9688 2.3854C12.1702 2.18402 12.4167 2.08332 12.7084 2.08332C13.0001 2.08332 13.2466 2.18402 13.448 2.3854C13.6494 2.58679 13.7501 2.83332 13.7501 3.12499C13.7501 3.41665 13.6494 3.66318 13.448 3.86457C13.2466 4.06596 13.0001 4.16666 12.7084 4.16666ZM12.7084 17.9167C12.4167 17.9167 12.1702 17.816 11.9688 17.6146C11.7674 17.4132 11.6667 17.1667 11.6667 16.875C11.6667 16.5833 11.7674 16.3368 11.9688 16.1354C12.1702 15.934 12.4167 15.8333 12.7084 15.8333C13.0001 15.8333 13.2466 15.934 13.448 16.1354C13.6494 16.3368 13.7501 16.5833 13.7501 16.875C13.7501 17.1667 13.6494 17.4132 13.448 17.6146C13.2466 17.816 13.0001 17.9167 12.7084 17.9167ZM16.0417 7.08332C15.7501 7.08332 15.5036 6.98263 15.3022 6.78124C15.1008 6.57985 15.0001 6.33332 15.0001 6.04166C15.0001 5.74999 15.1008 5.50346 15.3022 5.30207C15.5036 5.10068 15.7501 4.99999 16.0417 4.99999C16.3334 4.99999 16.5799 5.10068 16.7813 5.30207C16.9827 5.50346 17.0834 5.74999 17.0834 6.04166C17.0834 6.33332 16.9827 6.57985 16.7813 6.78124C16.5799 6.98263 16.3334 7.08332 16.0417 7.08332ZM16.0417 15C15.7501 15 15.5036 14.8993 15.3022 14.6979C15.1008 14.4965 15.0001 14.25 15.0001 13.9583C15.0001 13.6667 15.1008 13.4201 15.3022 13.2187C15.5036 13.0174 15.7501 12.9167 16.0417 12.9167C16.3334 12.9167 16.5799 13.0174 16.7813 13.2187C16.9827 13.4201 17.0834 13.6667 17.0834 13.9583C17.0834 14.25 16.9827 14.4965 16.7813 14.6979C16.5799 14.8993 16.3334 15 16.0417 15ZM17.2917 11.0417C17.0001 11.0417 16.7536 10.941 16.5522 10.7396C16.3508 10.5382 16.2501 10.2917 16.2501 9.99999C16.2501 9.70832 16.3508 9.46179 16.5522 9.26041C16.7536 9.05902 17.0001 8.95832 17.2917 8.95832C17.5834 8.95832 17.8299 9.05902 18.0313 9.26041C18.2327 9.46179 18.3334 9.70832 18.3334 9.99999C18.3334 10.2917 18.2327 10.5382 18.0313 10.7396C17.8299 10.941 17.5834 11.0417 17.2917 11.0417ZM1.66675 9.99999C1.66675 7.81943 2.39244 5.94443 3.84383 4.37499C5.29522 2.80554 7.07647 1.91665 9.18758 1.70832C9.4098 1.68054 9.60078 1.74652 9.7605 1.90624C9.92022 2.06596 10.0001 2.26388 10.0001 2.49999C10.0001 2.72221 9.92717 2.91665 9.78133 3.08332C9.6355 3.24999 9.45147 3.34721 9.22925 3.37499C7.54869 3.56943 6.14591 4.29165 5.02091 5.54165C3.89591 6.79166 3.33341 8.27777 3.33341 9.99999C3.33341 11.7361 3.89591 13.2257 5.02091 14.4687C6.14591 15.7118 7.54869 16.4305 9.22925 16.625C9.45147 16.6528 9.6355 16.75 9.78133 16.9167C9.92717 17.0833 10.0001 17.2778 10.0001 17.5C10.0001 17.7361 9.92022 17.934 9.7605 18.0937C9.60078 18.2535 9.4098 18.3194 9.18758 18.2917C7.06258 18.0833 5.27786 17.1944 3.83341 15.625C2.38897 14.0555 1.66675 12.1805 1.66675 9.99999ZM10.0001 11.6667C9.54175 11.6667 9.14939 11.5035 8.823 11.1771C8.49661 10.8507 8.33341 10.4583 8.33341 9.99999C8.33341 9.93054 8.33689 9.85763 8.34383 9.78124C8.35078 9.70485 8.36814 9.63193 8.39591 9.56249L7.25008 8.41666C7.0973 8.26388 7.02091 8.06943 7.02091 7.83332C7.02091 7.59721 7.0973 7.40277 7.25008 7.24999C7.40286 7.09721 7.5973 7.02082 7.83341 7.02082C8.06953 7.02082 8.26397 7.09721 8.41675 7.24999L9.56258 8.39582C9.61814 8.38193 9.76397 8.3611 10.0001 8.33332C10.4584 8.33332 10.8508 8.49652 11.1772 8.82291C11.5036 9.14929 11.6667 9.54166 11.6667 9.99999C11.6667 10.4583 11.5036 10.8507 11.1772 11.1771C10.8508 11.5035 10.4584 11.6667 10.0001 11.6667Z" fill="white"/>
</g>
</svg>
