<svg width="20" height="20" viewBox="0 0 20 20" fill="none" xmlns="http://www.w3.org/2000/svg">
<mask id="mask0_19473_31199" style="mask-type:alpha" maskUnits="userSpaceOnUse" x="0" y="0" width="20" height="20">
<rect width="20" height="20" fill="#D9D9D9"/>
</mask>
<g mask="url(#mask0_19473_31199)">
<path d="M12.7084 4.16763C12.4167 4.16763 12.1702 4.06694 11.9688 3.86555C11.7674 3.66416 11.6667 3.41763 11.6667 3.12596C11.6667 2.8343 11.7674 2.58777 11.9688 2.38638C12.1702 2.18499 12.4167 2.0843 12.7084 2.0843C13.0001 2.0843 13.2466 2.18499 13.448 2.38638C13.6494 2.58777 13.7501 2.8343 13.7501 3.12596C13.7501 3.41763 13.6494 3.66416 13.448 3.86555C13.2466 4.06694 13.0001 4.16763 12.7084 4.16763ZM12.7084 17.9176C12.4167 17.9176 12.1702 17.8169 11.9688 17.6156C11.7674 17.4142 11.6667 17.1676 11.6667 16.876C11.6667 16.5843 11.7674 16.3378 11.9688 16.1364C12.1702 15.935 12.4167 15.8343 12.7084 15.8343C13.0001 15.8343 13.2466 15.935 13.448 16.1364C13.6494 16.3378 13.7501 16.5843 13.7501 16.876C13.7501 17.1676 13.6494 17.4142 13.448 17.6156C13.2466 17.8169 13.0001 17.9176 12.7084 17.9176ZM16.0417 7.0843C15.7501 7.0843 15.5036 6.9836 15.3022 6.78222C15.1008 6.58083 15.0001 6.3343 15.0001 6.04263C15.0001 5.75097 15.1008 5.50444 15.3022 5.30305C15.5036 5.10166 15.7501 5.00096 16.0417 5.00096C16.3334 5.00096 16.5799 5.10166 16.7813 5.30305C16.9827 5.50444 17.0834 5.75097 17.0834 6.04263C17.0834 6.3343 16.9827 6.58083 16.7813 6.78222C16.5799 6.9836 16.3334 7.0843 16.0417 7.0843ZM16.0417 15.001C15.7501 15.001 15.5036 14.9003 15.3022 14.6989C15.1008 14.4975 15.0001 14.251 15.0001 13.9593C15.0001 13.6676 15.1008 13.4211 15.3022 13.2197C15.5036 13.0183 15.7501 12.9176 16.0417 12.9176C16.3334 12.9176 16.5799 13.0183 16.7813 13.2197C16.9827 13.4211 17.0834 13.6676 17.0834 13.9593C17.0834 14.251 16.9827 14.4975 16.7813 14.6989C16.5799 14.9003 16.3334 15.001 16.0417 15.001ZM17.2917 11.0426C17.0001 11.0426 16.7536 10.9419 16.5522 10.7405C16.3508 10.5392 16.2501 10.2926 16.2501 10.001C16.2501 9.7093 16.3508 9.46277 16.5522 9.26138C16.7536 9.05999 17.0001 8.9593 17.2917 8.9593C17.5834 8.9593 17.8299 9.05999 18.0313 9.26138C18.2327 9.46277 18.3334 9.7093 18.3334 10.001C18.3334 10.2926 18.2327 10.5392 18.0313 10.7405C17.8299 10.9419 17.5834 11.0426 17.2917 11.0426ZM1.66675 10.001C1.66675 7.82041 2.39244 5.94541 3.84383 4.37596C5.29522 2.80652 7.07647 1.91763 9.18758 1.7093C9.4098 1.68152 9.60078 1.74749 9.7605 1.90721C9.92022 2.06694 10.0001 2.26485 10.0001 2.50096C10.0001 2.72319 9.92717 2.91763 9.78133 3.0843C9.6355 3.25096 9.45147 3.34819 9.22925 3.37596C7.54869 3.57041 6.14591 4.29263 5.02091 5.54263C3.89591 6.79263 3.33341 8.27874 3.33341 10.001C3.33341 11.7371 3.89591 13.2267 5.02091 14.4697C6.14591 15.7128 7.54869 16.4315 9.22925 16.626C9.45147 16.6537 9.6355 16.751 9.78133 16.9176C9.92717 17.0843 10.0001 17.2787 10.0001 17.501C10.0001 17.7371 9.92022 17.935 9.7605 18.0947C9.60078 18.2544 9.4098 18.3204 9.18758 18.2926C7.06258 18.0843 5.27786 17.1954 3.83341 15.626C2.38897 14.0565 1.66675 12.1815 1.66675 10.001ZM10.0001 11.6676C9.54175 11.6676 9.14939 11.5044 8.823 11.178C8.49661 10.8517 8.33341 10.4593 8.33341 10.001C8.33341 9.93152 8.33689 9.8586 8.34383 9.78222C8.35078 9.70583 8.36814 9.63291 8.39591 9.56347L7.25008 8.41763C7.0973 8.26485 7.02091 8.07041 7.02091 7.8343C7.02091 7.59819 7.0973 7.40374 7.25008 7.25097C7.40286 7.09819 7.5973 7.0218 7.83341 7.0218C8.06953 7.0218 8.26397 7.09819 8.41675 7.25097L9.56258 8.3968C9.61814 8.38291 9.76397 8.36208 10.0001 8.3343C10.4584 8.3343 10.8508 8.49749 11.1772 8.82388C11.5036 9.15027 11.6667 9.54263 11.6667 10.001C11.6667 10.4593 11.5036 10.8517 11.1772 11.178C10.8508 11.5044 10.4584 11.6676 10.0001 11.6676Z" fill="#686868"/>
</g>
</svg>
