<svg width="20" height="20" viewBox="0 0 20 20" fill="none" xmlns="http://www.w3.org/2000/svg">
<mask id="mask0_22333_42507" style="mask-type:alpha" maskUnits="userSpaceOnUse" x="0" y="0" width="20" height="20">
<rect width="20" height="20" fill="#D9D9D9"/>
</mask>
<g mask="url(#mask0_22333_42507)">
<path d="M10.0007 9.93685L8.58398 11.0202C8.50065 11.0896 8.41732 11.0931 8.33398 11.0306C8.25065 10.9681 8.22287 10.8882 8.25065 10.791L8.79232 9.04102L7.33398 7.87435C7.26454 7.8049 7.24371 7.72504 7.27148 7.63477C7.29926 7.54449 7.36176 7.49935 7.45898 7.49935H9.25065L9.79232 5.79102C9.8201 5.69379 9.88954 5.64518 10.0007 5.64518C10.1118 5.64518 10.1812 5.69379 10.209 5.79102L10.7507 7.49935H12.5215C12.6187 7.49935 12.6847 7.54449 12.7194 7.63477C12.7541 7.72504 12.7368 7.8049 12.6673 7.87435L11.1882 9.04102L11.7298 10.791C11.7576 10.8882 11.7298 10.9681 11.6465 11.0306C11.5632 11.0931 11.4798 11.0896 11.3965 11.0202L10.0007 9.93685ZM10.0007 17.4993L6.10482 18.791C5.82704 18.8882 5.57357 18.8535 5.3444 18.6869C5.11523 18.5202 5.00065 18.298 5.00065 18.0202V12.7285C4.47287 12.1452 4.06315 11.4785 3.77148 10.7285C3.47982 9.97852 3.33398 9.1799 3.33398 8.33268C3.33398 6.47157 3.97982 4.89518 5.27148 3.60352C6.56315 2.31185 8.13954 1.66602 10.0007 1.66602C11.8618 1.66602 13.4382 2.31185 14.7298 3.60352C16.0215 4.89518 16.6673 6.47157 16.6673 8.33268C16.6673 9.1799 16.5215 9.97852 16.2298 10.7285C15.9382 11.4785 15.5284 12.1452 15.0007 12.7285V18.0202C15.0007 18.298 14.8861 18.5202 14.6569 18.6869C14.4277 18.8535 14.1743 18.8882 13.8965 18.791L10.0007 17.4993ZM10.0007 13.3327C11.3895 13.3327 12.5701 12.8466 13.5423 11.8743C14.5145 10.9021 15.0007 9.72157 15.0007 8.33268C15.0007 6.94379 14.5145 5.76324 13.5423 4.79102C12.5701 3.81879 11.3895 3.33268 10.0007 3.33268C8.61176 3.33268 7.43121 3.81879 6.45898 4.79102C5.48676 5.76324 5.00065 6.94379 5.00065 8.33268C5.00065 9.72157 5.48676 10.9021 6.45898 11.8743C7.43121 12.8466 8.61176 13.3327 10.0007 13.3327ZM6.66732 16.6868L10.0007 15.8327L13.334 16.6868V14.1035C12.8479 14.3813 12.3236 14.6 11.7611 14.7598C11.1986 14.9195 10.6118 14.9993 10.0007 14.9993C9.38954 14.9993 8.80273 14.9195 8.24023 14.7598C7.67773 14.6 7.15343 14.3813 6.66732 14.1035V16.6868Z" fill="#686868"/>
</g>
</svg>
