<svg width="20" height="20" viewBox="0 0 20 20" fill="none" xmlns="http://www.w3.org/2000/svg">
<mask id="mask0_19473_18914" style="mask-type:alpha" maskUnits="userSpaceOnUse" x="0" y="0" width="20" height="20">
<rect width="20" height="20" fill="#D9D9D9"/>
</mask>
<g mask="url(#mask0_19473_18914)">
<path d="M9.97917 18.291C9.49306 18.291 9.01042 18.2528 8.53125 18.1764C8.05208 18.1 7.59028 17.9716 7.14583 17.791C6.97917 17.7355 6.84375 17.6382 6.73958 17.4993C6.63542 17.3605 6.58333 17.1938 6.58333 16.9993C6.58333 16.7632 6.66319 16.5653 6.82292 16.4056C6.98264 16.2459 7.18056 16.166 7.41667 16.166L7.70833 16.2077C8.08333 16.3327 8.45486 16.4334 8.82292 16.5098C9.19097 16.5862 9.57639 16.6243 9.97917 16.6243C10.2153 16.6243 10.4132 16.7042 10.5729 16.8639C10.7326 17.0237 10.8125 17.2216 10.8125 17.4577C10.8125 17.6938 10.7326 17.8917 10.5729 18.0514C10.4132 18.2112 10.2153 18.291 9.97917 18.291ZM13.3125 17.4577C13.0764 17.4577 12.8785 17.3778 12.7188 17.2181C12.559 17.0584 12.4792 16.8605 12.4792 16.6243V13.291C12.4792 13.0549 12.559 12.857 12.7188 12.6973C12.8785 12.5375 13.0764 12.4577 13.3125 12.4577H16.6458C16.8819 12.4577 17.0799 12.5375 17.2396 12.6973C17.3993 12.857 17.4792 13.0549 17.4792 13.291C17.4792 13.5271 17.3993 13.725 17.2396 13.8848C17.0799 14.0445 16.8819 14.1243 16.6458 14.1243H15.3125L17.0625 15.8743C17.2153 16.0271 17.2951 16.2181 17.3021 16.4473C17.309 16.6764 17.2292 16.8743 17.0625 17.041C16.9097 17.1938 16.7153 17.2702 16.4792 17.2702C16.2431 17.2702 16.0486 17.1938 15.8958 17.041L14.1458 15.291V16.6243C14.1458 16.8605 14.066 17.0584 13.9062 17.2181C13.7465 17.3778 13.5486 17.4577 13.3125 17.4577ZM4.6875 16.0827C4.57639 16.0827 4.46875 16.0584 4.36458 16.0098C4.26042 15.9612 4.17361 15.9021 4.10417 15.8327C3.64583 15.3882 3.25 14.9021 2.91667 14.3743C2.58333 13.8466 2.3125 13.2841 2.10417 12.6868C2.07639 12.6313 2.0625 12.5341 2.0625 12.3952C2.0625 12.1591 2.14236 11.9612 2.30208 11.8014C2.46181 11.6417 2.65972 11.5618 2.89583 11.5618C3.09028 11.5618 3.25694 11.6174 3.39583 11.7285C3.53472 11.8396 3.63194 11.9785 3.6875 12.1452C3.85417 12.6313 4.06944 13.0827 4.33333 13.4993C4.59722 13.916 4.90972 14.3049 5.27083 14.666C5.34028 14.7355 5.39931 14.8223 5.44792 14.9264C5.49653 15.0306 5.52083 15.1382 5.52083 15.2493C5.52083 15.4855 5.44097 15.6834 5.28125 15.8431C5.12153 16.0028 4.92361 16.0827 4.6875 16.0827ZM17.4792 10.791C17.2431 10.791 17.0451 10.7112 16.8854 10.5514C16.7257 10.3917 16.6458 10.1938 16.6458 9.95768C16.6458 9.5549 16.6076 9.16949 16.5312 8.80143C16.4549 8.43338 16.3542 8.06185 16.2292 7.68685C16.2014 7.63129 16.1875 7.53407 16.1875 7.39518C16.1875 7.15907 16.2674 6.96115 16.4271 6.80143C16.5868 6.64171 16.7847 6.56185 17.0208 6.56185C17.2153 6.56185 17.3819 6.61393 17.5208 6.7181C17.6597 6.82227 17.7569 6.95768 17.8125 7.12435C17.9931 7.56879 18.1215 8.0306 18.1979 8.50977C18.2743 8.98893 18.3125 9.47157 18.3125 9.95768C18.3125 10.1938 18.2326 10.3917 18.0729 10.5514C17.9132 10.7112 17.7153 10.791 17.4792 10.791ZM2.52083 9.99935C2.28472 9.99935 2.08681 9.91949 1.92708 9.75977C1.76736 9.60004 1.6875 9.40213 1.6875 9.16602V9.02018C1.77083 8.39518 1.91667 7.78407 2.125 7.18685C2.33333 6.58963 2.60417 6.02713 2.9375 5.49935C3.00694 5.38824 3.10417 5.29449 3.22917 5.2181C3.35417 5.14171 3.49306 5.10352 3.64583 5.10352C3.88194 5.10352 4.07986 5.18338 4.23958 5.3431C4.39931 5.50282 4.47917 5.70074 4.47917 5.93685C4.47917 6.02018 4.46528 6.10352 4.4375 6.18685C4.40972 6.27018 4.375 6.34657 4.33333 6.41602C4.05556 6.84657 3.84028 7.30143 3.6875 7.7806C3.53472 8.25977 3.42361 8.74935 3.35417 9.24935C3.32639 9.45768 3.23611 9.63477 3.08333 9.7806C2.93056 9.92643 2.74306 9.99935 2.52083 9.99935ZM15.2708 5.49935C15.1597 5.49935 15.0521 5.47504 14.9479 5.42643C14.8438 5.37782 14.7569 5.31879 14.6875 5.24935C14.3264 4.88824 13.9375 4.57574 13.5208 4.31185C13.1042 4.04796 12.6528 3.83268 12.1667 3.66602C12 3.61046 11.8611 3.51324 11.75 3.37435C11.6389 3.23546 11.5833 3.06879 11.5833 2.87435C11.5833 2.63824 11.6632 2.44032 11.8229 2.2806C11.9826 2.12088 12.1806 2.04102 12.4167 2.04102L12.7083 2.08268C13.3056 2.29102 13.8681 2.56185 14.3958 2.89518C14.9236 3.22852 15.4097 3.62435 15.8542 4.08268C15.9236 4.15213 15.9826 4.23893 16.0312 4.3431C16.0799 4.44727 16.1042 4.5549 16.1042 4.66602C16.1042 4.90213 16.0243 5.10004 15.8646 5.25977C15.7049 5.41949 15.5069 5.49935 15.2708 5.49935ZM5.95833 4.45768C5.72222 4.45768 5.52431 4.37782 5.36458 4.2181C5.20486 4.05838 5.125 3.86046 5.125 3.62435C5.125 3.47157 5.16319 3.33268 5.23958 3.20768C5.31597 3.08268 5.40972 2.98546 5.52083 2.91602C6.04861 2.58268 6.61111 2.31185 7.20833 2.10352C7.80556 1.89518 8.41667 1.74935 9.04167 1.66602H9.1875C9.42361 1.66602 9.62153 1.74588 9.78125 1.9056C9.94097 2.06532 10.0208 2.26324 10.0208 2.49935C10.0208 2.72157 9.94792 2.90907 9.80208 3.06185C9.65625 3.21463 9.47917 3.3049 9.27083 3.33268C8.77083 3.40213 8.28125 3.51324 7.80208 3.66602C7.32292 3.81879 6.86806 4.03407 6.4375 4.31185C6.36806 4.35352 6.29167 4.38824 6.20833 4.41602C6.125 4.44379 6.04167 4.45768 5.95833 4.45768Z" fill="white"/>
</g>
</svg>
