<svg width="20" height="20" viewBox="0 0 20 20" fill="none" xmlns="http://www.w3.org/2000/svg">
<mask id="mask0_19473_31223" style="mask-type:alpha" maskUnits="userSpaceOnUse" x="0" y="0" width="20" height="20">
<rect width="20" height="20" fill="#D9D9D9"/>
</mask>
<g mask="url(#mask0_19473_31223)">
<path d="M4.16666 15.8327C3.93054 15.8327 3.73263 15.7528 3.5729 15.5931C3.41318 15.4334 3.33332 15.2355 3.33332 14.9993C3.33332 14.7632 3.41318 14.5653 3.5729 14.4056C3.73263 14.2459 3.93054 14.166 4.16666 14.166H4.99999V8.33268C4.99999 7.1799 5.34721 6.1556 6.04166 5.25977C6.7361 4.36393 7.63888 3.77713 8.74999 3.49935V2.91602C8.74999 2.56879 8.87152 2.27365 9.11457 2.0306C9.35763 1.78754 9.65277 1.66602 9.99999 1.66602C10.3472 1.66602 10.6424 1.78754 10.8854 2.0306C11.1285 2.27365 11.25 2.56879 11.25 2.91602V3.49935C12.3611 3.77713 13.2639 4.36393 13.9583 5.25977C14.6528 6.1556 15 7.1799 15 8.33268V14.166H15.8333C16.0694 14.166 16.2674 14.2459 16.4271 14.4056C16.5868 14.5653 16.6667 14.7632 16.6667 14.9993C16.6667 15.2355 16.5868 15.4334 16.4271 15.5931C16.2674 15.7528 16.0694 15.8327 15.8333 15.8327H4.16666ZM9.99999 18.3327C9.54166 18.3327 9.14929 18.1695 8.82291 17.8431C8.49652 17.5167 8.33332 17.1243 8.33332 16.666H11.6667C11.6667 17.1243 11.5035 17.5167 11.1771 17.8431C10.8507 18.1695 10.4583 18.3327 9.99999 18.3327ZM6.66666 14.166H13.3333V8.33268C13.3333 7.41602 13.0069 6.63129 12.3542 5.97852C11.7014 5.32574 10.9167 4.99935 9.99999 4.99935C9.08332 4.99935 8.2986 5.32574 7.64582 5.97852C6.99304 6.63129 6.66666 7.41602 6.66666 8.33268V14.166ZM2.49999 8.33268C2.26388 8.33268 2.06596 8.2424 1.90624 8.06185C1.74652 7.88129 1.68054 7.67296 1.70832 7.43685C1.81943 6.39518 2.1111 5.42643 2.58332 4.5306C3.05554 3.63477 3.65971 2.85352 4.39582 2.18685C4.57638 2.03407 4.78124 1.96463 5.01041 1.97852C5.23957 1.9924 5.4236 2.09657 5.56249 2.29102C5.70138 2.48546 5.75693 2.69379 5.72916 2.91602C5.70138 3.13824 5.59721 3.33268 5.41666 3.49935C4.87499 4.01324 4.43054 4.61046 4.08332 5.29102C3.7361 5.97157 3.50693 6.70768 3.39582 7.49935C3.36804 7.73546 3.27082 7.93338 3.10415 8.0931C2.93749 8.25282 2.7361 8.33268 2.49999 8.33268ZM17.5 8.33268C17.2639 8.33268 17.0625 8.25282 16.8958 8.0931C16.7292 7.93338 16.6319 7.73546 16.6042 7.49935C16.493 6.70768 16.2639 5.97157 15.9167 5.29102C15.5694 4.61046 15.125 4.01324 14.5833 3.49935C14.4028 3.33268 14.2986 3.13824 14.2708 2.91602C14.243 2.69379 14.2986 2.48546 14.4375 2.29102C14.5764 2.09657 14.7604 1.9924 14.9896 1.97852C15.2187 1.96463 15.4236 2.03407 15.6042 2.18685C16.3403 2.85352 16.9444 3.63477 17.4167 4.5306C17.8889 5.42643 18.1805 6.39518 18.2917 7.43685C18.3194 7.67296 18.2535 7.88129 18.0937 8.06185C17.934 8.2424 17.7361 8.33268 17.5 8.33268Z" fill="#686868"/>
</g>
</svg>
