<svg width="20" height="20" viewBox="0 0 20 20" fill="none" xmlns="http://www.w3.org/2000/svg">
<mask id="mask0_19473_37546" style="mask-type:alpha" maskUnits="userSpaceOnUse" x="0" y="0" width="20" height="20">
<rect width="20" height="20" fill="#D9D9D9"/>
</mask>
<g mask="url(#mask0_19473_37546)">
<path d="M4.16666 15.8332C3.93054 15.8332 3.73263 15.7533 3.5729 15.5936C3.41318 15.4339 3.33332 15.2359 3.33332 14.9998C3.33332 14.7637 3.41318 14.5658 3.5729 14.4061C3.73263 14.2464 3.93054 14.1665 4.16666 14.1665H4.99999V8.33317C4.99999 7.18039 5.34721 6.15609 6.04166 5.26025C6.7361 4.36442 7.63888 3.77762 8.74999 3.49984V2.9165C8.74999 2.56928 8.87152 2.27414 9.11457 2.03109C9.35763 1.78803 9.65277 1.6665 9.99999 1.6665C10.3472 1.6665 10.6424 1.78803 10.8854 2.03109C11.1285 2.27414 11.25 2.56928 11.25 2.9165V3.49984C12.3611 3.77762 13.2639 4.36442 13.9583 5.26025C14.6528 6.15609 15 7.18039 15 8.33317V14.1665H15.8333C16.0694 14.1665 16.2674 14.2464 16.4271 14.4061C16.5868 14.5658 16.6667 14.7637 16.6667 14.9998C16.6667 15.2359 16.5868 15.4339 16.4271 15.5936C16.2674 15.7533 16.0694 15.8332 15.8333 15.8332H4.16666ZM9.99999 18.3332C9.54166 18.3332 9.14929 18.17 8.82291 17.8436C8.49652 17.5172 8.33332 17.1248 8.33332 16.6665H11.6667C11.6667 17.1248 11.5035 17.5172 11.1771 17.8436C10.8507 18.17 10.4583 18.3332 9.99999 18.3332ZM6.66666 14.1665H13.3333V8.33317C13.3333 7.4165 13.0069 6.63178 12.3542 5.979C11.7014 5.32623 10.9167 4.99984 9.99999 4.99984C9.08332 4.99984 8.2986 5.32623 7.64582 5.979C6.99304 6.63178 6.66666 7.4165 6.66666 8.33317V14.1665ZM2.49999 8.33317C2.26388 8.33317 2.06596 8.24289 1.90624 8.06234C1.74652 7.88178 1.68054 7.67345 1.70832 7.43734C1.81943 6.39567 2.1111 5.42692 2.58332 4.53109C3.05554 3.63525 3.65971 2.854 4.39582 2.18734C4.57638 2.03456 4.78124 1.96512 5.01041 1.979C5.23957 1.99289 5.4236 2.09706 5.56249 2.2915C5.70138 2.48595 5.75693 2.69428 5.72916 2.9165C5.70138 3.13873 5.59721 3.33317 5.41666 3.49984C4.87499 4.01373 4.43054 4.61095 4.08332 5.2915C3.7361 5.97206 3.50693 6.70817 3.39582 7.49984C3.36804 7.73595 3.27082 7.93387 3.10415 8.09359C2.93749 8.25331 2.7361 8.33317 2.49999 8.33317ZM17.5 8.33317C17.2639 8.33317 17.0625 8.25331 16.8958 8.09359C16.7292 7.93387 16.6319 7.73595 16.6042 7.49984C16.493 6.70817 16.2639 5.97206 15.9167 5.2915C15.5694 4.61095 15.125 4.01373 14.5833 3.49984C14.4028 3.33317 14.2986 3.13873 14.2708 2.9165C14.243 2.69428 14.2986 2.48595 14.4375 2.2915C14.5764 2.09706 14.7604 1.99289 14.9896 1.979C15.2187 1.96512 15.4236 2.03456 15.6042 2.18734C16.3403 2.854 16.9444 3.63525 17.4167 4.53109C17.8889 5.42692 18.1805 6.39567 18.2917 7.43734C18.3194 7.67345 18.2535 7.88178 18.0937 8.06234C17.934 8.24289 17.7361 8.33317 17.5 8.33317Z" fill="white"/>
</g>
</svg>
