<svg width="20" height="20" viewBox="0 0 20 20" fill="none" xmlns="http://www.w3.org/2000/svg">
<mask id="mask0_19473_31247" style="mask-type:alpha" maskUnits="userSpaceOnUse" x="0" y="0" width="20" height="20">
<rect width="20" height="20" fill="#D9D9D9"/>
</mask>
<g mask="url(#mask0_19473_31247)">
<path d="M3.33333 17.4991C3.09722 17.4991 2.89931 17.4193 2.73958 17.2595C2.57986 17.0998 2.5 16.9019 2.5 16.6658V15.8324C2.5 15.5963 2.57986 15.3984 2.73958 15.2387C2.89931 15.079 3.09722 14.9991 3.33333 14.9991C3.56944 14.9991 3.76736 15.079 3.92708 15.2387C4.08681 15.3984 4.16667 15.5963 4.16667 15.8324V16.6658C4.16667 16.9019 4.08681 17.0998 3.92708 17.2595C3.76736 17.4193 3.56944 17.4991 3.33333 17.4991ZM6.66667 17.4991C6.43056 17.4991 6.23264 17.4193 6.07292 17.2595C5.91319 17.0998 5.83333 16.9019 5.83333 16.6658V12.0824C5.83333 11.8463 5.91319 11.6484 6.07292 11.4887C6.23264 11.329 6.43056 11.2491 6.66667 11.2491C6.90278 11.2491 7.10069 11.329 7.26042 11.4887C7.42014 11.6484 7.5 11.8463 7.5 12.0824V16.6658C7.5 16.9019 7.42014 17.0998 7.26042 17.2595C7.10069 17.4193 6.90278 17.4991 6.66667 17.4991ZM10 17.4991C9.76389 17.4991 9.56597 17.4193 9.40625 17.2595C9.24653 17.0998 9.16667 16.9019 9.16667 16.6658V13.7491C9.16667 13.513 9.24653 13.3151 9.40625 13.1554C9.56597 12.9956 9.76389 12.9158 10 12.9158C10.2361 12.9158 10.434 12.9956 10.5938 13.1554C10.7535 13.3151 10.8333 13.513 10.8333 13.7491V16.6658C10.8333 16.9019 10.7535 17.0998 10.5938 17.2595C10.434 17.4193 10.2361 17.4991 10 17.4991ZM13.3333 17.4991C13.0972 17.4991 12.8993 17.4193 12.7396 17.2595C12.5799 17.0998 12.5 16.9019 12.5 16.6658V12.4991C12.5 12.263 12.5799 12.0651 12.7396 11.9054C12.8993 11.7456 13.0972 11.6658 13.3333 11.6658C13.5694 11.6658 13.7674 11.7456 13.9271 11.9054C14.0868 12.0651 14.1667 12.263 14.1667 12.4991V16.6658C14.1667 16.9019 14.0868 17.0998 13.9271 17.2595C13.7674 17.4193 13.5694 17.4991 13.3333 17.4991ZM16.6667 17.4991C16.4306 17.4991 16.2326 17.4193 16.0729 17.2595C15.9132 17.0998 15.8333 16.9019 15.8333 16.6658V9.16578C15.8333 8.92967 15.9132 8.73175 16.0729 8.57203C16.2326 8.41231 16.4306 8.33245 16.6667 8.33245C16.9028 8.33245 17.1007 8.41231 17.2604 8.57203C17.4201 8.73175 17.5 8.92967 17.5 9.16578V16.6658C17.5 16.9019 17.4201 17.0998 17.2604 17.2595C17.1007 17.4193 16.9028 17.4991 16.6667 17.4991ZM11.6667 9.97828C11.4444 9.97828 11.2326 9.93661 11.0312 9.85328C10.8299 9.76995 10.6458 9.65189 10.4792 9.49911L8.33333 7.35328L3.91667 11.7699C3.75 11.9366 3.55208 12.0165 3.32292 12.0095C3.09375 12.0026 2.89583 11.9158 2.72917 11.7491C2.57639 11.5824 2.50347 11.3845 2.51042 11.1554C2.51736 10.9262 2.59722 10.7352 2.75 10.5824L7.14583 6.18661C7.3125 6.01995 7.49653 5.89842 7.69792 5.82203C7.89931 5.74564 8.11111 5.70745 8.33333 5.70745C8.55556 5.70745 8.77083 5.74564 8.97917 5.82203C9.1875 5.89842 9.36806 6.01995 9.52083 6.18661L11.6667 8.33245L16.0833 3.91578C16.25 3.74911 16.4479 3.66925 16.6771 3.6762C16.9062 3.68314 17.1042 3.76995 17.2708 3.93661C17.4236 4.10328 17.4965 4.3012 17.4896 4.53036C17.4826 4.75953 17.4028 4.9505 17.25 5.10328L12.8542 9.49911C12.7014 9.65189 12.5208 9.76995 12.3125 9.85328C12.1042 9.93661 11.8889 9.97828 11.6667 9.97828Z" fill="#686868"/>
</g>
</svg>
