<svg width="20" height="20" viewBox="0 0 20 20" fill="none" xmlns="http://www.w3.org/2000/svg">
<mask id="mask0_19473_15212" style="mask-type:alpha" maskUnits="userSpaceOnUse" x="0" y="0" width="20" height="20">
<rect width="20" height="20" fill="#D9D9D9"/>
</mask>
<g mask="url(#mask0_19473_15212)">
<path d="M4.16667 18.3334C3.70833 18.3334 3.31597 18.1702 2.98958 17.8438C2.66319 17.5174 2.5 17.125 2.5 16.6667V6.66671C2.5 6.20837 2.66319 5.81601 2.98958 5.48962C3.31597 5.16324 3.70833 5.00004 4.16667 5.00004H5.83333C5.83333 3.84726 6.23958 2.86462 7.05208 2.05212C7.86458 1.23962 8.84722 0.833374 10 0.833374C11.1528 0.833374 12.1354 1.23962 12.9479 2.05212C13.7604 2.86462 14.1667 3.84726 14.1667 5.00004H15.8333C16.2917 5.00004 16.684 5.16324 17.0104 5.48962C17.3368 5.81601 17.5 6.20837 17.5 6.66671V16.6667C17.5 17.125 17.3368 17.5174 17.0104 17.8438C16.684 18.1702 16.2917 18.3334 15.8333 18.3334H4.16667ZM4.16667 16.6667H15.8333V6.66671H4.16667V16.6667ZM7.5 5.00004H12.5C12.5 4.3056 12.2569 3.71532 11.7708 3.22921C11.2847 2.7431 10.6944 2.50004 10 2.50004C9.30556 2.50004 8.71528 2.7431 8.22917 3.22921C7.74306 3.71532 7.5 4.3056 7.5 5.00004ZM9.97917 11.6667C11.0069 11.6667 11.9375 11.3264 12.7708 10.6459C13.6042 9.96532 14.0139 9.20143 14 8.35421C14 8.1181 13.9236 7.91671 13.7708 7.75004C13.6181 7.58337 13.4236 7.50004 13.1875 7.50004C12.9931 7.50004 12.8194 7.56254 12.6667 7.68754C12.5139 7.81254 12.4028 8.00004 12.3333 8.25004C12.1806 8.77782 11.8819 9.20143 11.4375 9.52087C10.9931 9.84032 10.5069 10 9.97917 10C9.45139 10 8.96181 9.84032 8.51042 9.52087C8.05903 9.20143 7.76389 8.77782 7.625 8.25004C7.55556 7.98615 7.45139 7.79518 7.3125 7.67712C7.17361 7.55907 7.00694 7.50004 6.8125 7.50004C6.57639 7.50004 6.37847 7.58337 6.21875 7.75004C6.05903 7.91671 5.97917 8.1181 5.97917 8.35421C5.97917 9.20143 6.38889 9.96532 7.20833 10.6459C8.02778 11.3264 8.95139 11.6667 9.97917 11.6667Z" fill="white"/>
</g>
</svg>
