<svg width="20" height="20" viewBox="0 0 20 20" fill="none" xmlns="http://www.w3.org/2000/svg">
<mask id="mask0_19473_31207" style="mask-type:alpha" maskUnits="userSpaceOnUse" x="0" y="0" width="20" height="20">
<rect width="20" height="20" fill="#D9D9D9"/>
</mask>
<g mask="url(#mask0_19473_31207)">
<path d="M4.16667 18.334C3.70833 18.334 3.31597 18.1708 2.98958 17.8444C2.66319 17.518 2.5 17.1257 2.5 16.6673V6.66732C2.5 6.20898 2.66319 5.81662 2.98958 5.49023C3.31597 5.16385 3.70833 5.00065 4.16667 5.00065H5.83333C5.83333 3.84787 6.23958 2.86523 7.05208 2.05273C7.86458 1.24023 8.84722 0.833984 10 0.833984C11.1528 0.833984 12.1354 1.24023 12.9479 2.05273C13.7604 2.86523 14.1667 3.84787 14.1667 5.00065H15.8333C16.2917 5.00065 16.684 5.16385 17.0104 5.49023C17.3368 5.81662 17.5 6.20898 17.5 6.66732V16.6673C17.5 17.1257 17.3368 17.518 17.0104 17.8444C16.684 18.1708 16.2917 18.334 15.8333 18.334H4.16667ZM4.16667 16.6673H15.8333V6.66732H4.16667V16.6673ZM7.5 5.00065H12.5C12.5 4.30621 12.2569 3.71593 11.7708 3.22982C11.2847 2.74371 10.6944 2.50065 10 2.50065C9.30556 2.50065 8.71528 2.74371 8.22917 3.22982C7.74306 3.71593 7.5 4.30621 7.5 5.00065ZM9.97917 11.6673C11.0069 11.6673 11.9375 11.327 12.7708 10.6465C13.6042 9.96593 14.0139 9.20204 14 8.35482C14 8.11871 13.9236 7.91732 13.7708 7.75065C13.6181 7.58398 13.4236 7.50065 13.1875 7.50065C12.9931 7.50065 12.8194 7.56315 12.6667 7.68815C12.5139 7.81315 12.4028 8.00065 12.3333 8.25065C12.1806 8.77843 11.8819 9.20204 11.4375 9.52148C10.9931 9.84093 10.5069 10.0007 9.97917 10.0007C9.45139 10.0007 8.96181 9.84093 8.51042 9.52148C8.05903 9.20204 7.76389 8.77843 7.625 8.25065C7.55556 7.98676 7.45139 7.79579 7.3125 7.67773C7.17361 7.55968 7.00694 7.50065 6.8125 7.50065C6.57639 7.50065 6.37847 7.58398 6.21875 7.75065C6.05903 7.91732 5.97917 8.11871 5.97917 8.35482C5.97917 9.20204 6.38889 9.96593 7.20833 10.6465C8.02778 11.327 8.95139 11.6673 9.97917 11.6673Z" fill="#686868"/>
</g>
</svg>
