<svg width="20" height="20" viewBox="0 0 20 20" fill="none" xmlns="http://www.w3.org/2000/svg">
<mask id="mask0_19473_31239" style="mask-type:alpha" maskUnits="userSpaceOnUse" x="0" y="0" width="20" height="20">
<rect width="20" height="20" fill="#D9D9D9"/>
</mask>
<g mask="url(#mask0_19473_31239)">
<path d="M9.02082 18.3327C8.64582 18.3327 8.3229 18.2077 8.05207 17.9577C7.78123 17.7077 7.61804 17.4021 7.56248 17.041L7.37498 15.666C7.19443 15.5966 7.02429 15.5132 6.86457 15.416C6.70485 15.3188 6.5486 15.2146 6.39582 15.1035L5.10415 15.6452C4.75693 15.798 4.40971 15.8118 4.06248 15.6868C3.71526 15.5618 3.44443 15.3396 3.24998 15.0202L2.27082 13.3118C2.07637 12.9924 2.02082 12.6521 2.10415 12.291C2.18748 11.9299 2.37498 11.6313 2.66665 11.3952L3.77082 10.5618C3.75693 10.4646 3.74998 10.3709 3.74998 10.2806V9.7181C3.74998 9.62782 3.75693 9.53407 3.77082 9.43685L2.66665 8.60352C2.37498 8.3674 2.18748 8.06879 2.10415 7.70768C2.02082 7.34657 2.07637 7.00629 2.27082 6.68685L3.24998 4.97852C3.44443 4.65907 3.71526 4.43685 4.06248 4.31185C4.40971 4.18685 4.75693 4.20074 5.10415 4.35352L6.39582 4.89518C6.5486 4.78407 6.70832 4.6799 6.87498 4.58268C7.04165 4.48546 7.20832 4.40213 7.37498 4.33268L7.56248 2.95768C7.61804 2.59657 7.78123 2.29102 8.05207 2.04102C8.3229 1.79102 8.64582 1.66602 9.02082 1.66602H10.9792C11.3542 1.66602 11.6771 1.79102 11.9479 2.04102C12.2187 2.29102 12.3819 2.59657 12.4375 2.95768L12.625 4.33268C12.8055 4.40213 12.9757 4.48546 13.1354 4.58268C13.2951 4.6799 13.4514 4.78407 13.6042 4.89518L14.8958 4.35352C15.243 4.20074 15.5903 4.18685 15.9375 4.31185C16.2847 4.43685 16.5555 4.65907 16.75 4.97852L17.7292 6.68685C17.9236 7.00629 17.9792 7.34657 17.8958 7.70768C17.8125 8.06879 17.625 8.3674 17.3333 8.60352L16.2292 9.43685C16.243 9.53407 16.25 9.62782 16.25 9.7181V10.2806C16.25 10.3709 16.2361 10.4646 16.2083 10.5618L17.3125 11.3952C17.6042 11.6313 17.7917 11.9299 17.875 12.291C17.9583 12.6521 17.9028 12.9924 17.7083 13.3118L16.7083 15.0202C16.5139 15.3396 16.243 15.5618 15.8958 15.6868C15.5486 15.8118 15.2014 15.798 14.8542 15.6452L13.6042 15.1035C13.4514 15.2146 13.2917 15.3188 13.125 15.416C12.9583 15.5132 12.7917 15.5966 12.625 15.666L12.4375 17.041C12.3819 17.4021 12.2187 17.7077 11.9479 17.9577C11.6771 18.2077 11.3542 18.3327 10.9792 18.3327H9.02082ZM9.16665 16.666H10.8125L11.1042 14.4577C11.5347 14.3466 11.934 14.1834 12.3021 13.9681C12.6701 13.7528 13.0069 13.4924 13.3125 13.1868L15.375 14.041L16.1875 12.6243L14.3958 11.2702C14.4653 11.0757 14.5139 10.8709 14.5417 10.6556C14.5694 10.4403 14.5833 10.2216 14.5833 9.99935C14.5833 9.77713 14.5694 9.55838 14.5417 9.3431C14.5139 9.12782 14.4653 8.92296 14.3958 8.72852L16.1875 7.37435L15.375 5.95768L13.3125 6.83268C13.0069 6.51324 12.6701 6.24588 12.3021 6.0306C11.934 5.81532 11.5347 5.65213 11.1042 5.54102L10.8333 3.33268H9.18748L8.89582 5.54102C8.46526 5.65213 8.06596 5.81532 7.6979 6.0306C7.32984 6.24588 6.99304 6.50629 6.68748 6.81185L4.62498 5.95768L3.81248 7.37435L5.60415 8.70768C5.53471 8.91602 5.4861 9.12435 5.45832 9.33268C5.43054 9.54102 5.41665 9.76324 5.41665 9.99935C5.41665 10.2216 5.43054 10.4368 5.45832 10.6452C5.4861 10.8535 5.53471 11.0618 5.60415 11.2702L3.81248 12.6243L4.62498 14.041L6.68748 13.166C6.99304 13.4855 7.32984 13.7528 7.6979 13.9681C8.06596 14.1834 8.46526 14.3466 8.89582 14.4577L9.16665 16.666ZM10.0417 12.916C10.8472 12.916 11.5347 12.6313 12.1042 12.0618C12.6736 11.4924 12.9583 10.8049 12.9583 9.99935C12.9583 9.19379 12.6736 8.50629 12.1042 7.93685C11.5347 7.3674 10.8472 7.08268 10.0417 7.08268C9.22221 7.08268 8.53123 7.3674 7.96873 7.93685C7.40623 8.50629 7.12498 9.19379 7.12498 9.99935C7.12498 10.8049 7.40623 11.4924 7.96873 12.0618C8.53123 12.6313 9.22221 12.916 10.0417 12.916Z" fill="#686868"/>
</g>
</svg>
