<svg width="20" height="20" viewBox="0 0 20 20" fill="none" xmlns="http://www.w3.org/2000/svg">
<mask id="mask0_19473_52871" style="mask-type:alpha" maskUnits="userSpaceOnUse" x="0" y="0" width="20" height="20">
<rect width="20" height="20" fill="#D9D9D9"/>
</mask>
<g mask="url(#mask0_19473_52871)">
<path d="M9.02082 18.3337C8.64582 18.3337 8.3229 18.2087 8.05207 17.9587C7.78123 17.7087 7.61804 17.4031 7.56248 17.042L7.37498 15.667C7.19443 15.5975 7.02429 15.5142 6.86457 15.417C6.70485 15.3198 6.5486 15.2156 6.39582 15.1045L5.10415 15.6462C4.75693 15.7989 4.40971 15.8128 4.06248 15.6878C3.71526 15.5628 3.44443 15.3406 3.24998 15.0212L2.27082 13.3128C2.07637 12.9934 2.02082 12.6531 2.10415 12.292C2.18748 11.9309 2.37498 11.6323 2.66665 11.3962L3.77082 10.5628C3.75693 10.4656 3.74998 10.3719 3.74998 10.2816V9.71908C3.74998 9.6288 3.75693 9.53505 3.77082 9.43783L2.66665 8.60449C2.37498 8.36838 2.18748 8.06977 2.10415 7.70866C2.02082 7.34755 2.07637 7.00727 2.27082 6.68783L3.24998 4.97949C3.44443 4.66005 3.71526 4.43783 4.06248 4.31283C4.40971 4.18783 4.75693 4.20171 5.10415 4.35449L6.39582 4.89616C6.5486 4.78505 6.70832 4.68088 6.87498 4.58366C7.04165 4.48644 7.20832 4.4031 7.37498 4.33366L7.56248 2.95866C7.61804 2.59755 7.78123 2.29199 8.05207 2.04199C8.3229 1.79199 8.64582 1.66699 9.02082 1.66699H10.9792C11.3542 1.66699 11.6771 1.79199 11.9479 2.04199C12.2187 2.29199 12.3819 2.59755 12.4375 2.95866L12.625 4.33366C12.8055 4.4031 12.9757 4.48644 13.1354 4.58366C13.2951 4.68088 13.4514 4.78505 13.6042 4.89616L14.8958 4.35449C15.243 4.20171 15.5903 4.18783 15.9375 4.31283C16.2847 4.43783 16.5555 4.66005 16.75 4.97949L17.7292 6.68783C17.9236 7.00727 17.9792 7.34755 17.8958 7.70866C17.8125 8.06977 17.625 8.36838 17.3333 8.60449L16.2292 9.43783C16.243 9.53505 16.25 9.6288 16.25 9.71908V10.2816C16.25 10.3719 16.2361 10.4656 16.2083 10.5628L17.3125 11.3962C17.6042 11.6323 17.7917 11.9309 17.875 12.292C17.9583 12.6531 17.9028 12.9934 17.7083 13.3128L16.7083 15.0212C16.5139 15.3406 16.243 15.5628 15.8958 15.6878C15.5486 15.8128 15.2014 15.7989 14.8542 15.6462L13.6042 15.1045C13.4514 15.2156 13.2917 15.3198 13.125 15.417C12.9583 15.5142 12.7917 15.5975 12.625 15.667L12.4375 17.042C12.3819 17.4031 12.2187 17.7087 11.9479 17.9587C11.6771 18.2087 11.3542 18.3337 10.9792 18.3337H9.02082ZM9.16665 16.667H10.8125L11.1042 14.4587C11.5347 14.3475 11.934 14.1844 12.3021 13.9691C12.6701 13.7538 13.0069 13.4934 13.3125 13.1878L15.375 14.042L16.1875 12.6253L14.3958 11.2712C14.4653 11.0767 14.5139 10.8719 14.5417 10.6566C14.5694 10.4413 14.5833 10.2225 14.5833 10.0003C14.5833 9.7781 14.5694 9.55935 14.5417 9.34408C14.5139 9.1288 14.4653 8.92394 14.3958 8.72949L16.1875 7.37533L15.375 5.95866L13.3125 6.83366C13.0069 6.51421 12.6701 6.24685 12.3021 6.03158C11.934 5.8163 11.5347 5.6531 11.1042 5.54199L10.8333 3.33366H9.18748L8.89582 5.54199C8.46526 5.6531 8.06596 5.8163 7.6979 6.03158C7.32984 6.24685 6.99304 6.50727 6.68748 6.81283L4.62498 5.95866L3.81248 7.37533L5.60415 8.70866C5.53471 8.91699 5.4861 9.12533 5.45832 9.33366C5.43054 9.54199 5.41665 9.76421 5.41665 10.0003C5.41665 10.2225 5.43054 10.4378 5.45832 10.6462C5.4861 10.8545 5.53471 11.0628 5.60415 11.2712L3.81248 12.6253L4.62498 14.042L6.68748 13.167C6.99304 13.4864 7.32984 13.7538 7.6979 13.9691C8.06596 14.1844 8.46526 14.3475 8.89582 14.4587L9.16665 16.667ZM10.0417 12.917C10.8472 12.917 11.5347 12.6323 12.1042 12.0628C12.6736 11.4934 12.9583 10.8059 12.9583 10.0003C12.9583 9.19477 12.6736 8.50727 12.1042 7.93783C11.5347 7.36838 10.8472 7.08366 10.0417 7.08366C9.22221 7.08366 8.53123 7.36838 7.96873 7.93783C7.40623 8.50727 7.12498 9.19477 7.12498 10.0003C7.12498 10.8059 7.40623 11.4934 7.96873 12.0628C8.53123 12.6323 9.22221 12.917 10.0417 12.917Z" fill="white"/>
</g>
</svg>
