<svg width="18" height="18" viewBox="0 0 18 18" fill="none" xmlns="http://www.w3.org/2000/svg">
<path d="M3.87508 13.2493C4.58341 12.7077 5.37508 12.2806 6.25008 11.9681C7.12508 11.6556 8.04175 11.4993 9.00008 11.4993C9.95841 11.4993 10.8751 11.6556 11.7501 11.9681C12.6251 12.2806 13.4167 12.7077 14.1251 13.2493C14.6112 12.6799 14.9897 12.0341 15.2605 11.3118C15.5313 10.5896 15.6667 9.81879 15.6667 8.99935C15.6667 7.15213 15.0174 5.57921 13.7188 4.2806C12.4202 2.98199 10.8473 2.33268 9.00008 2.33268C7.15286 2.33268 5.57994 2.98199 4.28133 4.2806C2.98272 5.57921 2.33341 7.15213 2.33341 8.99935C2.33341 9.81879 2.46883 10.5896 2.73966 11.3118C3.0105 12.0341 3.38897 12.6799 3.87508 13.2493ZM9.00008 9.83268C8.18064 9.83268 7.48967 9.55143 6.92717 8.98893C6.36467 8.42643 6.08341 7.73546 6.08341 6.91602C6.08341 6.09657 6.36467 5.4056 6.92717 4.8431C7.48967 4.2806 8.18064 3.99935 9.00008 3.99935C9.81953 3.99935 10.5105 4.2806 11.073 4.8431C11.6355 5.4056 11.9167 6.09657 11.9167 6.91602C11.9167 7.73546 11.6355 8.42643 11.073 8.98893C10.5105 9.55143 9.81953 9.83268 9.00008 9.83268ZM9.00008 17.3327C7.8473 17.3327 6.76397 17.1139 5.75008 16.6764C4.73619 16.2389 3.85425 15.6452 3.10425 14.8952C2.35425 14.1452 1.7605 13.2632 1.323 12.2493C0.885498 11.2355 0.666748 10.1521 0.666748 8.99935C0.666748 7.84657 0.885498 6.76324 1.323 5.74935C1.7605 4.73546 2.35425 3.85352 3.10425 3.10352C3.85425 2.35352 4.73619 1.75977 5.75008 1.32227C6.76397 0.884766 7.8473 0.666016 9.00008 0.666016C10.1529 0.666016 11.2362 0.884766 12.2501 1.32227C13.264 1.75977 14.1459 2.35352 14.8959 3.10352C15.6459 3.85352 16.2397 4.73546 16.6772 5.74935C17.1147 6.76324 17.3334 7.84657 17.3334 8.99935C17.3334 10.1521 17.1147 11.2355 16.6772 12.2493C16.2397 13.2632 15.6459 14.1452 14.8959 14.8952C14.1459 15.6452 13.264 16.2389 12.2501 16.6764C11.2362 17.1139 10.1529 17.3327 9.00008 17.3327ZM9.00008 15.666C9.73619 15.666 10.4306 15.5584 11.0834 15.3431C11.7362 15.1278 12.3334 14.8188 12.8751 14.416C12.3334 14.0132 11.7362 13.7042 11.0834 13.4889C10.4306 13.2737 9.73619 13.166 9.00008 13.166C8.26397 13.166 7.56953 13.2737 6.91675 13.4889C6.26397 13.7042 5.66675 14.0132 5.12508 14.416C5.66675 14.8188 6.26397 15.1278 6.91675 15.3431C7.56953 15.5584 8.26397 15.666 9.00008 15.666ZM9.00008 8.16602C9.36119 8.16602 9.6598 8.04796 9.89591 7.81185C10.132 7.57574 10.2501 7.27713 10.2501 6.91602C10.2501 6.5549 10.132 6.25629 9.89591 6.02018C9.6598 5.78407 9.36119 5.66602 9.00008 5.66602C8.63897 5.66602 8.34036 5.78407 8.10425 6.02018C7.86814 6.25629 7.75008 6.5549 7.75008 6.91602C7.75008 7.27713 7.86814 7.57574 8.10425 7.81185C8.34036 8.04796 8.63897 8.16602 9.00008 8.16602Z" fill="#686868"/>
</svg>
