<svg width="20" height="20" viewBox="0 0 20 20" fill="none" xmlns="http://www.w3.org/2000/svg">
<mask id="mask0_19473_14398" style="mask-type:alpha" maskUnits="userSpaceOnUse" x="0" y="0" width="20" height="20">
<rect width="20" height="20" fill="#D9D9D9"/>
</mask>
<g mask="url(#mask0_19473_14398)">
<path d="M4.87533 14.2493C5.58366 13.7077 6.37533 13.2806 7.25033 12.9681C8.12533 12.6556 9.04199 12.4993 10.0003 12.4993C10.9587 12.4993 11.8753 12.6556 12.7503 12.9681C13.6253 13.2806 14.417 13.7077 15.1253 14.2493C15.6114 13.6799 15.9899 13.0341 16.2607 12.3118C16.5316 11.5896 16.667 10.8188 16.667 9.99935C16.667 8.15213 16.0177 6.57921 14.7191 5.2806C13.4205 3.98199 11.8475 3.33268 10.0003 3.33268C8.1531 3.33268 6.58019 3.98199 5.28158 5.2806C3.98296 6.57921 3.33366 8.15213 3.33366 9.99935C3.33366 10.8188 3.46908 11.5896 3.73991 12.3118C4.01074 13.0341 4.38921 13.6799 4.87533 14.2493ZM10.0003 10.8327C9.18088 10.8327 8.48991 10.5514 7.92741 9.98893C7.36491 9.42643 7.08366 8.73546 7.08366 7.91602C7.08366 7.09657 7.36491 6.4056 7.92741 5.8431C8.48991 5.2806 9.18088 4.99935 10.0003 4.99935C10.8198 4.99935 11.5107 5.2806 12.0732 5.8431C12.6357 6.4056 12.917 7.09657 12.917 7.91602C12.917 8.73546 12.6357 9.42643 12.0732 9.98893C11.5107 10.5514 10.8198 10.8327 10.0003 10.8327ZM10.0003 18.3327C8.84755 18.3327 7.76421 18.1139 6.75033 17.6764C5.73644 17.2389 4.85449 16.6452 4.10449 15.8952C3.35449 15.1452 2.76074 14.2632 2.32324 13.2493C1.88574 12.2355 1.66699 11.1521 1.66699 9.99935C1.66699 8.84657 1.88574 7.76324 2.32324 6.74935C2.76074 5.73546 3.35449 4.85352 4.10449 4.10352C4.85449 3.35352 5.73644 2.75977 6.75033 2.32227C7.76421 1.88477 8.84755 1.66602 10.0003 1.66602C11.1531 1.66602 12.2364 1.88477 13.2503 2.32227C14.2642 2.75977 15.1462 3.35352 15.8962 4.10352C16.6462 4.85352 17.2399 5.73546 17.6774 6.74935C18.1149 7.76324 18.3337 8.84657 18.3337 9.99935C18.3337 11.1521 18.1149 12.2355 17.6774 13.2493C17.2399 14.2632 16.6462 15.1452 15.8962 15.8952C15.1462 16.6452 14.2642 17.2389 13.2503 17.6764C12.2364 18.1139 11.1531 18.3327 10.0003 18.3327ZM10.0003 16.666C10.7364 16.666 11.4309 16.5584 12.0837 16.3431C12.7364 16.1278 13.3337 15.8188 13.8753 15.416C13.3337 15.0132 12.7364 14.7042 12.0837 14.4889C11.4309 14.2737 10.7364 14.166 10.0003 14.166C9.26421 14.166 8.56977 14.2737 7.91699 14.4889C7.26421 14.7042 6.66699 15.0132 6.12533 15.416C6.66699 15.8188 7.26421 16.1278 7.91699 16.3431C8.56977 16.5584 9.26421 16.666 10.0003 16.666ZM10.0003 9.16602C10.3614 9.16602 10.66 9.04796 10.8962 8.81185C11.1323 8.57574 11.2503 8.27713 11.2503 7.91602C11.2503 7.5549 11.1323 7.25629 10.8962 7.02018C10.66 6.78407 10.3614 6.66602 10.0003 6.66602C9.63921 6.66602 9.3406 6.78407 9.10449 7.02018C8.86838 7.25629 8.75033 7.5549 8.75033 7.91602C8.75033 8.27713 8.86838 8.57574 9.10449 8.81185C9.3406 9.04796 9.63921 9.16602 10.0003 9.16602Z" fill="white"/>
</g>
</svg>
