<svg width="57" height="56" viewBox="0 0 57 56" fill="none" xmlns="http://www.w3.org/2000/svg">
<rect x="0.666504" width="56" height="56" rx="28" fill="#F7F7F7"/>
<mask id="mask0_5007_796" style="mask-type:alpha" maskUnits="userSpaceOnUse" x="16" y="16" width="25" height="24">
<rect x="16.6665" y="16" width="24" height="24" fill="#D9D9D9"/>
</mask>
<g mask="url(#mask0_5007_796)">
<path d="M24.2915 22.4L27.0915 18.775C27.2915 18.5083 27.529 18.3125 27.804 18.1875C28.079 18.0625 28.3665 18 28.6665 18C28.9665 18 29.254 18.0625 29.529 18.1875C29.804 18.3125 30.0415 18.5083 30.2415 18.775L33.0415 22.4L37.2915 23.825C37.7248 23.9583 38.0665 24.2042 38.3165 24.5625C38.5665 24.9208 38.6915 25.3167 38.6915 25.75C38.6915 25.95 38.6623 26.15 38.604 26.35C38.5457 26.55 38.4498 26.7417 38.3165 26.925L35.5665 30.825L35.6665 34.925C35.6832 35.5083 35.4915 36 35.0915 36.4C34.6915 36.8 34.2248 37 33.6915 37C33.6582 37 33.4748 36.975 33.1415 36.925L28.6665 35.675L24.1915 36.925C24.1082 36.9583 24.0165 36.9792 23.9165 36.9875C23.8165 36.9958 23.7248 37 23.6415 37C23.1082 37 22.6415 36.8 22.2415 36.4C21.8415 36 21.6498 35.5083 21.6665 34.925L21.7665 30.8L19.0415 26.925C18.9082 26.7417 18.8123 26.55 18.754 26.35C18.6957 26.15 18.6665 25.95 18.6665 25.75C18.6665 25.3333 18.7873 24.9458 19.029 24.5875C19.2707 24.2292 19.6082 23.975 20.0415 23.825L24.2915 22.4ZM25.5165 24.125L20.6665 25.725L23.7665 30.2L23.6665 34.975L28.6665 33.6L33.6665 35L33.5665 30.2L36.6665 25.775L31.8165 24.125L28.6665 20L25.5165 24.125Z" fill="#4B4B4B"/>
</g>
</svg>
