<svg width="57" height="56" viewBox="0 0 57 56" fill="none" xmlns="http://www.w3.org/2000/svg">
<rect x="0.333252" width="56" height="56" rx="28" fill="#F7F7F7"/>
<mask id="mask0_5082_4359" style="mask-type:alpha" maskUnits="userSpaceOnUse" x="16" y="16" width="25" height="24">
<rect x="16.3333" y="16" width="24" height="24" fill="#D9D9D9"/>
</mask>
<g mask="url(#mask0_5082_4359)">
<path d="M27.3333 28.85L26.4333 29.725C26.2499 29.9083 26.0208 30 25.7458 30C25.4708 30 25.2333 29.9 25.0333 29.7C24.8499 29.5167 24.7583 29.2833 24.7583 29C24.7583 28.7167 24.8499 28.4833 25.0333 28.3L27.6333 25.7C27.8333 25.5 28.0666 25.4 28.3333 25.4C28.5999 25.4 28.8333 25.5 29.0333 25.7L31.6333 28.3C31.8166 28.4833 31.9124 28.7125 31.9208 28.9875C31.9291 29.2625 31.8333 29.5 31.6333 29.7C31.4499 29.8833 31.2208 29.9792 30.9458 29.9875C30.6708 29.9958 30.4333 29.9083 30.2333 29.725L29.3333 28.85V34H34.8333C35.5333 34 36.1249 33.7583 36.6083 33.275C37.0916 32.7917 37.3333 32.2 37.3333 31.5C37.3333 30.8 37.0916 30.2083 36.6083 29.725C36.1249 29.2417 35.5333 29 34.8333 29H33.3333V27C33.3333 25.6167 32.8458 24.4375 31.8708 23.4625C30.8958 22.4875 29.7166 22 28.3333 22C26.9499 22 25.7708 22.4875 24.7958 23.4625C23.8208 24.4375 23.3333 25.6167 23.3333 27H22.8333C21.8666 27 21.0416 27.3417 20.3583 28.025C19.6749 28.7083 19.3333 29.5333 19.3333 30.5C19.3333 31.4667 19.6749 32.2917 20.3583 32.975C21.0416 33.6583 21.8666 34 22.8333 34H24.3333C24.6166 34 24.8541 34.0958 25.0458 34.2875C25.2374 34.4792 25.3333 34.7167 25.3333 35C25.3333 35.2833 25.2374 35.5208 25.0458 35.7125C24.8541 35.9042 24.6166 36 24.3333 36H22.8333C21.3166 36 20.0208 35.475 18.9458 34.425C17.8708 33.375 17.3333 32.0917 17.3333 30.575C17.3333 29.275 17.7249 28.1167 18.5083 27.1C19.2916 26.0833 20.3166 25.4333 21.5833 25.15C21.9999 23.6167 22.8333 22.375 24.0833 21.425C25.3333 20.475 26.7499 20 28.3333 20C30.2833 20 31.9374 20.6792 33.2958 22.0375C34.6541 23.3958 35.3333 25.05 35.3333 27C36.4833 27.1333 37.4374 27.6292 38.1958 28.4875C38.9541 29.3458 39.3333 30.35 39.3333 31.5C39.3333 32.75 38.8958 33.8125 38.0208 34.6875C37.1458 35.5625 36.0833 36 34.8333 36H29.3333C28.7833 36 28.3124 35.8042 27.9208 35.4125C27.5291 35.0208 27.3333 34.55 27.3333 34V28.85Z" fill="#4B4B4B"/>
</g>
</svg>
