<svg width="56" height="56" viewBox="0 0 56 56" fill="none" xmlns="http://www.w3.org/2000/svg">
<path d="M0 28C0 12.536 12.536 0 28 0C43.464 0 56 12.536 56 28C56 43.464 43.464 56 28 56C12.536 56 0 43.464 0 28Z" fill="white"/>
<mask id="mask0_7128_92245" style="mask-type:alpha" maskUnits="userSpaceOnUse" x="12" y="12" width="32" height="32">
<rect x="12" y="12" width="32" height="32" fill="#D9D9D9"/>
</mask>
<g mask="url(#mask0_7128_92245)">
<path d="M37.357 41.323C37.2087 41.323 37.0716 41.2989 36.9456 41.2507C36.8199 41.2024 36.6976 41.1191 36.579 41.0007L28.9346 33.3563C28.8162 33.2377 28.7329 33.1154 28.6846 32.9897C28.6364 32.8637 28.6123 32.7265 28.6123 32.5783C28.6123 32.4303 28.6364 32.2933 28.6846 32.1673C28.7329 32.0413 28.8162 31.9191 28.9346 31.8007L31.768 28.9673C31.8864 28.8489 32.0086 28.7655 32.1346 28.7173C32.2606 28.6691 32.3976 28.645 32.5456 28.645C32.6939 28.645 32.831 28.6691 32.957 28.7173C33.0827 28.7655 33.205 28.8489 33.3236 28.9673L40.968 36.6117C41.0864 36.7303 41.1697 36.8525 41.218 36.9783C41.2662 37.1043 41.2903 37.2414 41.2903 37.3897C41.2903 37.5377 41.2662 37.6747 41.218 37.8007C41.1697 37.9267 41.0864 38.0489 40.968 38.1673L38.1346 41.0007C38.0162 41.1191 37.894 41.2024 37.768 41.2507C37.642 41.2989 37.505 41.323 37.357 41.323ZM37.357 38.6673L38.6346 37.3897L32.557 31.3117L31.279 32.5897L37.357 38.6673ZM18.6123 41.334C18.4643 41.334 18.3217 41.3081 18.1846 41.2563C18.0475 41.2043 17.9197 41.1191 17.8013 41.0007L15.0013 38.2007C14.8829 38.0822 14.7976 37.9544 14.7456 37.8173C14.6939 37.6802 14.668 37.5377 14.668 37.3897C14.668 37.2414 14.6939 37.1043 14.7456 36.9783C14.7976 36.8525 14.8829 36.7303 15.0013 36.6117L22.357 29.2563H25.1903L26.4123 28.034L20.6903 22.3117H18.7903L14.668 18.1897L18.1236 14.734L22.2456 18.8563V20.7563L27.968 26.4783L32.1456 22.3007L30.179 20.334L32.0456 18.4673H28.279L27.568 17.7563L31.9903 13.334L32.7013 14.045V17.8117L34.568 15.945L39.9013 21.2783C40.2495 21.6265 40.5199 22.0248 40.7123 22.473C40.905 22.921 41.0013 23.3969 41.0013 23.9007C41.0013 24.3747 40.9199 24.8302 40.757 25.2673C40.5939 25.7044 40.3605 26.097 40.057 26.445L37.2236 23.6117L35.357 25.4783L33.7346 23.8563L26.7456 30.845V33.645L19.3903 41.0007C19.2716 41.1191 19.1494 41.2043 19.0236 41.2563C18.8976 41.3081 18.7605 41.334 18.6123 41.334ZM18.6123 38.6673L24.9456 32.334V31.0563H23.668L17.3346 37.3897L18.6123 38.6673ZM18.6123 38.6673L17.3346 37.3897L17.9903 38.0117L18.6123 38.6673Z" fill="#E81818"/>
</g>
</svg>
